G04 #@! TF.GenerationSoftware,KiCad,Pcbnew,5.0.1*
G04 #@! TF.CreationDate,2018-10-22T18:12:29+01:00*
G04 #@! TF.ProjectId,ecp5_soc_hat,656370355F736F635F6861742E6B6963,rev?*
G04 #@! TF.SameCoordinates,Original*
G04 #@! TF.FileFunction,Copper,L2,Bot,Signal*
G04 #@! TF.FilePolarity,Positive*
%FSLAX46Y46*%
G04 Gerber Fmt 4.6, Leading zero omitted, Abs format (unit mm)*
G04 Created by KiCad (PCBNEW 5.0.1) date Mon 22 Oct 2018 18:12:29 BST*
%MOMM*%
%LPD*%
G01*
G04 APERTURE LIST*
G04 #@! TA.AperFunction,ComponentPad*
%ADD10R,1.700000X1.700000*%
G04 #@! TD*
G04 #@! TA.AperFunction,ComponentPad*
%ADD11O,1.700000X1.700000*%
G04 #@! TD*
G04 #@! TA.AperFunction,ComponentPad*
%ADD12R,1.600000X1.600000*%
G04 #@! TD*
G04 #@! TA.AperFunction,ComponentPad*
%ADD13C,1.600000*%
G04 #@! TD*
G04 #@! TA.AperFunction,ComponentPad*
%ADD14C,4.000000*%
G04 #@! TD*
G04 #@! TA.AperFunction,ComponentPad*
%ADD15C,3.500000*%
G04 #@! TD*
G04 #@! TA.AperFunction,ViaPad*
%ADD16C,0.600000*%
G04 #@! TD*
G04 #@! TA.AperFunction,ViaPad*
%ADD17C,1.000000*%
G04 #@! TD*
G04 #@! TA.AperFunction,Conductor*
%ADD18C,0.300000*%
G04 #@! TD*
G04 #@! TA.AperFunction,Conductor*
%ADD19C,0.500000*%
G04 #@! TD*
G04 #@! TA.AperFunction,Conductor*
%ADD20C,0.750000*%
G04 #@! TD*
G04 #@! TA.AperFunction,Conductor*
%ADD21C,0.350000*%
G04 #@! TD*
G04 #@! TA.AperFunction,Conductor*
%ADD22C,0.150000*%
G04 #@! TD*
G04 #@! TA.AperFunction,Conductor*
%ADD23C,0.180000*%
G04 #@! TD*
G04 #@! TA.AperFunction,Conductor*
%ADD24C,0.254000*%
G04 #@! TD*
G04 APERTURE END LIST*
D10*
G04 #@! TO.P,J3,1*
G04 #@! TO.N,+3V3*
X136000000Y-104540000D03*
D11*
G04 #@! TO.P,J3,2*
G04 #@! TO.N,/VGA_HS*
X136000000Y-102000000D03*
G04 #@! TO.P,J3,3*
G04 #@! TO.N,/VGA_BRIGHT*
X138540000Y-104540000D03*
G04 #@! TO.P,J3,4*
G04 #@! TO.N,/VGA_B*
X138540000Y-102000000D03*
G04 #@! TO.P,J3,5*
G04 #@! TO.N,/VGA_R*
X141080000Y-104540000D03*
G04 #@! TO.P,J3,6*
G04 #@! TO.N,/VGA_VS*
X141080000Y-102000000D03*
G04 #@! TO.P,J3,7*
G04 #@! TO.N,/VGA_G*
X143620000Y-104540000D03*
G04 #@! TO.P,J3,8*
G04 #@! TO.N,GND*
X143620000Y-102000000D03*
G04 #@! TD*
D12*
G04 #@! TO.P,J1,1*
G04 #@! TO.N,/VGA_VR*
X155000000Y-131000000D03*
D13*
G04 #@! TO.P,J1,2*
G04 #@! TO.N,/VGA_VG*
X152710000Y-131000000D03*
G04 #@! TO.P,J1,3*
G04 #@! TO.N,/VGA_VB*
X150420000Y-131000000D03*
G04 #@! TO.P,J1,4*
G04 #@! TO.N,Net-(J1-Pad4)*
X148130000Y-131000000D03*
G04 #@! TO.P,J1,5*
G04 #@! TO.N,GND*
X145840000Y-131000000D03*
G04 #@! TO.P,J1,6*
X156145000Y-132980000D03*
G04 #@! TO.P,J1,7*
X153855000Y-132980000D03*
G04 #@! TO.P,J1,8*
X151565000Y-132980000D03*
G04 #@! TO.P,J1,9*
G04 #@! TO.N,Net-(J1-Pad9)*
X149275000Y-132980000D03*
G04 #@! TO.P,J1,10*
G04 #@! TO.N,GND*
X146985000Y-132980000D03*
G04 #@! TO.P,J1,11*
G04 #@! TO.N,Net-(J1-Pad11)*
X155000000Y-134960000D03*
G04 #@! TO.P,J1,12*
G04 #@! TO.N,Net-(J1-Pad12)*
X152710000Y-134960000D03*
G04 #@! TO.P,J1,13*
G04 #@! TO.N,/HS_BUF*
X150420000Y-134960000D03*
G04 #@! TO.P,J1,14*
G04 #@! TO.N,/VS_BUF*
X148130000Y-134960000D03*
G04 #@! TO.P,J1,15*
G04 #@! TO.N,Net-(J1-Pad15)*
X145840000Y-134960000D03*
D14*
G04 #@! TO.P,J1,0*
G04 #@! TO.N,GND*
X138185000Y-133050000D03*
X163185000Y-133050000D03*
G04 #@! TD*
D11*
G04 #@! TO.P,X4,40*
G04 #@! TO.N,GND*
X152400000Y-106680000D03*
G04 #@! TO.P,X4,39*
G04 #@! TO.N,/VGA_R*
X149860000Y-106680000D03*
G04 #@! TO.P,X4,38*
G04 #@! TO.N,Net-(X4-Pad38)*
X152400000Y-104140000D03*
G04 #@! TO.P,X4,37*
G04 #@! TO.N,/VGA_G*
X149860000Y-104140000D03*
G04 #@! TO.P,X4,36*
G04 #@! TO.N,/VGA_VS*
X152400000Y-101600000D03*
G04 #@! TO.P,X4,35*
G04 #@! TO.N,/VGA_B*
X149860000Y-101600000D03*
G04 #@! TO.P,X4,34*
G04 #@! TO.N,GND*
X152400000Y-99060000D03*
G04 #@! TO.P,X4,33*
G04 #@! TO.N,/VGA_HS*
X149860000Y-99060000D03*
G04 #@! TO.P,X4,32*
G04 #@! TO.N,/USB_DP*
X152400000Y-96520000D03*
G04 #@! TO.P,X4,31*
G04 #@! TO.N,/USB_DM*
X149860000Y-96520000D03*
G04 #@! TO.P,X4,30*
G04 #@! TO.N,GND*
X152400000Y-93980000D03*
G04 #@! TO.P,X4,29*
G04 #@! TO.N,/RAM_A3*
X149860000Y-93980000D03*
G04 #@! TO.P,X4,28*
G04 #@! TO.N,/RAM_A2*
X152400000Y-91440000D03*
G04 #@! TO.P,X4,27*
G04 #@! TO.N,/RAM_A1*
X149860000Y-91440000D03*
G04 #@! TO.P,X4,26*
G04 #@! TO.N,GND*
X152400000Y-88900000D03*
G04 #@! TO.P,X4,25*
G04 #@! TO.N,/RAM_A4*
X149860000Y-88900000D03*
G04 #@! TO.P,X4,24*
G04 #@! TO.N,GND*
X152400000Y-86360000D03*
G04 #@! TO.P,X4,23*
G04 #@! TO.N,/RAM_A5*
X149860000Y-86360000D03*
G04 #@! TO.P,X4,22*
G04 #@! TO.N,GND*
X152400000Y-83820000D03*
G04 #@! TO.P,X4,21*
G04 #@! TO.N,/RAM_A6*
X149860000Y-83820000D03*
G04 #@! TO.P,X4,20*
G04 #@! TO.N,Net-(X4-Pad20)*
X152400000Y-81280000D03*
G04 #@! TO.P,X4,19*
G04 #@! TO.N,GND*
X149860000Y-81280000D03*
G04 #@! TO.P,X4,18*
G04 #@! TO.N,/RAM_A7*
X152400000Y-78740000D03*
G04 #@! TO.P,X4,17*
G04 #@! TO.N,/RAM_A8*
X149860000Y-78740000D03*
G04 #@! TO.P,X4,16*
G04 #@! TO.N,/RAM_A9*
X152400000Y-76200000D03*
G04 #@! TO.P,X4,15*
G04 #@! TO.N,/RAM_A11*
X149860000Y-76200000D03*
G04 #@! TO.P,X4,14*
G04 #@! TO.N,/RAM_A12*
X152400000Y-73660000D03*
G04 #@! TO.P,X4,13*
G04 #@! TO.N,/RAM_CKE*
X149860000Y-73660000D03*
G04 #@! TO.P,X4,12*
G04 #@! TO.N,/RAM_CLK*
X152400000Y-71120000D03*
G04 #@! TO.P,X4,11*
G04 #@! TO.N,/RAM_DQM1*
X149860000Y-71120000D03*
G04 #@! TO.P,X4,10*
G04 #@! TO.N,/RAM_DQ8*
X152400000Y-68580000D03*
G04 #@! TO.P,X4,9*
G04 #@! TO.N,/RAM_DQ9*
X149860000Y-68580000D03*
G04 #@! TO.P,X4,8*
G04 #@! TO.N,/RAM_DQ10*
X152400000Y-66040000D03*
G04 #@! TO.P,X4,7*
G04 #@! TO.N,/RAM_DQ11*
X149860000Y-66040000D03*
G04 #@! TO.P,X4,6*
G04 #@! TO.N,/RAM_DQ12*
X152400000Y-63500000D03*
G04 #@! TO.P,X4,5*
G04 #@! TO.N,/RAM_DQ13*
X149860000Y-63500000D03*
G04 #@! TO.P,X4,4*
G04 #@! TO.N,/RAM_DQ14*
X152400000Y-60960000D03*
G04 #@! TO.P,X4,3*
G04 #@! TO.N,/RAM_DQ15*
X149860000Y-60960000D03*
G04 #@! TO.P,X4,2*
G04 #@! TO.N,GND*
X152400000Y-58420000D03*
D10*
G04 #@! TO.P,X4,1*
G04 #@! TO.N,Net-(X4-Pad1)*
X149860000Y-58420000D03*
G04 #@! TD*
G04 #@! TO.P,X3,1*
G04 #@! TO.N,GND*
X116840000Y-58420000D03*
D11*
G04 #@! TO.P,X3,2*
G04 #@! TO.N,Net-(X3-Pad2)*
X119380000Y-58420000D03*
G04 #@! TO.P,X3,3*
G04 #@! TO.N,Net-(X3-Pad3)*
X116840000Y-60960000D03*
G04 #@! TO.P,X3,4*
G04 #@! TO.N,/RAM_DQ0*
X119380000Y-60960000D03*
G04 #@! TO.P,X3,5*
G04 #@! TO.N,/RAM_DQ1*
X116840000Y-63500000D03*
G04 #@! TO.P,X3,6*
G04 #@! TO.N,/RAM_DQ2*
X119380000Y-63500000D03*
G04 #@! TO.P,X3,7*
G04 #@! TO.N,/RAM_DQ3*
X116840000Y-66040000D03*
G04 #@! TO.P,X3,8*
G04 #@! TO.N,/RAM_DQ4*
X119380000Y-66040000D03*
G04 #@! TO.P,X3,9*
G04 #@! TO.N,/RAM_DQ5*
X116840000Y-68580000D03*
G04 #@! TO.P,X3,10*
G04 #@! TO.N,/RAM_DQ6*
X119380000Y-68580000D03*
G04 #@! TO.P,X3,11*
G04 #@! TO.N,/RAM_DQ7*
X116840000Y-71120000D03*
G04 #@! TO.P,X3,12*
G04 #@! TO.N,/RAM_DQM0*
X119380000Y-71120000D03*
G04 #@! TO.P,X3,13*
G04 #@! TO.N,/RAM_~WE*
X116840000Y-73660000D03*
G04 #@! TO.P,X3,14*
G04 #@! TO.N,/RAM_~CAS*
X119380000Y-73660000D03*
G04 #@! TO.P,X3,15*
G04 #@! TO.N,/RAM_~RAS*
X116840000Y-76200000D03*
G04 #@! TO.P,X3,16*
G04 #@! TO.N,/RAM_~CS*
X119380000Y-76200000D03*
G04 #@! TO.P,X3,17*
G04 #@! TO.N,/RAM_BA0*
X116840000Y-78740000D03*
G04 #@! TO.P,X3,18*
G04 #@! TO.N,/RAM_BA1*
X119380000Y-78740000D03*
G04 #@! TO.P,X3,19*
G04 #@! TO.N,/RAM_A10*
X116840000Y-81280000D03*
G04 #@! TO.P,X3,20*
G04 #@! TO.N,/RAM_A0*
X119380000Y-81280000D03*
G04 #@! TO.P,X3,21*
G04 #@! TO.N,Net-(X3-Pad21)*
X116840000Y-83820000D03*
G04 #@! TO.P,X3,22*
G04 #@! TO.N,GND*
X119380000Y-83820000D03*
G04 #@! TO.P,X3,23*
G04 #@! TO.N,Net-(X3-Pad23)*
X116840000Y-86360000D03*
G04 #@! TO.P,X3,24*
G04 #@! TO.N,GND*
X119380000Y-86360000D03*
G04 #@! TO.P,X3,25*
G04 #@! TO.N,+3V3*
X116840000Y-88900000D03*
G04 #@! TO.P,X3,26*
G04 #@! TO.N,GND*
X119380000Y-88900000D03*
G04 #@! TO.P,X3,27*
G04 #@! TO.N,+3V3*
X116840000Y-91440000D03*
G04 #@! TO.P,X3,28*
G04 #@! TO.N,GND*
X119380000Y-91440000D03*
G04 #@! TO.P,X3,29*
G04 #@! TO.N,/EXPCON_OSC*
X116840000Y-93980000D03*
G04 #@! TO.P,X3,30*
G04 #@! TO.N,GND*
X119380000Y-93980000D03*
G04 #@! TO.P,X3,31*
G04 #@! TO.N,/EXPCON_CLKIN*
X116840000Y-96520000D03*
G04 #@! TO.P,X3,32*
G04 #@! TO.N,GND*
X119380000Y-96520000D03*
G04 #@! TO.P,X3,33*
G04 #@! TO.N,/VGA_BRIGHT*
X116840000Y-99060000D03*
G04 #@! TO.P,X3,34*
G04 #@! TO.N,GND*
X119380000Y-99060000D03*
G04 #@! TO.P,X3,35*
G04 #@! TO.N,Net-(X3-Pad35)*
X116840000Y-101600000D03*
G04 #@! TO.P,X3,36*
G04 #@! TO.N,GND*
X119380000Y-101600000D03*
G04 #@! TO.P,X3,37*
G04 #@! TO.N,Net-(X3-Pad37)*
X116840000Y-104140000D03*
G04 #@! TO.P,X3,38*
G04 #@! TO.N,GND*
X119380000Y-104140000D03*
G04 #@! TO.P,X3,39*
G04 #@! TO.N,Net-(X3-Pad39)*
X116840000Y-106680000D03*
G04 #@! TO.P,X3,40*
G04 #@! TO.N,GND*
X119380000Y-106680000D03*
G04 #@! TD*
D15*
G04 #@! TO.P,J2,5*
G04 #@! TO.N,GND*
X118650000Y-133700000D03*
X105500000Y-133700000D03*
G04 #@! TD*
D16*
G04 #@! TO.N,GND*
X136500000Y-75500000D03*
X127500000Y-90750000D03*
X127750000Y-96250000D03*
X124750000Y-82500000D03*
X127250000Y-70250000D03*
X124500000Y-68000000D03*
X126900000Y-65620000D03*
D17*
X134170000Y-59000000D03*
X142210000Y-61040000D03*
X138480000Y-63200000D03*
D16*
X144650000Y-64650000D03*
X142190000Y-68020000D03*
X138400000Y-67980000D03*
X138530000Y-72000000D03*
X142850000Y-72670000D03*
X145040000Y-69900000D03*
X138610000Y-82410000D03*
X142040000Y-82370000D03*
X124490000Y-63010000D03*
X136500000Y-73000000D03*
X138000000Y-73000000D03*
X138000000Y-75500000D03*
X136500000Y-79000000D03*
X138000000Y-80500000D03*
X133000000Y-78500000D03*
X131000000Y-78500000D03*
X131000000Y-76500000D03*
X133000000Y-76500000D03*
X133000000Y-74000000D03*
X131000000Y-74000000D03*
X131000000Y-70500000D03*
X131000000Y-69000000D03*
X133500000Y-69000000D03*
X133500000Y-70500000D03*
X136000000Y-69000000D03*
X136000000Y-67000000D03*
X136000000Y-61500000D03*
X130500000Y-64500000D03*
X133500000Y-64500000D03*
X133500000Y-66500000D03*
X130500000Y-66500000D03*
X128500000Y-86000000D03*
X132000000Y-86000000D03*
X135000000Y-86000000D03*
X139000000Y-90000000D03*
X143000000Y-94500000D03*
X136500000Y-94500000D03*
X127500000Y-103500000D03*
X124000000Y-100000000D03*
X131500000Y-99500000D03*
X137000000Y-98000000D03*
X146000000Y-98000000D03*
X141500000Y-98000000D03*
X140000000Y-94500000D03*
X144000000Y-98000000D03*
X139500000Y-98000000D03*
X135500000Y-99500000D03*
X133000000Y-102000000D03*
X130500000Y-104750000D03*
X133000000Y-108000000D03*
X138000000Y-109500000D03*
X141500000Y-109500000D03*
X146000000Y-109000000D03*
X146000000Y-106500000D03*
X147500000Y-105000000D03*
X147500000Y-102000000D03*
X147500000Y-99500000D03*
X128000000Y-108500000D03*
X133750000Y-115000000D03*
X136000000Y-114000000D03*
X135500000Y-118000000D03*
X135000000Y-123000000D03*
X135000000Y-127000000D03*
X115500000Y-119000000D03*
X115500000Y-116000000D03*
X113500000Y-116000000D03*
X115000000Y-114000000D03*
X110500000Y-118000000D03*
X110500000Y-116000000D03*
X110500000Y-114000000D03*
X112000000Y-112500000D03*
X113500000Y-111000000D03*
X116500000Y-109000000D03*
X121000000Y-109000000D03*
X124000000Y-107500000D03*
X126000000Y-106000000D03*
X125000000Y-110500000D03*
X118000000Y-114000000D03*
X120000000Y-113000000D03*
X123000000Y-113000000D03*
X117500000Y-123500000D03*
X121000000Y-123500000D03*
X118500000Y-125000000D03*
X120000000Y-125000000D03*
X123000000Y-125000000D03*
X121500000Y-125000000D03*
X119000000Y-123500000D03*
X115500000Y-125000000D03*
X116500000Y-126000000D03*
X118000000Y-127500000D03*
X119500000Y-127500000D03*
X122000000Y-127500000D03*
X126500000Y-127500000D03*
X131000000Y-127500000D03*
X122000000Y-132000000D03*
X122000000Y-136000000D03*
X126500000Y-132000000D03*
X131000000Y-132000000D03*
X126500000Y-136000000D03*
X131000000Y-136000000D03*
X139500000Y-125000000D03*
X146000000Y-125000000D03*
X143000000Y-125000000D03*
X141000000Y-127000000D03*
X145000000Y-127000000D03*
X157000000Y-123500000D03*
X160750000Y-123250000D03*
X164500000Y-123500000D03*
X164500000Y-120500000D03*
X157000000Y-120500000D03*
X157000000Y-117000000D03*
X157000000Y-113500000D03*
X157000000Y-108000000D03*
X157000000Y-101000000D03*
X157000000Y-105000000D03*
X146500000Y-128500000D03*
X140000000Y-118500000D03*
X142500000Y-117000000D03*
X143500000Y-114000000D03*
X148000000Y-117000000D03*
X150000000Y-116500000D03*
X152500000Y-112000000D03*
X148000000Y-110000000D03*
X140000000Y-85000000D03*
X142000000Y-87500000D03*
X144500000Y-90000000D03*
X148000000Y-90000000D03*
X146000000Y-87000000D03*
X144000000Y-84500000D03*
X114000000Y-85000000D03*
X114000000Y-90500000D03*
X112000000Y-92500000D03*
X112000000Y-104000000D03*
X112000000Y-108000000D03*
X107500000Y-121000000D03*
X128250000Y-121750000D03*
X127000000Y-121750000D03*
X125750000Y-121750000D03*
X127000000Y-119000000D03*
X128250000Y-113500000D03*
X128000000Y-116500000D03*
X129500000Y-122000000D03*
X154500000Y-122250000D03*
D17*
X125000000Y-59000000D03*
X123000000Y-57000000D03*
X140000000Y-59000000D03*
D16*
X105000000Y-121000000D03*
D17*
G04 #@! TO.N,+5V*
X110750000Y-119500000D03*
X113250000Y-119500000D03*
G04 #@! TO.N,+3V3*
X116750000Y-111750000D03*
X114500000Y-110250000D03*
X133987347Y-83762653D03*
X136000000Y-82000000D03*
D16*
X135750000Y-122000000D03*
X137750000Y-122000000D03*
X148500000Y-124775000D03*
X150500000Y-123250000D03*
X133300000Y-111200000D03*
X133300000Y-109600000D03*
G04 #@! TO.N,/VGA_R*
X147800000Y-108000000D03*
X146200000Y-108000000D03*
G04 #@! TO.N,/VGA_HS*
X154000000Y-101000000D03*
G04 #@! TO.N,/VGA_VG*
X153500000Y-128500000D03*
G04 #@! TO.N,/VGA_VB*
X152000000Y-128250000D03*
G04 #@! TO.N,Net-(RN2-Pad2)*
X154250000Y-116500000D03*
X153000000Y-115250000D03*
G04 #@! TO.N,Net-(RN2-Pad1)*
X153250000Y-114500000D03*
X155000000Y-116250000D03*
G04 #@! TO.N,/VGA_BRIGHT*
X144750000Y-110500000D03*
X146500000Y-110500000D03*
X146250000Y-119025000D03*
X146250000Y-117475000D03*
X146250000Y-115000000D03*
X147000000Y-114000000D03*
X128250000Y-106500000D03*
X127000000Y-105250000D03*
G04 #@! TO.N,/HS_BUF*
X142500000Y-128500000D03*
G04 #@! TO.N,/VS_BUF*
X143500000Y-128500000D03*
G04 #@! TD*
D18*
G04 #@! TO.N,GND*
X114000000Y-85000000D02*
X114000000Y-90500000D01*
X112000000Y-92500000D02*
X112000000Y-104000000D01*
X128250000Y-121750000D02*
X127000000Y-121750000D01*
X127000000Y-121750000D02*
X125750000Y-121750000D01*
D19*
G04 #@! TO.N,+5V*
X110750000Y-119500000D02*
X113250000Y-119500000D01*
D20*
G04 #@! TO.N,+3V3*
X116750000Y-111750000D02*
X116000000Y-111750000D01*
X116000000Y-111750000D02*
X114500000Y-110250000D01*
D19*
X133987347Y-83762653D02*
X134237347Y-83762653D01*
X134237347Y-83762653D02*
X136000000Y-82000000D01*
X135750000Y-122000000D02*
X137750000Y-122000000D01*
D21*
X148799999Y-124475001D02*
X148799999Y-124450001D01*
X148500000Y-124775000D02*
X148799999Y-124475001D01*
X148799999Y-124450001D02*
X150000000Y-123250000D01*
X150000000Y-123250000D02*
X150500000Y-123250000D01*
D19*
X133300000Y-111200000D02*
X133300000Y-109600000D01*
D22*
G04 #@! TO.N,/VGA_R*
X147800000Y-108000000D02*
X146200000Y-108000000D01*
G04 #@! TO.N,/VGA_HS*
X150935001Y-100135001D02*
X150709999Y-99909999D01*
X150709999Y-99909999D02*
X149860000Y-99060000D01*
X153135001Y-100135001D02*
X150935001Y-100135001D01*
X154000000Y-101000000D02*
X153135001Y-100135001D01*
G04 #@! TO.N,/VGA_VG*
X152710000Y-129290000D02*
X152710000Y-131000000D01*
X153500000Y-128500000D02*
X152710000Y-129290000D01*
G04 #@! TO.N,/VGA_VB*
X150420000Y-129830000D02*
X152000000Y-128250000D01*
X150420000Y-131000000D02*
X150420000Y-129830000D01*
G04 #@! TO.N,Net-(RN2-Pad2)*
X154250000Y-116500000D02*
X153000000Y-115250000D01*
G04 #@! TO.N,Net-(RN2-Pad1)*
X153250000Y-114500000D02*
X155000000Y-116250000D01*
D23*
G04 #@! TO.N,/VGA_BRIGHT*
X144750000Y-110500000D02*
X146500000Y-110500000D01*
X146250000Y-119025000D02*
X146250000Y-117475000D01*
X146250000Y-115000000D02*
X146250000Y-114750000D01*
X146250000Y-114750000D02*
X147000000Y-114000000D01*
X128250000Y-106500000D02*
X127000000Y-105250000D01*
G04 #@! TO.N,/HS_BUF*
X150420000Y-134960000D02*
X148630000Y-136750000D01*
X148630000Y-136750000D02*
X144000000Y-136750000D01*
X144000000Y-136750000D02*
X143000000Y-135750000D01*
X143000000Y-135750000D02*
X143000000Y-129000000D01*
X143000000Y-129000000D02*
X142500000Y-128500000D01*
D22*
G04 #@! TO.N,/VS_BUF*
X148130000Y-134960000D02*
X146840000Y-136250000D01*
X146840000Y-136250000D02*
X144500000Y-136250000D01*
X144500000Y-136250000D02*
X143500000Y-135250000D01*
X143500000Y-135250000D02*
X143500000Y-128500000D01*
G04 #@! TD*
D24*
G04 #@! TO.N,GND*
G36*
X158290001Y-107982736D02*
X158283975Y-108106547D01*
X158313894Y-108190043D01*
X158331196Y-108277028D01*
X158400061Y-108380091D01*
X167290000Y-123196660D01*
X167290001Y-137290000D01*
X149126796Y-137290000D01*
X149152695Y-137272695D01*
X149193143Y-137212162D01*
X150046698Y-136358606D01*
X150134561Y-136395000D01*
X150705439Y-136395000D01*
X151232862Y-136176534D01*
X151565000Y-135844396D01*
X151897138Y-136176534D01*
X152424561Y-136395000D01*
X152995439Y-136395000D01*
X153522862Y-136176534D01*
X153855000Y-135844396D01*
X154187138Y-136176534D01*
X154714561Y-136395000D01*
X155285439Y-136395000D01*
X155812862Y-136176534D01*
X156216534Y-135772862D01*
X156435000Y-135245439D01*
X156435000Y-134925022D01*
X161489584Y-134925022D01*
X161710353Y-135295743D01*
X162682012Y-135689119D01*
X163730247Y-135680713D01*
X164659647Y-135295743D01*
X164880416Y-134925022D01*
X163185000Y-133229605D01*
X161489584Y-134925022D01*
X156435000Y-134925022D01*
X156435000Y-134674561D01*
X156324614Y-134408066D01*
X156498454Y-134399778D01*
X156899005Y-134233864D01*
X156973139Y-133987745D01*
X156145000Y-133159605D01*
X156130858Y-133173748D01*
X155951253Y-132994143D01*
X155965395Y-132980000D01*
X156324605Y-132980000D01*
X157152745Y-133808139D01*
X157398864Y-133734005D01*
X157591965Y-133196777D01*
X157564778Y-132626546D01*
X157531834Y-132547012D01*
X160545881Y-132547012D01*
X160554287Y-133595247D01*
X160939257Y-134524647D01*
X161309978Y-134745416D01*
X163005395Y-133050000D01*
X163364605Y-133050000D01*
X165060022Y-134745416D01*
X165430743Y-134524647D01*
X165824119Y-133552988D01*
X165815713Y-132504753D01*
X165430743Y-131575353D01*
X165060022Y-131354584D01*
X163364605Y-133050000D01*
X163005395Y-133050000D01*
X161309978Y-131354584D01*
X160939257Y-131575353D01*
X160545881Y-132547012D01*
X157531834Y-132547012D01*
X157398864Y-132225995D01*
X157152745Y-132151861D01*
X156324605Y-132980000D01*
X155965395Y-132980000D01*
X155951252Y-132965858D01*
X156130858Y-132786253D01*
X156145000Y-132800395D01*
X156973139Y-131972255D01*
X156899005Y-131726136D01*
X156447440Y-131563826D01*
X156447440Y-131174978D01*
X161489584Y-131174978D01*
X163185000Y-132870395D01*
X164880416Y-131174978D01*
X164659647Y-130804257D01*
X163687988Y-130410881D01*
X162639753Y-130419287D01*
X161710353Y-130804257D01*
X161489584Y-131174978D01*
X156447440Y-131174978D01*
X156447440Y-130200000D01*
X156398157Y-129952235D01*
X156257809Y-129742191D01*
X156047765Y-129601843D01*
X155800000Y-129552560D01*
X154200000Y-129552560D01*
X153952235Y-129601843D01*
X153742191Y-129742191D01*
X153637807Y-129898411D01*
X153522862Y-129783466D01*
X153420000Y-129740859D01*
X153420000Y-129584091D01*
X153569091Y-129435000D01*
X153685983Y-129435000D01*
X154029635Y-129292655D01*
X154292655Y-129029635D01*
X154435000Y-128685983D01*
X154435000Y-128314017D01*
X154292655Y-127970365D01*
X154029635Y-127707345D01*
X153685983Y-127565000D01*
X153314017Y-127565000D01*
X152970365Y-127707345D01*
X152840892Y-127836818D01*
X152792655Y-127720365D01*
X152529635Y-127457345D01*
X152185983Y-127315000D01*
X151814017Y-127315000D01*
X151470365Y-127457345D01*
X151207345Y-127720365D01*
X151065000Y-128064017D01*
X151065000Y-128180909D01*
X149967402Y-129278508D01*
X149908120Y-129318119D01*
X149751471Y-129552560D01*
X149751196Y-129552972D01*
X149714166Y-129739134D01*
X149607138Y-129783466D01*
X149275000Y-130115604D01*
X148942862Y-129783466D01*
X148415439Y-129565000D01*
X147844561Y-129565000D01*
X147317138Y-129783466D01*
X146913466Y-130187138D01*
X146911802Y-130191156D01*
X146847745Y-130171861D01*
X146019605Y-131000000D01*
X146033748Y-131014142D01*
X145854142Y-131193748D01*
X145840000Y-131179605D01*
X145011861Y-132007745D01*
X145085995Y-132253864D01*
X145623223Y-132446965D01*
X145652207Y-132445583D01*
X145538035Y-132763223D01*
X145565222Y-133333454D01*
X145644563Y-133525000D01*
X145554561Y-133525000D01*
X145027138Y-133743466D01*
X144623466Y-134147138D01*
X144405000Y-134674561D01*
X144405000Y-135150909D01*
X144210000Y-134955910D01*
X144210000Y-130783223D01*
X144393035Y-130783223D01*
X144420222Y-131353454D01*
X144586136Y-131754005D01*
X144832255Y-131828139D01*
X145660395Y-131000000D01*
X144832255Y-130171861D01*
X144586136Y-130245995D01*
X144393035Y-130783223D01*
X144210000Y-130783223D01*
X144210000Y-129992255D01*
X145011861Y-129992255D01*
X145840000Y-130820395D01*
X146668139Y-129992255D01*
X146594005Y-129746136D01*
X146056777Y-129553035D01*
X145486546Y-129580222D01*
X145085995Y-129746136D01*
X145011861Y-129992255D01*
X144210000Y-129992255D01*
X144210000Y-129112290D01*
X144292655Y-129029635D01*
X144435000Y-128685983D01*
X144435000Y-128314017D01*
X144292655Y-127970365D01*
X144029635Y-127707345D01*
X143685983Y-127565000D01*
X143314017Y-127565000D01*
X143000000Y-127695070D01*
X142685983Y-127565000D01*
X142314017Y-127565000D01*
X141970365Y-127707345D01*
X141707345Y-127970365D01*
X141565000Y-128314017D01*
X141565000Y-128685983D01*
X141707345Y-129029635D01*
X141970365Y-129292655D01*
X142275001Y-129418839D01*
X142275000Y-135678600D01*
X142260798Y-135750000D01*
X142275000Y-135821400D01*
X142275000Y-135821403D01*
X142317065Y-136032880D01*
X142477305Y-136272694D01*
X142537836Y-136313140D01*
X143436857Y-137212161D01*
X143477305Y-137272695D01*
X143503204Y-137290000D01*
X101710000Y-137290000D01*
X101710000Y-135394528D01*
X103985077Y-135394528D01*
X104175364Y-135739271D01*
X105056591Y-136090956D01*
X106005323Y-136078641D01*
X106824636Y-135739271D01*
X107014923Y-135394528D01*
X117135077Y-135394528D01*
X117325364Y-135739271D01*
X118206591Y-136090956D01*
X119155323Y-136078641D01*
X119974636Y-135739271D01*
X120164923Y-135394528D01*
X118650000Y-133879605D01*
X117135077Y-135394528D01*
X107014923Y-135394528D01*
X105500000Y-133879605D01*
X103985077Y-135394528D01*
X101710000Y-135394528D01*
X101710000Y-133256591D01*
X103109044Y-133256591D01*
X103121359Y-134205323D01*
X103460729Y-135024636D01*
X103805472Y-135214923D01*
X105320395Y-133700000D01*
X105679605Y-133700000D01*
X107194528Y-135214923D01*
X107539271Y-135024636D01*
X107890956Y-134143409D01*
X107879445Y-133256591D01*
X116259044Y-133256591D01*
X116271359Y-134205323D01*
X116610729Y-135024636D01*
X116955472Y-135214923D01*
X118470395Y-133700000D01*
X118829605Y-133700000D01*
X120344528Y-135214923D01*
X120689271Y-135024636D01*
X120729025Y-134925022D01*
X136489584Y-134925022D01*
X136710353Y-135295743D01*
X137682012Y-135689119D01*
X138730247Y-135680713D01*
X139659647Y-135295743D01*
X139880416Y-134925022D01*
X138185000Y-133229605D01*
X136489584Y-134925022D01*
X120729025Y-134925022D01*
X121040956Y-134143409D01*
X121028641Y-133194677D01*
X120760370Y-132547012D01*
X135545881Y-132547012D01*
X135554287Y-133595247D01*
X135939257Y-134524647D01*
X136309978Y-134745416D01*
X138005395Y-133050000D01*
X138364605Y-133050000D01*
X140060022Y-134745416D01*
X140430743Y-134524647D01*
X140824119Y-133552988D01*
X140815713Y-132504753D01*
X140430743Y-131575353D01*
X140060022Y-131354584D01*
X138364605Y-133050000D01*
X138005395Y-133050000D01*
X136309978Y-131354584D01*
X135939257Y-131575353D01*
X135545881Y-132547012D01*
X120760370Y-132547012D01*
X120689271Y-132375364D01*
X120344528Y-132185077D01*
X118829605Y-133700000D01*
X118470395Y-133700000D01*
X116955472Y-132185077D01*
X116610729Y-132375364D01*
X116259044Y-133256591D01*
X107879445Y-133256591D01*
X107878641Y-133194677D01*
X107539271Y-132375364D01*
X107194528Y-132185077D01*
X105679605Y-133700000D01*
X105320395Y-133700000D01*
X103805472Y-132185077D01*
X103460729Y-132375364D01*
X103109044Y-133256591D01*
X101710000Y-133256591D01*
X101710000Y-132005472D01*
X103985077Y-132005472D01*
X105500000Y-133520395D01*
X107014923Y-132005472D01*
X117135077Y-132005472D01*
X118650000Y-133520395D01*
X120164923Y-132005472D01*
X119974636Y-131660729D01*
X119093409Y-131309044D01*
X118144677Y-131321359D01*
X117325364Y-131660729D01*
X117135077Y-132005472D01*
X107014923Y-132005472D01*
X106824636Y-131660729D01*
X105943409Y-131309044D01*
X104994677Y-131321359D01*
X104175364Y-131660729D01*
X103985077Y-132005472D01*
X101710000Y-132005472D01*
X101710000Y-131174978D01*
X136489584Y-131174978D01*
X138185000Y-132870395D01*
X139880416Y-131174978D01*
X139659647Y-130804257D01*
X138687988Y-130410881D01*
X137639753Y-130419287D01*
X136710353Y-130804257D01*
X136489584Y-131174978D01*
X101710000Y-131174978D01*
X101710000Y-124589017D01*
X147565000Y-124589017D01*
X147565000Y-124960983D01*
X147707345Y-125304635D01*
X147970365Y-125567655D01*
X148314017Y-125710000D01*
X148685983Y-125710000D01*
X149029635Y-125567655D01*
X149292655Y-125304635D01*
X149411426Y-125017897D01*
X149479509Y-124916003D01*
X150240828Y-124154684D01*
X150314017Y-124185000D01*
X150685983Y-124185000D01*
X151029635Y-124042655D01*
X151292655Y-123779635D01*
X151435000Y-123435983D01*
X151435000Y-123064017D01*
X151292655Y-122720365D01*
X151029635Y-122457345D01*
X150685983Y-122315000D01*
X150314017Y-122315000D01*
X150034149Y-122430925D01*
X150000000Y-122424132D01*
X149683953Y-122486997D01*
X149547270Y-122578327D01*
X149416023Y-122666023D01*
X149370834Y-122733653D01*
X148283654Y-123820834D01*
X148216022Y-123866024D01*
X148202564Y-123886165D01*
X147970365Y-123982345D01*
X147707345Y-124245365D01*
X147565000Y-124589017D01*
X101710000Y-124589017D01*
X101710000Y-123196658D01*
X102539584Y-121814017D01*
X134815000Y-121814017D01*
X134815000Y-122185983D01*
X134957345Y-122529635D01*
X135220365Y-122792655D01*
X135564017Y-122935000D01*
X135935983Y-122935000D01*
X136056694Y-122885000D01*
X137443306Y-122885000D01*
X137564017Y-122935000D01*
X137935983Y-122935000D01*
X138279635Y-122792655D01*
X138542655Y-122529635D01*
X138685000Y-122185983D01*
X138685000Y-121814017D01*
X138542655Y-121470365D01*
X138279635Y-121207345D01*
X137935983Y-121065000D01*
X137564017Y-121065000D01*
X137443306Y-121115000D01*
X136056694Y-121115000D01*
X135935983Y-121065000D01*
X135564017Y-121065000D01*
X135220365Y-121207345D01*
X134957345Y-121470365D01*
X134815000Y-121814017D01*
X102539584Y-121814017D01*
X104063454Y-119274234D01*
X109615000Y-119274234D01*
X109615000Y-119725766D01*
X109787793Y-120142926D01*
X110107074Y-120462207D01*
X110524234Y-120635000D01*
X110975766Y-120635000D01*
X111392926Y-120462207D01*
X111470133Y-120385000D01*
X112529867Y-120385000D01*
X112607074Y-120462207D01*
X113024234Y-120635000D01*
X113475766Y-120635000D01*
X113892926Y-120462207D01*
X114212207Y-120142926D01*
X114385000Y-119725766D01*
X114385000Y-119274234D01*
X114212207Y-118857074D01*
X113892926Y-118537793D01*
X113475766Y-118365000D01*
X113024234Y-118365000D01*
X112607074Y-118537793D01*
X112529867Y-118615000D01*
X111470133Y-118615000D01*
X111392926Y-118537793D01*
X110975766Y-118365000D01*
X110524234Y-118365000D01*
X110107074Y-118537793D01*
X109787793Y-118857074D01*
X109615000Y-119274234D01*
X104063454Y-119274234D01*
X105254583Y-117289017D01*
X145315000Y-117289017D01*
X145315000Y-117660983D01*
X145457345Y-118004635D01*
X145525001Y-118072291D01*
X145525000Y-118427710D01*
X145457345Y-118495365D01*
X145315000Y-118839017D01*
X145315000Y-119210983D01*
X145457345Y-119554635D01*
X145720365Y-119817655D01*
X146064017Y-119960000D01*
X146435983Y-119960000D01*
X146779635Y-119817655D01*
X147042655Y-119554635D01*
X147185000Y-119210983D01*
X147185000Y-118839017D01*
X147042655Y-118495365D01*
X146975000Y-118427710D01*
X146975000Y-118072290D01*
X147042655Y-118004635D01*
X147185000Y-117660983D01*
X147185000Y-117289017D01*
X147042655Y-116945365D01*
X146779635Y-116682345D01*
X146435983Y-116540000D01*
X146064017Y-116540000D01*
X145720365Y-116682345D01*
X145457345Y-116945365D01*
X145315000Y-117289017D01*
X105254583Y-117289017D01*
X106739583Y-114814017D01*
X145315000Y-114814017D01*
X145315000Y-115185983D01*
X145457345Y-115529635D01*
X145720365Y-115792655D01*
X146064017Y-115935000D01*
X146435983Y-115935000D01*
X146779635Y-115792655D01*
X147042655Y-115529635D01*
X147185000Y-115185983D01*
X147185000Y-115064017D01*
X152065000Y-115064017D01*
X152065000Y-115435983D01*
X152207345Y-115779635D01*
X152470365Y-116042655D01*
X152814017Y-116185000D01*
X152930910Y-116185000D01*
X153315000Y-116569091D01*
X153315000Y-116685983D01*
X153457345Y-117029635D01*
X153720365Y-117292655D01*
X154064017Y-117435000D01*
X154435983Y-117435000D01*
X154779635Y-117292655D01*
X154887290Y-117185000D01*
X155185983Y-117185000D01*
X155529635Y-117042655D01*
X155792655Y-116779635D01*
X155935000Y-116435983D01*
X155935000Y-116064017D01*
X155792655Y-115720365D01*
X155529635Y-115457345D01*
X155185983Y-115315000D01*
X155069091Y-115315000D01*
X154185000Y-114430909D01*
X154185000Y-114314017D01*
X154042655Y-113970365D01*
X153779635Y-113707345D01*
X153435983Y-113565000D01*
X153064017Y-113565000D01*
X152720365Y-113707345D01*
X152457345Y-113970365D01*
X152315000Y-114314017D01*
X152315000Y-114612710D01*
X152207345Y-114720365D01*
X152065000Y-115064017D01*
X147185000Y-115064017D01*
X147185000Y-114935000D01*
X147185983Y-114935000D01*
X147529635Y-114792655D01*
X147792655Y-114529635D01*
X147935000Y-114185983D01*
X147935000Y-113814017D01*
X147792655Y-113470365D01*
X147529635Y-113207345D01*
X147185983Y-113065000D01*
X146814017Y-113065000D01*
X146470365Y-113207345D01*
X146207345Y-113470365D01*
X146065000Y-113814017D01*
X146065000Y-113909696D01*
X145800575Y-114174121D01*
X145720365Y-114207345D01*
X145457345Y-114470365D01*
X145315000Y-114814017D01*
X106739583Y-114814017D01*
X109613453Y-110024234D01*
X113365000Y-110024234D01*
X113365000Y-110475766D01*
X113537793Y-110892926D01*
X113857074Y-111212207D01*
X114158853Y-111337208D01*
X115215482Y-112393837D01*
X115271831Y-112478169D01*
X115605918Y-112701399D01*
X115900524Y-112760000D01*
X115900528Y-112760000D01*
X115999999Y-112779786D01*
X116099470Y-112760000D01*
X116222457Y-112760000D01*
X116524234Y-112885000D01*
X116975766Y-112885000D01*
X117392926Y-112712207D01*
X117712207Y-112392926D01*
X117885000Y-111975766D01*
X117885000Y-111524234D01*
X117712207Y-111107074D01*
X117392926Y-110787793D01*
X116975766Y-110615000D01*
X116524234Y-110615000D01*
X116360978Y-110682623D01*
X115587208Y-109908853D01*
X115462207Y-109607074D01*
X115269150Y-109414017D01*
X132365000Y-109414017D01*
X132365000Y-109785983D01*
X132415001Y-109906696D01*
X132415000Y-110893306D01*
X132365000Y-111014017D01*
X132365000Y-111385983D01*
X132507345Y-111729635D01*
X132770365Y-111992655D01*
X133114017Y-112135000D01*
X133485983Y-112135000D01*
X133829635Y-111992655D01*
X134092655Y-111729635D01*
X134235000Y-111385983D01*
X134235000Y-111014017D01*
X134185000Y-110893306D01*
X134185000Y-110314017D01*
X143815000Y-110314017D01*
X143815000Y-110685983D01*
X143957345Y-111029635D01*
X144220365Y-111292655D01*
X144564017Y-111435000D01*
X144935983Y-111435000D01*
X145279635Y-111292655D01*
X145347290Y-111225000D01*
X145902710Y-111225000D01*
X145970365Y-111292655D01*
X146314017Y-111435000D01*
X146685983Y-111435000D01*
X147029635Y-111292655D01*
X147292655Y-111029635D01*
X147435000Y-110685983D01*
X147435000Y-110314017D01*
X147292655Y-109970365D01*
X147029635Y-109707345D01*
X146685983Y-109565000D01*
X146314017Y-109565000D01*
X145970365Y-109707345D01*
X145902710Y-109775000D01*
X145347290Y-109775000D01*
X145279635Y-109707345D01*
X144935983Y-109565000D01*
X144564017Y-109565000D01*
X144220365Y-109707345D01*
X143957345Y-109970365D01*
X143815000Y-110314017D01*
X134185000Y-110314017D01*
X134185000Y-109906694D01*
X134235000Y-109785983D01*
X134235000Y-109414017D01*
X134092655Y-109070365D01*
X133829635Y-108807345D01*
X133485983Y-108665000D01*
X133114017Y-108665000D01*
X132770365Y-108807345D01*
X132507345Y-109070365D01*
X132365000Y-109414017D01*
X115269150Y-109414017D01*
X115142926Y-109287793D01*
X114725766Y-109115000D01*
X114274234Y-109115000D01*
X113857074Y-109287793D01*
X113537793Y-109607074D01*
X113365000Y-110024234D01*
X109613453Y-110024234D01*
X110599940Y-108380090D01*
X110668805Y-108277028D01*
X110686108Y-108190039D01*
X110716025Y-108106548D01*
X110710000Y-107982747D01*
X110710000Y-60960000D01*
X115325908Y-60960000D01*
X115441161Y-61539418D01*
X115769375Y-62030625D01*
X116067761Y-62230000D01*
X115769375Y-62429375D01*
X115441161Y-62920582D01*
X115325908Y-63500000D01*
X115441161Y-64079418D01*
X115769375Y-64570625D01*
X116067761Y-64770000D01*
X115769375Y-64969375D01*
X115441161Y-65460582D01*
X115325908Y-66040000D01*
X115441161Y-66619418D01*
X115769375Y-67110625D01*
X116067761Y-67310000D01*
X115769375Y-67509375D01*
X115441161Y-68000582D01*
X115325908Y-68580000D01*
X115441161Y-69159418D01*
X115769375Y-69650625D01*
X116067761Y-69850000D01*
X115769375Y-70049375D01*
X115441161Y-70540582D01*
X115325908Y-71120000D01*
X115441161Y-71699418D01*
X115769375Y-72190625D01*
X116067761Y-72390000D01*
X115769375Y-72589375D01*
X115441161Y-73080582D01*
X115325908Y-73660000D01*
X115441161Y-74239418D01*
X115769375Y-74730625D01*
X116067761Y-74930000D01*
X115769375Y-75129375D01*
X115441161Y-75620582D01*
X115325908Y-76200000D01*
X115441161Y-76779418D01*
X115769375Y-77270625D01*
X116067761Y-77470000D01*
X115769375Y-77669375D01*
X115441161Y-78160582D01*
X115325908Y-78740000D01*
X115441161Y-79319418D01*
X115769375Y-79810625D01*
X116067761Y-80010000D01*
X115769375Y-80209375D01*
X115441161Y-80700582D01*
X115325908Y-81280000D01*
X115441161Y-81859418D01*
X115769375Y-82350625D01*
X116067761Y-82550000D01*
X115769375Y-82749375D01*
X115441161Y-83240582D01*
X115325908Y-83820000D01*
X115441161Y-84399418D01*
X115769375Y-84890625D01*
X116067761Y-85090000D01*
X115769375Y-85289375D01*
X115441161Y-85780582D01*
X115325908Y-86360000D01*
X115441161Y-86939418D01*
X115769375Y-87430625D01*
X116067761Y-87630000D01*
X115769375Y-87829375D01*
X115441161Y-88320582D01*
X115325908Y-88900000D01*
X115441161Y-89479418D01*
X115769375Y-89970625D01*
X116067761Y-90170000D01*
X115769375Y-90369375D01*
X115441161Y-90860582D01*
X115325908Y-91440000D01*
X115441161Y-92019418D01*
X115769375Y-92510625D01*
X116067761Y-92710000D01*
X115769375Y-92909375D01*
X115441161Y-93400582D01*
X115325908Y-93980000D01*
X115441161Y-94559418D01*
X115769375Y-95050625D01*
X116067761Y-95250000D01*
X115769375Y-95449375D01*
X115441161Y-95940582D01*
X115325908Y-96520000D01*
X115441161Y-97099418D01*
X115769375Y-97590625D01*
X116067761Y-97790000D01*
X115769375Y-97989375D01*
X115441161Y-98480582D01*
X115325908Y-99060000D01*
X115441161Y-99639418D01*
X115769375Y-100130625D01*
X116067761Y-100330000D01*
X115769375Y-100529375D01*
X115441161Y-101020582D01*
X115325908Y-101600000D01*
X115441161Y-102179418D01*
X115769375Y-102670625D01*
X116067761Y-102870000D01*
X115769375Y-103069375D01*
X115441161Y-103560582D01*
X115325908Y-104140000D01*
X115441161Y-104719418D01*
X115769375Y-105210625D01*
X116067761Y-105410000D01*
X115769375Y-105609375D01*
X115441161Y-106100582D01*
X115325908Y-106680000D01*
X115441161Y-107259418D01*
X115769375Y-107750625D01*
X116260582Y-108078839D01*
X116693744Y-108165000D01*
X116986256Y-108165000D01*
X117419418Y-108078839D01*
X117910625Y-107750625D01*
X118111353Y-107450214D01*
X118498642Y-107875183D01*
X119023108Y-108121486D01*
X119253000Y-108000819D01*
X119253000Y-106807000D01*
X119507000Y-106807000D01*
X119507000Y-108000819D01*
X119736892Y-108121486D01*
X120261358Y-107875183D01*
X120317100Y-107814017D01*
X145265000Y-107814017D01*
X145265000Y-108185983D01*
X145407345Y-108529635D01*
X145670365Y-108792655D01*
X146014017Y-108935000D01*
X146385983Y-108935000D01*
X146729635Y-108792655D01*
X146812290Y-108710000D01*
X147187710Y-108710000D01*
X147270365Y-108792655D01*
X147614017Y-108935000D01*
X147985983Y-108935000D01*
X148329635Y-108792655D01*
X148592655Y-108529635D01*
X148735000Y-108185983D01*
X148735000Y-107814017D01*
X148592655Y-107470365D01*
X148329635Y-107207345D01*
X147985983Y-107065000D01*
X147614017Y-107065000D01*
X147270365Y-107207345D01*
X147187710Y-107290000D01*
X146812290Y-107290000D01*
X146729635Y-107207345D01*
X146385983Y-107065000D01*
X146014017Y-107065000D01*
X145670365Y-107207345D01*
X145407345Y-107470365D01*
X145265000Y-107814017D01*
X120317100Y-107814017D01*
X120651645Y-107446924D01*
X120821476Y-107036890D01*
X120700155Y-106807000D01*
X119507000Y-106807000D01*
X119253000Y-106807000D01*
X119233000Y-106807000D01*
X119233000Y-106553000D01*
X119253000Y-106553000D01*
X119253000Y-104267000D01*
X119507000Y-104267000D01*
X119507000Y-106553000D01*
X120700155Y-106553000D01*
X120821476Y-106323110D01*
X120651645Y-105913076D01*
X120261358Y-105484817D01*
X120102046Y-105410000D01*
X120261358Y-105335183D01*
X120508480Y-105064017D01*
X126065000Y-105064017D01*
X126065000Y-105435983D01*
X126207345Y-105779635D01*
X126470365Y-106042655D01*
X126814017Y-106185000D01*
X126909696Y-106185000D01*
X127315000Y-106590305D01*
X127315000Y-106685983D01*
X127457345Y-107029635D01*
X127720365Y-107292655D01*
X128064017Y-107435000D01*
X128435983Y-107435000D01*
X128779635Y-107292655D01*
X129042655Y-107029635D01*
X129185000Y-106685983D01*
X129185000Y-106314017D01*
X129042655Y-105970365D01*
X128779635Y-105707345D01*
X128435983Y-105565000D01*
X128340305Y-105565000D01*
X127935000Y-105159696D01*
X127935000Y-105064017D01*
X127792655Y-104720365D01*
X127529635Y-104457345D01*
X127185983Y-104315000D01*
X126814017Y-104315000D01*
X126470365Y-104457345D01*
X126207345Y-104720365D01*
X126065000Y-105064017D01*
X120508480Y-105064017D01*
X120651645Y-104906924D01*
X120821476Y-104496890D01*
X120700155Y-104267000D01*
X119507000Y-104267000D01*
X119253000Y-104267000D01*
X119233000Y-104267000D01*
X119233000Y-104013000D01*
X119253000Y-104013000D01*
X119253000Y-101727000D01*
X119507000Y-101727000D01*
X119507000Y-104013000D01*
X120700155Y-104013000D01*
X120821476Y-103783110D01*
X120651645Y-103373076D01*
X120261358Y-102944817D01*
X120102046Y-102870000D01*
X120261358Y-102795183D01*
X120651645Y-102366924D01*
X120803620Y-102000000D01*
X134485908Y-102000000D01*
X134601161Y-102579418D01*
X134929375Y-103070625D01*
X134947619Y-103082816D01*
X134902235Y-103091843D01*
X134692191Y-103232191D01*
X134551843Y-103442235D01*
X134502560Y-103690000D01*
X134502560Y-105390000D01*
X134551843Y-105637765D01*
X134692191Y-105847809D01*
X134902235Y-105988157D01*
X135150000Y-106037440D01*
X136850000Y-106037440D01*
X137097765Y-105988157D01*
X137307809Y-105847809D01*
X137448157Y-105637765D01*
X137457184Y-105592381D01*
X137469375Y-105610625D01*
X137960582Y-105938839D01*
X138393744Y-106025000D01*
X138686256Y-106025000D01*
X139119418Y-105938839D01*
X139610625Y-105610625D01*
X139810000Y-105312239D01*
X140009375Y-105610625D01*
X140500582Y-105938839D01*
X140933744Y-106025000D01*
X141226256Y-106025000D01*
X141659418Y-105938839D01*
X142150625Y-105610625D01*
X142350000Y-105312239D01*
X142549375Y-105610625D01*
X143040582Y-105938839D01*
X143473744Y-106025000D01*
X143766256Y-106025000D01*
X144199418Y-105938839D01*
X144690625Y-105610625D01*
X145018839Y-105119418D01*
X145134092Y-104540000D01*
X145018839Y-103960582D01*
X144690625Y-103469375D01*
X144390214Y-103268647D01*
X144815183Y-102881358D01*
X145061486Y-102356892D01*
X144940819Y-102127000D01*
X143747000Y-102127000D01*
X143747000Y-102147000D01*
X143493000Y-102147000D01*
X143493000Y-102127000D01*
X143473000Y-102127000D01*
X143473000Y-101873000D01*
X143493000Y-101873000D01*
X143493000Y-100679845D01*
X143747000Y-100679845D01*
X143747000Y-101873000D01*
X144940819Y-101873000D01*
X145061486Y-101643108D01*
X144815183Y-101118642D01*
X144386924Y-100728355D01*
X143976890Y-100558524D01*
X143747000Y-100679845D01*
X143493000Y-100679845D01*
X143263110Y-100558524D01*
X142853076Y-100728355D01*
X142424817Y-101118642D01*
X142363843Y-101248478D01*
X142150625Y-100929375D01*
X141659418Y-100601161D01*
X141226256Y-100515000D01*
X140933744Y-100515000D01*
X140500582Y-100601161D01*
X140009375Y-100929375D01*
X139810000Y-101227761D01*
X139610625Y-100929375D01*
X139119418Y-100601161D01*
X138686256Y-100515000D01*
X138393744Y-100515000D01*
X137960582Y-100601161D01*
X137469375Y-100929375D01*
X137270000Y-101227761D01*
X137070625Y-100929375D01*
X136579418Y-100601161D01*
X136146256Y-100515000D01*
X135853744Y-100515000D01*
X135420582Y-100601161D01*
X134929375Y-100929375D01*
X134601161Y-101420582D01*
X134485908Y-102000000D01*
X120803620Y-102000000D01*
X120821476Y-101956890D01*
X120700155Y-101727000D01*
X119507000Y-101727000D01*
X119253000Y-101727000D01*
X119233000Y-101727000D01*
X119233000Y-101473000D01*
X119253000Y-101473000D01*
X119253000Y-99187000D01*
X119507000Y-99187000D01*
X119507000Y-101473000D01*
X120700155Y-101473000D01*
X120821476Y-101243110D01*
X120651645Y-100833076D01*
X120261358Y-100404817D01*
X120102046Y-100330000D01*
X120261358Y-100255183D01*
X120651645Y-99826924D01*
X120821476Y-99416890D01*
X120700155Y-99187000D01*
X119507000Y-99187000D01*
X119253000Y-99187000D01*
X119233000Y-99187000D01*
X119233000Y-98933000D01*
X119253000Y-98933000D01*
X119253000Y-96647000D01*
X119507000Y-96647000D01*
X119507000Y-98933000D01*
X120700155Y-98933000D01*
X120821476Y-98703110D01*
X120651645Y-98293076D01*
X120261358Y-97864817D01*
X120102046Y-97790000D01*
X120261358Y-97715183D01*
X120651645Y-97286924D01*
X120821476Y-96876890D01*
X120700155Y-96647000D01*
X119507000Y-96647000D01*
X119253000Y-96647000D01*
X119233000Y-96647000D01*
X119233000Y-96393000D01*
X119253000Y-96393000D01*
X119253000Y-94107000D01*
X119507000Y-94107000D01*
X119507000Y-96393000D01*
X120700155Y-96393000D01*
X120821476Y-96163110D01*
X120651645Y-95753076D01*
X120261358Y-95324817D01*
X120102046Y-95250000D01*
X120261358Y-95175183D01*
X120651645Y-94746924D01*
X120821476Y-94336890D01*
X120700155Y-94107000D01*
X119507000Y-94107000D01*
X119253000Y-94107000D01*
X119233000Y-94107000D01*
X119233000Y-93853000D01*
X119253000Y-93853000D01*
X119253000Y-91567000D01*
X119507000Y-91567000D01*
X119507000Y-93853000D01*
X120700155Y-93853000D01*
X120821476Y-93623110D01*
X120651645Y-93213076D01*
X120261358Y-92784817D01*
X120102046Y-92710000D01*
X120261358Y-92635183D01*
X120651645Y-92206924D01*
X120821476Y-91796890D01*
X120700155Y-91567000D01*
X119507000Y-91567000D01*
X119253000Y-91567000D01*
X119233000Y-91567000D01*
X119233000Y-91313000D01*
X119253000Y-91313000D01*
X119253000Y-89027000D01*
X119507000Y-89027000D01*
X119507000Y-91313000D01*
X120700155Y-91313000D01*
X120821476Y-91083110D01*
X120651645Y-90673076D01*
X120261358Y-90244817D01*
X120102046Y-90170000D01*
X120261358Y-90095183D01*
X120651645Y-89666924D01*
X120821476Y-89256890D01*
X120700155Y-89027000D01*
X119507000Y-89027000D01*
X119253000Y-89027000D01*
X119233000Y-89027000D01*
X119233000Y-88773000D01*
X119253000Y-88773000D01*
X119253000Y-86487000D01*
X119507000Y-86487000D01*
X119507000Y-88773000D01*
X120700155Y-88773000D01*
X120821476Y-88543110D01*
X120651645Y-88133076D01*
X120261358Y-87704817D01*
X120102046Y-87630000D01*
X120261358Y-87555183D01*
X120651645Y-87126924D01*
X120821476Y-86716890D01*
X120700155Y-86487000D01*
X119507000Y-86487000D01*
X119253000Y-86487000D01*
X119233000Y-86487000D01*
X119233000Y-86233000D01*
X119253000Y-86233000D01*
X119253000Y-83947000D01*
X119507000Y-83947000D01*
X119507000Y-86233000D01*
X120700155Y-86233000D01*
X120821476Y-86003110D01*
X120651645Y-85593076D01*
X120261358Y-85164817D01*
X120102046Y-85090000D01*
X120261358Y-85015183D01*
X120651645Y-84586924D01*
X120821476Y-84176890D01*
X120700155Y-83947000D01*
X119507000Y-83947000D01*
X119253000Y-83947000D01*
X119233000Y-83947000D01*
X119233000Y-83693000D01*
X119253000Y-83693000D01*
X119253000Y-83673000D01*
X119507000Y-83673000D01*
X119507000Y-83693000D01*
X120700155Y-83693000D01*
X120782541Y-83536887D01*
X132852347Y-83536887D01*
X132852347Y-83988419D01*
X133025140Y-84405579D01*
X133344421Y-84724860D01*
X133761581Y-84897653D01*
X134213113Y-84897653D01*
X134630273Y-84724860D01*
X134949554Y-84405579D01*
X135022778Y-84228800D01*
X136116579Y-83135000D01*
X136225766Y-83135000D01*
X136642926Y-82962207D01*
X136962207Y-82642926D01*
X137135000Y-82225766D01*
X137135000Y-81774234D01*
X136962207Y-81357074D01*
X136642926Y-81037793D01*
X136225766Y-80865000D01*
X135774234Y-80865000D01*
X135357074Y-81037793D01*
X135037793Y-81357074D01*
X134865000Y-81774234D01*
X134865000Y-81883421D01*
X134120769Y-82627653D01*
X133761581Y-82627653D01*
X133344421Y-82800446D01*
X133025140Y-83119727D01*
X132852347Y-83536887D01*
X120782541Y-83536887D01*
X120821476Y-83463110D01*
X120651645Y-83053076D01*
X120261358Y-82624817D01*
X120131522Y-82563843D01*
X120450625Y-82350625D01*
X120778839Y-81859418D01*
X120894092Y-81280000D01*
X120778839Y-80700582D01*
X120450625Y-80209375D01*
X120152239Y-80010000D01*
X120450625Y-79810625D01*
X120778839Y-79319418D01*
X120894092Y-78740000D01*
X120778839Y-78160582D01*
X120450625Y-77669375D01*
X120152239Y-77470000D01*
X120450625Y-77270625D01*
X120778839Y-76779418D01*
X120894092Y-76200000D01*
X120778839Y-75620582D01*
X120450625Y-75129375D01*
X120152239Y-74930000D01*
X120450625Y-74730625D01*
X120778839Y-74239418D01*
X120894092Y-73660000D01*
X120778839Y-73080582D01*
X120450625Y-72589375D01*
X120152239Y-72390000D01*
X120450625Y-72190625D01*
X120778839Y-71699418D01*
X120894092Y-71120000D01*
X120778839Y-70540582D01*
X120450625Y-70049375D01*
X120152239Y-69850000D01*
X120450625Y-69650625D01*
X120778839Y-69159418D01*
X120894092Y-68580000D01*
X120778839Y-68000582D01*
X120450625Y-67509375D01*
X120152239Y-67310000D01*
X120450625Y-67110625D01*
X120778839Y-66619418D01*
X120894092Y-66040000D01*
X120778839Y-65460582D01*
X120450625Y-64969375D01*
X120152239Y-64770000D01*
X120450625Y-64570625D01*
X120778839Y-64079418D01*
X120894092Y-63500000D01*
X120778839Y-62920582D01*
X120450625Y-62429375D01*
X120152239Y-62230000D01*
X120450625Y-62030625D01*
X120778839Y-61539418D01*
X120894092Y-60960000D01*
X148345908Y-60960000D01*
X148461161Y-61539418D01*
X148789375Y-62030625D01*
X149087761Y-62230000D01*
X148789375Y-62429375D01*
X148461161Y-62920582D01*
X148345908Y-63500000D01*
X148461161Y-64079418D01*
X148789375Y-64570625D01*
X149087761Y-64770000D01*
X148789375Y-64969375D01*
X148461161Y-65460582D01*
X148345908Y-66040000D01*
X148461161Y-66619418D01*
X148789375Y-67110625D01*
X149087761Y-67310000D01*
X148789375Y-67509375D01*
X148461161Y-68000582D01*
X148345908Y-68580000D01*
X148461161Y-69159418D01*
X148789375Y-69650625D01*
X149087761Y-69850000D01*
X148789375Y-70049375D01*
X148461161Y-70540582D01*
X148345908Y-71120000D01*
X148461161Y-71699418D01*
X148789375Y-72190625D01*
X149087761Y-72390000D01*
X148789375Y-72589375D01*
X148461161Y-73080582D01*
X148345908Y-73660000D01*
X148461161Y-74239418D01*
X148789375Y-74730625D01*
X149087761Y-74930000D01*
X148789375Y-75129375D01*
X148461161Y-75620582D01*
X148345908Y-76200000D01*
X148461161Y-76779418D01*
X148789375Y-77270625D01*
X149087761Y-77470000D01*
X148789375Y-77669375D01*
X148461161Y-78160582D01*
X148345908Y-78740000D01*
X148461161Y-79319418D01*
X148789375Y-79810625D01*
X149108478Y-80023843D01*
X148978642Y-80084817D01*
X148588355Y-80513076D01*
X148418524Y-80923110D01*
X148539845Y-81153000D01*
X149733000Y-81153000D01*
X149733000Y-81133000D01*
X149987000Y-81133000D01*
X149987000Y-81153000D01*
X150007000Y-81153000D01*
X150007000Y-81407000D01*
X149987000Y-81407000D01*
X149987000Y-81427000D01*
X149733000Y-81427000D01*
X149733000Y-81407000D01*
X148539845Y-81407000D01*
X148418524Y-81636890D01*
X148588355Y-82046924D01*
X148978642Y-82475183D01*
X149108478Y-82536157D01*
X148789375Y-82749375D01*
X148461161Y-83240582D01*
X148345908Y-83820000D01*
X148461161Y-84399418D01*
X148789375Y-84890625D01*
X149087761Y-85090000D01*
X148789375Y-85289375D01*
X148461161Y-85780582D01*
X148345908Y-86360000D01*
X148461161Y-86939418D01*
X148789375Y-87430625D01*
X149087761Y-87630000D01*
X148789375Y-87829375D01*
X148461161Y-88320582D01*
X148345908Y-88900000D01*
X148461161Y-89479418D01*
X148789375Y-89970625D01*
X149087761Y-90170000D01*
X148789375Y-90369375D01*
X148461161Y-90860582D01*
X148345908Y-91440000D01*
X148461161Y-92019418D01*
X148789375Y-92510625D01*
X149087761Y-92710000D01*
X148789375Y-92909375D01*
X148461161Y-93400582D01*
X148345908Y-93980000D01*
X148461161Y-94559418D01*
X148789375Y-95050625D01*
X149087761Y-95250000D01*
X148789375Y-95449375D01*
X148461161Y-95940582D01*
X148345908Y-96520000D01*
X148461161Y-97099418D01*
X148789375Y-97590625D01*
X149087761Y-97790000D01*
X148789375Y-97989375D01*
X148461161Y-98480582D01*
X148345908Y-99060000D01*
X148461161Y-99639418D01*
X148789375Y-100130625D01*
X149087761Y-100330000D01*
X148789375Y-100529375D01*
X148461161Y-101020582D01*
X148345908Y-101600000D01*
X148461161Y-102179418D01*
X148789375Y-102670625D01*
X149087761Y-102870000D01*
X148789375Y-103069375D01*
X148461161Y-103560582D01*
X148345908Y-104140000D01*
X148461161Y-104719418D01*
X148789375Y-105210625D01*
X149087761Y-105410000D01*
X148789375Y-105609375D01*
X148461161Y-106100582D01*
X148345908Y-106680000D01*
X148461161Y-107259418D01*
X148789375Y-107750625D01*
X149280582Y-108078839D01*
X149713744Y-108165000D01*
X150006256Y-108165000D01*
X150439418Y-108078839D01*
X150930625Y-107750625D01*
X151131353Y-107450214D01*
X151518642Y-107875183D01*
X152043108Y-108121486D01*
X152273000Y-108000819D01*
X152273000Y-106807000D01*
X152527000Y-106807000D01*
X152527000Y-108000819D01*
X152756892Y-108121486D01*
X153281358Y-107875183D01*
X153671645Y-107446924D01*
X153841476Y-107036890D01*
X153720155Y-106807000D01*
X152527000Y-106807000D01*
X152273000Y-106807000D01*
X152253000Y-106807000D01*
X152253000Y-106553000D01*
X152273000Y-106553000D01*
X152273000Y-106533000D01*
X152527000Y-106533000D01*
X152527000Y-106553000D01*
X153720155Y-106553000D01*
X153841476Y-106323110D01*
X153671645Y-105913076D01*
X153281358Y-105484817D01*
X153151522Y-105423843D01*
X153470625Y-105210625D01*
X153798839Y-104719418D01*
X153914092Y-104140000D01*
X153798839Y-103560582D01*
X153470625Y-103069375D01*
X153172239Y-102870000D01*
X153470625Y-102670625D01*
X153798839Y-102179418D01*
X153847457Y-101935000D01*
X154185983Y-101935000D01*
X154529635Y-101792655D01*
X154792655Y-101529635D01*
X154935000Y-101185983D01*
X154935000Y-100814017D01*
X154792655Y-100470365D01*
X154529635Y-100207345D01*
X154185983Y-100065000D01*
X154069090Y-100065000D01*
X153718321Y-99714231D01*
X153841476Y-99416890D01*
X153720155Y-99187000D01*
X152527000Y-99187000D01*
X152527000Y-99207000D01*
X152273000Y-99207000D01*
X152273000Y-99187000D01*
X152253000Y-99187000D01*
X152253000Y-98933000D01*
X152273000Y-98933000D01*
X152273000Y-98913000D01*
X152527000Y-98913000D01*
X152527000Y-98933000D01*
X153720155Y-98933000D01*
X153841476Y-98703110D01*
X153671645Y-98293076D01*
X153281358Y-97864817D01*
X153151522Y-97803843D01*
X153470625Y-97590625D01*
X153798839Y-97099418D01*
X153914092Y-96520000D01*
X153798839Y-95940582D01*
X153470625Y-95449375D01*
X153151522Y-95236157D01*
X153281358Y-95175183D01*
X153671645Y-94746924D01*
X153841476Y-94336890D01*
X153720155Y-94107000D01*
X152527000Y-94107000D01*
X152527000Y-94127000D01*
X152273000Y-94127000D01*
X152273000Y-94107000D01*
X152253000Y-94107000D01*
X152253000Y-93853000D01*
X152273000Y-93853000D01*
X152273000Y-93833000D01*
X152527000Y-93833000D01*
X152527000Y-93853000D01*
X153720155Y-93853000D01*
X153841476Y-93623110D01*
X153671645Y-93213076D01*
X153281358Y-92784817D01*
X153151522Y-92723843D01*
X153470625Y-92510625D01*
X153798839Y-92019418D01*
X153914092Y-91440000D01*
X153798839Y-90860582D01*
X153470625Y-90369375D01*
X153151522Y-90156157D01*
X153281358Y-90095183D01*
X153671645Y-89666924D01*
X153841476Y-89256890D01*
X153720155Y-89027000D01*
X152527000Y-89027000D01*
X152527000Y-89047000D01*
X152273000Y-89047000D01*
X152273000Y-89027000D01*
X152253000Y-89027000D01*
X152253000Y-88773000D01*
X152273000Y-88773000D01*
X152273000Y-86487000D01*
X152527000Y-86487000D01*
X152527000Y-88773000D01*
X153720155Y-88773000D01*
X153841476Y-88543110D01*
X153671645Y-88133076D01*
X153281358Y-87704817D01*
X153122046Y-87630000D01*
X153281358Y-87555183D01*
X153671645Y-87126924D01*
X153841476Y-86716890D01*
X153720155Y-86487000D01*
X152527000Y-86487000D01*
X152273000Y-86487000D01*
X152253000Y-86487000D01*
X152253000Y-86233000D01*
X152273000Y-86233000D01*
X152273000Y-83947000D01*
X152527000Y-83947000D01*
X152527000Y-86233000D01*
X153720155Y-86233000D01*
X153841476Y-86003110D01*
X153671645Y-85593076D01*
X153281358Y-85164817D01*
X153122046Y-85090000D01*
X153281358Y-85015183D01*
X153671645Y-84586924D01*
X153841476Y-84176890D01*
X153720155Y-83947000D01*
X152527000Y-83947000D01*
X152273000Y-83947000D01*
X152253000Y-83947000D01*
X152253000Y-83693000D01*
X152273000Y-83693000D01*
X152273000Y-83673000D01*
X152527000Y-83673000D01*
X152527000Y-83693000D01*
X153720155Y-83693000D01*
X153841476Y-83463110D01*
X153671645Y-83053076D01*
X153281358Y-82624817D01*
X153151522Y-82563843D01*
X153470625Y-82350625D01*
X153798839Y-81859418D01*
X153914092Y-81280000D01*
X153798839Y-80700582D01*
X153470625Y-80209375D01*
X153172239Y-80010000D01*
X153470625Y-79810625D01*
X153798839Y-79319418D01*
X153914092Y-78740000D01*
X153798839Y-78160582D01*
X153470625Y-77669375D01*
X153172239Y-77470000D01*
X153470625Y-77270625D01*
X153798839Y-76779418D01*
X153914092Y-76200000D01*
X153798839Y-75620582D01*
X153470625Y-75129375D01*
X153172239Y-74930000D01*
X153470625Y-74730625D01*
X153798839Y-74239418D01*
X153914092Y-73660000D01*
X153798839Y-73080582D01*
X153470625Y-72589375D01*
X153172239Y-72390000D01*
X153470625Y-72190625D01*
X153798839Y-71699418D01*
X153914092Y-71120000D01*
X153798839Y-70540582D01*
X153470625Y-70049375D01*
X153172239Y-69850000D01*
X153470625Y-69650625D01*
X153798839Y-69159418D01*
X153914092Y-68580000D01*
X153798839Y-68000582D01*
X153470625Y-67509375D01*
X153172239Y-67310000D01*
X153470625Y-67110625D01*
X153798839Y-66619418D01*
X153914092Y-66040000D01*
X153798839Y-65460582D01*
X153470625Y-64969375D01*
X153172239Y-64770000D01*
X153470625Y-64570625D01*
X153798839Y-64079418D01*
X153914092Y-63500000D01*
X153798839Y-62920582D01*
X153470625Y-62429375D01*
X153172239Y-62230000D01*
X153470625Y-62030625D01*
X153798839Y-61539418D01*
X153914092Y-60960000D01*
X153798839Y-60380582D01*
X153470625Y-59889375D01*
X153151522Y-59676157D01*
X153281358Y-59615183D01*
X153671645Y-59186924D01*
X153841476Y-58776890D01*
X153720155Y-58547000D01*
X152527000Y-58547000D01*
X152527000Y-58567000D01*
X152273000Y-58567000D01*
X152273000Y-58547000D01*
X152253000Y-58547000D01*
X152253000Y-58293000D01*
X152273000Y-58293000D01*
X152273000Y-57099181D01*
X152527000Y-57099181D01*
X152527000Y-58293000D01*
X153720155Y-58293000D01*
X153841476Y-58063110D01*
X153671645Y-57653076D01*
X153281358Y-57224817D01*
X152756892Y-56978514D01*
X152527000Y-57099181D01*
X152273000Y-57099181D01*
X152043108Y-56978514D01*
X151518642Y-57224817D01*
X151329961Y-57431855D01*
X151308157Y-57322235D01*
X151167809Y-57112191D01*
X150957765Y-56971843D01*
X150710000Y-56922560D01*
X149010000Y-56922560D01*
X148762235Y-56971843D01*
X148552191Y-57112191D01*
X148411843Y-57322235D01*
X148362560Y-57570000D01*
X148362560Y-59270000D01*
X148411843Y-59517765D01*
X148552191Y-59727809D01*
X148762235Y-59868157D01*
X148807619Y-59877184D01*
X148789375Y-59889375D01*
X148461161Y-60380582D01*
X148345908Y-60960000D01*
X120894092Y-60960000D01*
X120778839Y-60380582D01*
X120450625Y-59889375D01*
X120152239Y-59690000D01*
X120450625Y-59490625D01*
X120778839Y-58999418D01*
X120894092Y-58420000D01*
X120778839Y-57840582D01*
X120450625Y-57349375D01*
X119959418Y-57021161D01*
X119526256Y-56935000D01*
X119233744Y-56935000D01*
X118800582Y-57021161D01*
X118309375Y-57349375D01*
X118294904Y-57371032D01*
X118228327Y-57210301D01*
X118049698Y-57031673D01*
X117816309Y-56935000D01*
X117125750Y-56935000D01*
X116967000Y-57093750D01*
X116967000Y-58293000D01*
X116987000Y-58293000D01*
X116987000Y-58547000D01*
X116967000Y-58547000D01*
X116967000Y-58567000D01*
X116713000Y-58567000D01*
X116713000Y-58547000D01*
X115513750Y-58547000D01*
X115355000Y-58705750D01*
X115355000Y-59396310D01*
X115451673Y-59629699D01*
X115630302Y-59808327D01*
X115791033Y-59874904D01*
X115769375Y-59889375D01*
X115441161Y-60380582D01*
X115325908Y-60960000D01*
X110710000Y-60960000D01*
X110710000Y-57443690D01*
X115355000Y-57443690D01*
X115355000Y-58134250D01*
X115513750Y-58293000D01*
X116713000Y-58293000D01*
X116713000Y-57093750D01*
X116554250Y-56935000D01*
X115863691Y-56935000D01*
X115630302Y-57031673D01*
X115451673Y-57210301D01*
X115355000Y-57443690D01*
X110710000Y-57443690D01*
X110710000Y-54710000D01*
X158290000Y-54710000D01*
X158290001Y-107982736D01*
X158290001Y-107982736D01*
G37*
X158290001Y-107982736D02*
X158283975Y-108106547D01*
X158313894Y-108190043D01*
X158331196Y-108277028D01*
X158400061Y-108380091D01*
X167290000Y-123196660D01*
X167290001Y-137290000D01*
X149126796Y-137290000D01*
X149152695Y-137272695D01*
X149193143Y-137212162D01*
X150046698Y-136358606D01*
X150134561Y-136395000D01*
X150705439Y-136395000D01*
X151232862Y-136176534D01*
X151565000Y-135844396D01*
X151897138Y-136176534D01*
X152424561Y-136395000D01*
X152995439Y-136395000D01*
X153522862Y-136176534D01*
X153855000Y-135844396D01*
X154187138Y-136176534D01*
X154714561Y-136395000D01*
X155285439Y-136395000D01*
X155812862Y-136176534D01*
X156216534Y-135772862D01*
X156435000Y-135245439D01*
X156435000Y-134925022D01*
X161489584Y-134925022D01*
X161710353Y-135295743D01*
X162682012Y-135689119D01*
X163730247Y-135680713D01*
X164659647Y-135295743D01*
X164880416Y-134925022D01*
X163185000Y-133229605D01*
X161489584Y-134925022D01*
X156435000Y-134925022D01*
X156435000Y-134674561D01*
X156324614Y-134408066D01*
X156498454Y-134399778D01*
X156899005Y-134233864D01*
X156973139Y-133987745D01*
X156145000Y-133159605D01*
X156130858Y-133173748D01*
X155951253Y-132994143D01*
X155965395Y-132980000D01*
X156324605Y-132980000D01*
X157152745Y-133808139D01*
X157398864Y-133734005D01*
X157591965Y-133196777D01*
X157564778Y-132626546D01*
X157531834Y-132547012D01*
X160545881Y-132547012D01*
X160554287Y-133595247D01*
X160939257Y-134524647D01*
X161309978Y-134745416D01*
X163005395Y-133050000D01*
X163364605Y-133050000D01*
X165060022Y-134745416D01*
X165430743Y-134524647D01*
X165824119Y-133552988D01*
X165815713Y-132504753D01*
X165430743Y-131575353D01*
X165060022Y-131354584D01*
X163364605Y-133050000D01*
X163005395Y-133050000D01*
X161309978Y-131354584D01*
X160939257Y-131575353D01*
X160545881Y-132547012D01*
X157531834Y-132547012D01*
X157398864Y-132225995D01*
X157152745Y-132151861D01*
X156324605Y-132980000D01*
X155965395Y-132980000D01*
X155951252Y-132965858D01*
X156130858Y-132786253D01*
X156145000Y-132800395D01*
X156973139Y-131972255D01*
X156899005Y-131726136D01*
X156447440Y-131563826D01*
X156447440Y-131174978D01*
X161489584Y-131174978D01*
X163185000Y-132870395D01*
X164880416Y-131174978D01*
X164659647Y-130804257D01*
X163687988Y-130410881D01*
X162639753Y-130419287D01*
X161710353Y-130804257D01*
X161489584Y-131174978D01*
X156447440Y-131174978D01*
X156447440Y-130200000D01*
X156398157Y-129952235D01*
X156257809Y-129742191D01*
X156047765Y-129601843D01*
X155800000Y-129552560D01*
X154200000Y-129552560D01*
X153952235Y-129601843D01*
X153742191Y-129742191D01*
X153637807Y-129898411D01*
X153522862Y-129783466D01*
X153420000Y-129740859D01*
X153420000Y-129584091D01*
X153569091Y-129435000D01*
X153685983Y-129435000D01*
X154029635Y-129292655D01*
X154292655Y-129029635D01*
X154435000Y-128685983D01*
X154435000Y-128314017D01*
X154292655Y-127970365D01*
X154029635Y-127707345D01*
X153685983Y-127565000D01*
X153314017Y-127565000D01*
X152970365Y-127707345D01*
X152840892Y-127836818D01*
X152792655Y-127720365D01*
X152529635Y-127457345D01*
X152185983Y-127315000D01*
X151814017Y-127315000D01*
X151470365Y-127457345D01*
X151207345Y-127720365D01*
X151065000Y-128064017D01*
X151065000Y-128180909D01*
X149967402Y-129278508D01*
X149908120Y-129318119D01*
X149751471Y-129552560D01*
X149751196Y-129552972D01*
X149714166Y-129739134D01*
X149607138Y-129783466D01*
X149275000Y-130115604D01*
X148942862Y-129783466D01*
X148415439Y-129565000D01*
X147844561Y-129565000D01*
X147317138Y-129783466D01*
X146913466Y-130187138D01*
X146911802Y-130191156D01*
X146847745Y-130171861D01*
X146019605Y-131000000D01*
X146033748Y-131014142D01*
X145854142Y-131193748D01*
X145840000Y-131179605D01*
X145011861Y-132007745D01*
X145085995Y-132253864D01*
X145623223Y-132446965D01*
X145652207Y-132445583D01*
X145538035Y-132763223D01*
X145565222Y-133333454D01*
X145644563Y-133525000D01*
X145554561Y-133525000D01*
X145027138Y-133743466D01*
X144623466Y-134147138D01*
X144405000Y-134674561D01*
X144405000Y-135150909D01*
X144210000Y-134955910D01*
X144210000Y-130783223D01*
X144393035Y-130783223D01*
X144420222Y-131353454D01*
X144586136Y-131754005D01*
X144832255Y-131828139D01*
X145660395Y-131000000D01*
X144832255Y-130171861D01*
X144586136Y-130245995D01*
X144393035Y-130783223D01*
X144210000Y-130783223D01*
X144210000Y-129992255D01*
X145011861Y-129992255D01*
X145840000Y-130820395D01*
X146668139Y-129992255D01*
X146594005Y-129746136D01*
X146056777Y-129553035D01*
X145486546Y-129580222D01*
X145085995Y-129746136D01*
X145011861Y-129992255D01*
X144210000Y-129992255D01*
X144210000Y-129112290D01*
X144292655Y-129029635D01*
X144435000Y-128685983D01*
X144435000Y-128314017D01*
X144292655Y-127970365D01*
X144029635Y-127707345D01*
X143685983Y-127565000D01*
X143314017Y-127565000D01*
X143000000Y-127695070D01*
X142685983Y-127565000D01*
X142314017Y-127565000D01*
X141970365Y-127707345D01*
X141707345Y-127970365D01*
X141565000Y-128314017D01*
X141565000Y-128685983D01*
X141707345Y-129029635D01*
X141970365Y-129292655D01*
X142275001Y-129418839D01*
X142275000Y-135678600D01*
X142260798Y-135750000D01*
X142275000Y-135821400D01*
X142275000Y-135821403D01*
X142317065Y-136032880D01*
X142477305Y-136272694D01*
X142537836Y-136313140D01*
X143436857Y-137212161D01*
X143477305Y-137272695D01*
X143503204Y-137290000D01*
X101710000Y-137290000D01*
X101710000Y-135394528D01*
X103985077Y-135394528D01*
X104175364Y-135739271D01*
X105056591Y-136090956D01*
X106005323Y-136078641D01*
X106824636Y-135739271D01*
X107014923Y-135394528D01*
X117135077Y-135394528D01*
X117325364Y-135739271D01*
X118206591Y-136090956D01*
X119155323Y-136078641D01*
X119974636Y-135739271D01*
X120164923Y-135394528D01*
X118650000Y-133879605D01*
X117135077Y-135394528D01*
X107014923Y-135394528D01*
X105500000Y-133879605D01*
X103985077Y-135394528D01*
X101710000Y-135394528D01*
X101710000Y-133256591D01*
X103109044Y-133256591D01*
X103121359Y-134205323D01*
X103460729Y-135024636D01*
X103805472Y-135214923D01*
X105320395Y-133700000D01*
X105679605Y-133700000D01*
X107194528Y-135214923D01*
X107539271Y-135024636D01*
X107890956Y-134143409D01*
X107879445Y-133256591D01*
X116259044Y-133256591D01*
X116271359Y-134205323D01*
X116610729Y-135024636D01*
X116955472Y-135214923D01*
X118470395Y-133700000D01*
X118829605Y-133700000D01*
X120344528Y-135214923D01*
X120689271Y-135024636D01*
X120729025Y-134925022D01*
X136489584Y-134925022D01*
X136710353Y-135295743D01*
X137682012Y-135689119D01*
X138730247Y-135680713D01*
X139659647Y-135295743D01*
X139880416Y-134925022D01*
X138185000Y-133229605D01*
X136489584Y-134925022D01*
X120729025Y-134925022D01*
X121040956Y-134143409D01*
X121028641Y-133194677D01*
X120760370Y-132547012D01*
X135545881Y-132547012D01*
X135554287Y-133595247D01*
X135939257Y-134524647D01*
X136309978Y-134745416D01*
X138005395Y-133050000D01*
X138364605Y-133050000D01*
X140060022Y-134745416D01*
X140430743Y-134524647D01*
X140824119Y-133552988D01*
X140815713Y-132504753D01*
X140430743Y-131575353D01*
X140060022Y-131354584D01*
X138364605Y-133050000D01*
X138005395Y-133050000D01*
X136309978Y-131354584D01*
X135939257Y-131575353D01*
X135545881Y-132547012D01*
X120760370Y-132547012D01*
X120689271Y-132375364D01*
X120344528Y-132185077D01*
X118829605Y-133700000D01*
X118470395Y-133700000D01*
X116955472Y-132185077D01*
X116610729Y-132375364D01*
X116259044Y-133256591D01*
X107879445Y-133256591D01*
X107878641Y-133194677D01*
X107539271Y-132375364D01*
X107194528Y-132185077D01*
X105679605Y-133700000D01*
X105320395Y-133700000D01*
X103805472Y-132185077D01*
X103460729Y-132375364D01*
X103109044Y-133256591D01*
X101710000Y-133256591D01*
X101710000Y-132005472D01*
X103985077Y-132005472D01*
X105500000Y-133520395D01*
X107014923Y-132005472D01*
X117135077Y-132005472D01*
X118650000Y-133520395D01*
X120164923Y-132005472D01*
X119974636Y-131660729D01*
X119093409Y-131309044D01*
X118144677Y-131321359D01*
X117325364Y-131660729D01*
X117135077Y-132005472D01*
X107014923Y-132005472D01*
X106824636Y-131660729D01*
X105943409Y-131309044D01*
X104994677Y-131321359D01*
X104175364Y-131660729D01*
X103985077Y-132005472D01*
X101710000Y-132005472D01*
X101710000Y-131174978D01*
X136489584Y-131174978D01*
X138185000Y-132870395D01*
X139880416Y-131174978D01*
X139659647Y-130804257D01*
X138687988Y-130410881D01*
X137639753Y-130419287D01*
X136710353Y-130804257D01*
X136489584Y-131174978D01*
X101710000Y-131174978D01*
X101710000Y-124589017D01*
X147565000Y-124589017D01*
X147565000Y-124960983D01*
X147707345Y-125304635D01*
X147970365Y-125567655D01*
X148314017Y-125710000D01*
X148685983Y-125710000D01*
X149029635Y-125567655D01*
X149292655Y-125304635D01*
X149411426Y-125017897D01*
X149479509Y-124916003D01*
X150240828Y-124154684D01*
X150314017Y-124185000D01*
X150685983Y-124185000D01*
X151029635Y-124042655D01*
X151292655Y-123779635D01*
X151435000Y-123435983D01*
X151435000Y-123064017D01*
X151292655Y-122720365D01*
X151029635Y-122457345D01*
X150685983Y-122315000D01*
X150314017Y-122315000D01*
X150034149Y-122430925D01*
X150000000Y-122424132D01*
X149683953Y-122486997D01*
X149547270Y-122578327D01*
X149416023Y-122666023D01*
X149370834Y-122733653D01*
X148283654Y-123820834D01*
X148216022Y-123866024D01*
X148202564Y-123886165D01*
X147970365Y-123982345D01*
X147707345Y-124245365D01*
X147565000Y-124589017D01*
X101710000Y-124589017D01*
X101710000Y-123196658D01*
X102539584Y-121814017D01*
X134815000Y-121814017D01*
X134815000Y-122185983D01*
X134957345Y-122529635D01*
X135220365Y-122792655D01*
X135564017Y-122935000D01*
X135935983Y-122935000D01*
X136056694Y-122885000D01*
X137443306Y-122885000D01*
X137564017Y-122935000D01*
X137935983Y-122935000D01*
X138279635Y-122792655D01*
X138542655Y-122529635D01*
X138685000Y-122185983D01*
X138685000Y-121814017D01*
X138542655Y-121470365D01*
X138279635Y-121207345D01*
X137935983Y-121065000D01*
X137564017Y-121065000D01*
X137443306Y-121115000D01*
X136056694Y-121115000D01*
X135935983Y-121065000D01*
X135564017Y-121065000D01*
X135220365Y-121207345D01*
X134957345Y-121470365D01*
X134815000Y-121814017D01*
X102539584Y-121814017D01*
X104063454Y-119274234D01*
X109615000Y-119274234D01*
X109615000Y-119725766D01*
X109787793Y-120142926D01*
X110107074Y-120462207D01*
X110524234Y-120635000D01*
X110975766Y-120635000D01*
X111392926Y-120462207D01*
X111470133Y-120385000D01*
X112529867Y-120385000D01*
X112607074Y-120462207D01*
X113024234Y-120635000D01*
X113475766Y-120635000D01*
X113892926Y-120462207D01*
X114212207Y-120142926D01*
X114385000Y-119725766D01*
X114385000Y-119274234D01*
X114212207Y-118857074D01*
X113892926Y-118537793D01*
X113475766Y-118365000D01*
X113024234Y-118365000D01*
X112607074Y-118537793D01*
X112529867Y-118615000D01*
X111470133Y-118615000D01*
X111392926Y-118537793D01*
X110975766Y-118365000D01*
X110524234Y-118365000D01*
X110107074Y-118537793D01*
X109787793Y-118857074D01*
X109615000Y-119274234D01*
X104063454Y-119274234D01*
X105254583Y-117289017D01*
X145315000Y-117289017D01*
X145315000Y-117660983D01*
X145457345Y-118004635D01*
X145525001Y-118072291D01*
X145525000Y-118427710D01*
X145457345Y-118495365D01*
X145315000Y-118839017D01*
X145315000Y-119210983D01*
X145457345Y-119554635D01*
X145720365Y-119817655D01*
X146064017Y-119960000D01*
X146435983Y-119960000D01*
X146779635Y-119817655D01*
X147042655Y-119554635D01*
X147185000Y-119210983D01*
X147185000Y-118839017D01*
X147042655Y-118495365D01*
X146975000Y-118427710D01*
X146975000Y-118072290D01*
X147042655Y-118004635D01*
X147185000Y-117660983D01*
X147185000Y-117289017D01*
X147042655Y-116945365D01*
X146779635Y-116682345D01*
X146435983Y-116540000D01*
X146064017Y-116540000D01*
X145720365Y-116682345D01*
X145457345Y-116945365D01*
X145315000Y-117289017D01*
X105254583Y-117289017D01*
X106739583Y-114814017D01*
X145315000Y-114814017D01*
X145315000Y-115185983D01*
X145457345Y-115529635D01*
X145720365Y-115792655D01*
X146064017Y-115935000D01*
X146435983Y-115935000D01*
X146779635Y-115792655D01*
X147042655Y-115529635D01*
X147185000Y-115185983D01*
X147185000Y-115064017D01*
X152065000Y-115064017D01*
X152065000Y-115435983D01*
X152207345Y-115779635D01*
X152470365Y-116042655D01*
X152814017Y-116185000D01*
X152930910Y-116185000D01*
X153315000Y-116569091D01*
X153315000Y-116685983D01*
X153457345Y-117029635D01*
X153720365Y-117292655D01*
X154064017Y-117435000D01*
X154435983Y-117435000D01*
X154779635Y-117292655D01*
X154887290Y-117185000D01*
X155185983Y-117185000D01*
X155529635Y-117042655D01*
X155792655Y-116779635D01*
X155935000Y-116435983D01*
X155935000Y-116064017D01*
X155792655Y-115720365D01*
X155529635Y-115457345D01*
X155185983Y-115315000D01*
X155069091Y-115315000D01*
X154185000Y-114430909D01*
X154185000Y-114314017D01*
X154042655Y-113970365D01*
X153779635Y-113707345D01*
X153435983Y-113565000D01*
X153064017Y-113565000D01*
X152720365Y-113707345D01*
X152457345Y-113970365D01*
X152315000Y-114314017D01*
X152315000Y-114612710D01*
X152207345Y-114720365D01*
X152065000Y-115064017D01*
X147185000Y-115064017D01*
X147185000Y-114935000D01*
X147185983Y-114935000D01*
X147529635Y-114792655D01*
X147792655Y-114529635D01*
X147935000Y-114185983D01*
X147935000Y-113814017D01*
X147792655Y-113470365D01*
X147529635Y-113207345D01*
X147185983Y-113065000D01*
X146814017Y-113065000D01*
X146470365Y-113207345D01*
X146207345Y-113470365D01*
X146065000Y-113814017D01*
X146065000Y-113909696D01*
X145800575Y-114174121D01*
X145720365Y-114207345D01*
X145457345Y-114470365D01*
X145315000Y-114814017D01*
X106739583Y-114814017D01*
X109613453Y-110024234D01*
X113365000Y-110024234D01*
X113365000Y-110475766D01*
X113537793Y-110892926D01*
X113857074Y-111212207D01*
X114158853Y-111337208D01*
X115215482Y-112393837D01*
X115271831Y-112478169D01*
X115605918Y-112701399D01*
X115900524Y-112760000D01*
X115900528Y-112760000D01*
X115999999Y-112779786D01*
X116099470Y-112760000D01*
X116222457Y-112760000D01*
X116524234Y-112885000D01*
X116975766Y-112885000D01*
X117392926Y-112712207D01*
X117712207Y-112392926D01*
X117885000Y-111975766D01*
X117885000Y-111524234D01*
X117712207Y-111107074D01*
X117392926Y-110787793D01*
X116975766Y-110615000D01*
X116524234Y-110615000D01*
X116360978Y-110682623D01*
X115587208Y-109908853D01*
X115462207Y-109607074D01*
X115269150Y-109414017D01*
X132365000Y-109414017D01*
X132365000Y-109785983D01*
X132415001Y-109906696D01*
X132415000Y-110893306D01*
X132365000Y-111014017D01*
X132365000Y-111385983D01*
X132507345Y-111729635D01*
X132770365Y-111992655D01*
X133114017Y-112135000D01*
X133485983Y-112135000D01*
X133829635Y-111992655D01*
X134092655Y-111729635D01*
X134235000Y-111385983D01*
X134235000Y-111014017D01*
X134185000Y-110893306D01*
X134185000Y-110314017D01*
X143815000Y-110314017D01*
X143815000Y-110685983D01*
X143957345Y-111029635D01*
X144220365Y-111292655D01*
X144564017Y-111435000D01*
X144935983Y-111435000D01*
X145279635Y-111292655D01*
X145347290Y-111225000D01*
X145902710Y-111225000D01*
X145970365Y-111292655D01*
X146314017Y-111435000D01*
X146685983Y-111435000D01*
X147029635Y-111292655D01*
X147292655Y-111029635D01*
X147435000Y-110685983D01*
X147435000Y-110314017D01*
X147292655Y-109970365D01*
X147029635Y-109707345D01*
X146685983Y-109565000D01*
X146314017Y-109565000D01*
X145970365Y-109707345D01*
X145902710Y-109775000D01*
X145347290Y-109775000D01*
X145279635Y-109707345D01*
X144935983Y-109565000D01*
X144564017Y-109565000D01*
X144220365Y-109707345D01*
X143957345Y-109970365D01*
X143815000Y-110314017D01*
X134185000Y-110314017D01*
X134185000Y-109906694D01*
X134235000Y-109785983D01*
X134235000Y-109414017D01*
X134092655Y-109070365D01*
X133829635Y-108807345D01*
X133485983Y-108665000D01*
X133114017Y-108665000D01*
X132770365Y-108807345D01*
X132507345Y-109070365D01*
X132365000Y-109414017D01*
X115269150Y-109414017D01*
X115142926Y-109287793D01*
X114725766Y-109115000D01*
X114274234Y-109115000D01*
X113857074Y-109287793D01*
X113537793Y-109607074D01*
X113365000Y-110024234D01*
X109613453Y-110024234D01*
X110599940Y-108380090D01*
X110668805Y-108277028D01*
X110686108Y-108190039D01*
X110716025Y-108106548D01*
X110710000Y-107982747D01*
X110710000Y-60960000D01*
X115325908Y-60960000D01*
X115441161Y-61539418D01*
X115769375Y-62030625D01*
X116067761Y-62230000D01*
X115769375Y-62429375D01*
X115441161Y-62920582D01*
X115325908Y-63500000D01*
X115441161Y-64079418D01*
X115769375Y-64570625D01*
X116067761Y-64770000D01*
X115769375Y-64969375D01*
X115441161Y-65460582D01*
X115325908Y-66040000D01*
X115441161Y-66619418D01*
X115769375Y-67110625D01*
X116067761Y-67310000D01*
X115769375Y-67509375D01*
X115441161Y-68000582D01*
X115325908Y-68580000D01*
X115441161Y-69159418D01*
X115769375Y-69650625D01*
X116067761Y-69850000D01*
X115769375Y-70049375D01*
X115441161Y-70540582D01*
X115325908Y-71120000D01*
X115441161Y-71699418D01*
X115769375Y-72190625D01*
X116067761Y-72390000D01*
X115769375Y-72589375D01*
X115441161Y-73080582D01*
X115325908Y-73660000D01*
X115441161Y-74239418D01*
X115769375Y-74730625D01*
X116067761Y-74930000D01*
X115769375Y-75129375D01*
X115441161Y-75620582D01*
X115325908Y-76200000D01*
X115441161Y-76779418D01*
X115769375Y-77270625D01*
X116067761Y-77470000D01*
X115769375Y-77669375D01*
X115441161Y-78160582D01*
X115325908Y-78740000D01*
X115441161Y-79319418D01*
X115769375Y-79810625D01*
X116067761Y-80010000D01*
X115769375Y-80209375D01*
X115441161Y-80700582D01*
X115325908Y-81280000D01*
X115441161Y-81859418D01*
X115769375Y-82350625D01*
X116067761Y-82550000D01*
X115769375Y-82749375D01*
X115441161Y-83240582D01*
X115325908Y-83820000D01*
X115441161Y-84399418D01*
X115769375Y-84890625D01*
X116067761Y-85090000D01*
X115769375Y-85289375D01*
X115441161Y-85780582D01*
X115325908Y-86360000D01*
X115441161Y-86939418D01*
X115769375Y-87430625D01*
X116067761Y-87630000D01*
X115769375Y-87829375D01*
X115441161Y-88320582D01*
X115325908Y-88900000D01*
X115441161Y-89479418D01*
X115769375Y-89970625D01*
X116067761Y-90170000D01*
X115769375Y-90369375D01*
X115441161Y-90860582D01*
X115325908Y-91440000D01*
X115441161Y-92019418D01*
X115769375Y-92510625D01*
X116067761Y-92710000D01*
X115769375Y-92909375D01*
X115441161Y-93400582D01*
X115325908Y-93980000D01*
X115441161Y-94559418D01*
X115769375Y-95050625D01*
X116067761Y-95250000D01*
X115769375Y-95449375D01*
X115441161Y-95940582D01*
X115325908Y-96520000D01*
X115441161Y-97099418D01*
X115769375Y-97590625D01*
X116067761Y-97790000D01*
X115769375Y-97989375D01*
X115441161Y-98480582D01*
X115325908Y-99060000D01*
X115441161Y-99639418D01*
X115769375Y-100130625D01*
X116067761Y-100330000D01*
X115769375Y-100529375D01*
X115441161Y-101020582D01*
X115325908Y-101600000D01*
X115441161Y-102179418D01*
X115769375Y-102670625D01*
X116067761Y-102870000D01*
X115769375Y-103069375D01*
X115441161Y-103560582D01*
X115325908Y-104140000D01*
X115441161Y-104719418D01*
X115769375Y-105210625D01*
X116067761Y-105410000D01*
X115769375Y-105609375D01*
X115441161Y-106100582D01*
X115325908Y-106680000D01*
X115441161Y-107259418D01*
X115769375Y-107750625D01*
X116260582Y-108078839D01*
X116693744Y-108165000D01*
X116986256Y-108165000D01*
X117419418Y-108078839D01*
X117910625Y-107750625D01*
X118111353Y-107450214D01*
X118498642Y-107875183D01*
X119023108Y-108121486D01*
X119253000Y-108000819D01*
X119253000Y-106807000D01*
X119507000Y-106807000D01*
X119507000Y-108000819D01*
X119736892Y-108121486D01*
X120261358Y-107875183D01*
X120317100Y-107814017D01*
X145265000Y-107814017D01*
X145265000Y-108185983D01*
X145407345Y-108529635D01*
X145670365Y-108792655D01*
X146014017Y-108935000D01*
X146385983Y-108935000D01*
X146729635Y-108792655D01*
X146812290Y-108710000D01*
X147187710Y-108710000D01*
X147270365Y-108792655D01*
X147614017Y-108935000D01*
X147985983Y-108935000D01*
X148329635Y-108792655D01*
X148592655Y-108529635D01*
X148735000Y-108185983D01*
X148735000Y-107814017D01*
X148592655Y-107470365D01*
X148329635Y-107207345D01*
X147985983Y-107065000D01*
X147614017Y-107065000D01*
X147270365Y-107207345D01*
X147187710Y-107290000D01*
X146812290Y-107290000D01*
X146729635Y-107207345D01*
X146385983Y-107065000D01*
X146014017Y-107065000D01*
X145670365Y-107207345D01*
X145407345Y-107470365D01*
X145265000Y-107814017D01*
X120317100Y-107814017D01*
X120651645Y-107446924D01*
X120821476Y-107036890D01*
X120700155Y-106807000D01*
X119507000Y-106807000D01*
X119253000Y-106807000D01*
X119233000Y-106807000D01*
X119233000Y-106553000D01*
X119253000Y-106553000D01*
X119253000Y-104267000D01*
X119507000Y-104267000D01*
X119507000Y-106553000D01*
X120700155Y-106553000D01*
X120821476Y-106323110D01*
X120651645Y-105913076D01*
X120261358Y-105484817D01*
X120102046Y-105410000D01*
X120261358Y-105335183D01*
X120508480Y-105064017D01*
X126065000Y-105064017D01*
X126065000Y-105435983D01*
X126207345Y-105779635D01*
X126470365Y-106042655D01*
X126814017Y-106185000D01*
X126909696Y-106185000D01*
X127315000Y-106590305D01*
X127315000Y-106685983D01*
X127457345Y-107029635D01*
X127720365Y-107292655D01*
X128064017Y-107435000D01*
X128435983Y-107435000D01*
X128779635Y-107292655D01*
X129042655Y-107029635D01*
X129185000Y-106685983D01*
X129185000Y-106314017D01*
X129042655Y-105970365D01*
X128779635Y-105707345D01*
X128435983Y-105565000D01*
X128340305Y-105565000D01*
X127935000Y-105159696D01*
X127935000Y-105064017D01*
X127792655Y-104720365D01*
X127529635Y-104457345D01*
X127185983Y-104315000D01*
X126814017Y-104315000D01*
X126470365Y-104457345D01*
X126207345Y-104720365D01*
X126065000Y-105064017D01*
X120508480Y-105064017D01*
X120651645Y-104906924D01*
X120821476Y-104496890D01*
X120700155Y-104267000D01*
X119507000Y-104267000D01*
X119253000Y-104267000D01*
X119233000Y-104267000D01*
X119233000Y-104013000D01*
X119253000Y-104013000D01*
X119253000Y-101727000D01*
X119507000Y-101727000D01*
X119507000Y-104013000D01*
X120700155Y-104013000D01*
X120821476Y-103783110D01*
X120651645Y-103373076D01*
X120261358Y-102944817D01*
X120102046Y-102870000D01*
X120261358Y-102795183D01*
X120651645Y-102366924D01*
X120803620Y-102000000D01*
X134485908Y-102000000D01*
X134601161Y-102579418D01*
X134929375Y-103070625D01*
X134947619Y-103082816D01*
X134902235Y-103091843D01*
X134692191Y-103232191D01*
X134551843Y-103442235D01*
X134502560Y-103690000D01*
X134502560Y-105390000D01*
X134551843Y-105637765D01*
X134692191Y-105847809D01*
X134902235Y-105988157D01*
X135150000Y-106037440D01*
X136850000Y-106037440D01*
X137097765Y-105988157D01*
X137307809Y-105847809D01*
X137448157Y-105637765D01*
X137457184Y-105592381D01*
X137469375Y-105610625D01*
X137960582Y-105938839D01*
X138393744Y-106025000D01*
X138686256Y-106025000D01*
X139119418Y-105938839D01*
X139610625Y-105610625D01*
X139810000Y-105312239D01*
X140009375Y-105610625D01*
X140500582Y-105938839D01*
X140933744Y-106025000D01*
X141226256Y-106025000D01*
X141659418Y-105938839D01*
X142150625Y-105610625D01*
X142350000Y-105312239D01*
X142549375Y-105610625D01*
X143040582Y-105938839D01*
X143473744Y-106025000D01*
X143766256Y-106025000D01*
X144199418Y-105938839D01*
X144690625Y-105610625D01*
X145018839Y-105119418D01*
X145134092Y-104540000D01*
X145018839Y-103960582D01*
X144690625Y-103469375D01*
X144390214Y-103268647D01*
X144815183Y-102881358D01*
X145061486Y-102356892D01*
X144940819Y-102127000D01*
X143747000Y-102127000D01*
X143747000Y-102147000D01*
X143493000Y-102147000D01*
X143493000Y-102127000D01*
X143473000Y-102127000D01*
X143473000Y-101873000D01*
X143493000Y-101873000D01*
X143493000Y-100679845D01*
X143747000Y-100679845D01*
X143747000Y-101873000D01*
X144940819Y-101873000D01*
X145061486Y-101643108D01*
X144815183Y-101118642D01*
X144386924Y-100728355D01*
X143976890Y-100558524D01*
X143747000Y-100679845D01*
X143493000Y-100679845D01*
X143263110Y-100558524D01*
X142853076Y-100728355D01*
X142424817Y-101118642D01*
X142363843Y-101248478D01*
X142150625Y-100929375D01*
X141659418Y-100601161D01*
X141226256Y-100515000D01*
X140933744Y-100515000D01*
X140500582Y-100601161D01*
X140009375Y-100929375D01*
X139810000Y-101227761D01*
X139610625Y-100929375D01*
X139119418Y-100601161D01*
X138686256Y-100515000D01*
X138393744Y-100515000D01*
X137960582Y-100601161D01*
X137469375Y-100929375D01*
X137270000Y-101227761D01*
X137070625Y-100929375D01*
X136579418Y-100601161D01*
X136146256Y-100515000D01*
X135853744Y-100515000D01*
X135420582Y-100601161D01*
X134929375Y-100929375D01*
X134601161Y-101420582D01*
X134485908Y-102000000D01*
X120803620Y-102000000D01*
X120821476Y-101956890D01*
X120700155Y-101727000D01*
X119507000Y-101727000D01*
X119253000Y-101727000D01*
X119233000Y-101727000D01*
X119233000Y-101473000D01*
X119253000Y-101473000D01*
X119253000Y-99187000D01*
X119507000Y-99187000D01*
X119507000Y-101473000D01*
X120700155Y-101473000D01*
X120821476Y-101243110D01*
X120651645Y-100833076D01*
X120261358Y-100404817D01*
X120102046Y-100330000D01*
X120261358Y-100255183D01*
X120651645Y-99826924D01*
X120821476Y-99416890D01*
X120700155Y-99187000D01*
X119507000Y-99187000D01*
X119253000Y-99187000D01*
X119233000Y-99187000D01*
X119233000Y-98933000D01*
X119253000Y-98933000D01*
X119253000Y-96647000D01*
X119507000Y-96647000D01*
X119507000Y-98933000D01*
X120700155Y-98933000D01*
X120821476Y-98703110D01*
X120651645Y-98293076D01*
X120261358Y-97864817D01*
X120102046Y-97790000D01*
X120261358Y-97715183D01*
X120651645Y-97286924D01*
X120821476Y-96876890D01*
X120700155Y-96647000D01*
X119507000Y-96647000D01*
X119253000Y-96647000D01*
X119233000Y-96647000D01*
X119233000Y-96393000D01*
X119253000Y-96393000D01*
X119253000Y-94107000D01*
X119507000Y-94107000D01*
X119507000Y-96393000D01*
X120700155Y-96393000D01*
X120821476Y-96163110D01*
X120651645Y-95753076D01*
X120261358Y-95324817D01*
X120102046Y-95250000D01*
X120261358Y-95175183D01*
X120651645Y-94746924D01*
X120821476Y-94336890D01*
X120700155Y-94107000D01*
X119507000Y-94107000D01*
X119253000Y-94107000D01*
X119233000Y-94107000D01*
X119233000Y-93853000D01*
X119253000Y-93853000D01*
X119253000Y-91567000D01*
X119507000Y-91567000D01*
X119507000Y-93853000D01*
X120700155Y-93853000D01*
X120821476Y-93623110D01*
X120651645Y-93213076D01*
X120261358Y-92784817D01*
X120102046Y-92710000D01*
X120261358Y-92635183D01*
X120651645Y-92206924D01*
X120821476Y-91796890D01*
X120700155Y-91567000D01*
X119507000Y-91567000D01*
X119253000Y-91567000D01*
X119233000Y-91567000D01*
X119233000Y-91313000D01*
X119253000Y-91313000D01*
X119253000Y-89027000D01*
X119507000Y-89027000D01*
X119507000Y-91313000D01*
X120700155Y-91313000D01*
X120821476Y-91083110D01*
X120651645Y-90673076D01*
X120261358Y-90244817D01*
X120102046Y-90170000D01*
X120261358Y-90095183D01*
X120651645Y-89666924D01*
X120821476Y-89256890D01*
X120700155Y-89027000D01*
X119507000Y-89027000D01*
X119253000Y-89027000D01*
X119233000Y-89027000D01*
X119233000Y-88773000D01*
X119253000Y-88773000D01*
X119253000Y-86487000D01*
X119507000Y-86487000D01*
X119507000Y-88773000D01*
X120700155Y-88773000D01*
X120821476Y-88543110D01*
X120651645Y-88133076D01*
X120261358Y-87704817D01*
X120102046Y-87630000D01*
X120261358Y-87555183D01*
X120651645Y-87126924D01*
X120821476Y-86716890D01*
X120700155Y-86487000D01*
X119507000Y-86487000D01*
X119253000Y-86487000D01*
X119233000Y-86487000D01*
X119233000Y-86233000D01*
X119253000Y-86233000D01*
X119253000Y-83947000D01*
X119507000Y-83947000D01*
X119507000Y-86233000D01*
X120700155Y-86233000D01*
X120821476Y-86003110D01*
X120651645Y-85593076D01*
X120261358Y-85164817D01*
X120102046Y-85090000D01*
X120261358Y-85015183D01*
X120651645Y-84586924D01*
X120821476Y-84176890D01*
X120700155Y-83947000D01*
X119507000Y-83947000D01*
X119253000Y-83947000D01*
X119233000Y-83947000D01*
X119233000Y-83693000D01*
X119253000Y-83693000D01*
X119253000Y-83673000D01*
X119507000Y-83673000D01*
X119507000Y-83693000D01*
X120700155Y-83693000D01*
X120782541Y-83536887D01*
X132852347Y-83536887D01*
X132852347Y-83988419D01*
X133025140Y-84405579D01*
X133344421Y-84724860D01*
X133761581Y-84897653D01*
X134213113Y-84897653D01*
X134630273Y-84724860D01*
X134949554Y-84405579D01*
X135022778Y-84228800D01*
X136116579Y-83135000D01*
X136225766Y-83135000D01*
X136642926Y-82962207D01*
X136962207Y-82642926D01*
X137135000Y-82225766D01*
X137135000Y-81774234D01*
X136962207Y-81357074D01*
X136642926Y-81037793D01*
X136225766Y-80865000D01*
X135774234Y-80865000D01*
X135357074Y-81037793D01*
X135037793Y-81357074D01*
X134865000Y-81774234D01*
X134865000Y-81883421D01*
X134120769Y-82627653D01*
X133761581Y-82627653D01*
X133344421Y-82800446D01*
X133025140Y-83119727D01*
X132852347Y-83536887D01*
X120782541Y-83536887D01*
X120821476Y-83463110D01*
X120651645Y-83053076D01*
X120261358Y-82624817D01*
X120131522Y-82563843D01*
X120450625Y-82350625D01*
X120778839Y-81859418D01*
X120894092Y-81280000D01*
X120778839Y-80700582D01*
X120450625Y-80209375D01*
X120152239Y-80010000D01*
X120450625Y-79810625D01*
X120778839Y-79319418D01*
X120894092Y-78740000D01*
X120778839Y-78160582D01*
X120450625Y-77669375D01*
X120152239Y-77470000D01*
X120450625Y-77270625D01*
X120778839Y-76779418D01*
X120894092Y-76200000D01*
X120778839Y-75620582D01*
X120450625Y-75129375D01*
X120152239Y-74930000D01*
X120450625Y-74730625D01*
X120778839Y-74239418D01*
X120894092Y-73660000D01*
X120778839Y-73080582D01*
X120450625Y-72589375D01*
X120152239Y-72390000D01*
X120450625Y-72190625D01*
X120778839Y-71699418D01*
X120894092Y-71120000D01*
X120778839Y-70540582D01*
X120450625Y-70049375D01*
X120152239Y-69850000D01*
X120450625Y-69650625D01*
X120778839Y-69159418D01*
X120894092Y-68580000D01*
X120778839Y-68000582D01*
X120450625Y-67509375D01*
X120152239Y-67310000D01*
X120450625Y-67110625D01*
X120778839Y-66619418D01*
X120894092Y-66040000D01*
X120778839Y-65460582D01*
X120450625Y-64969375D01*
X120152239Y-64770000D01*
X120450625Y-64570625D01*
X120778839Y-64079418D01*
X120894092Y-63500000D01*
X120778839Y-62920582D01*
X120450625Y-62429375D01*
X120152239Y-62230000D01*
X120450625Y-62030625D01*
X120778839Y-61539418D01*
X120894092Y-60960000D01*
X148345908Y-60960000D01*
X148461161Y-61539418D01*
X148789375Y-62030625D01*
X149087761Y-62230000D01*
X148789375Y-62429375D01*
X148461161Y-62920582D01*
X148345908Y-63500000D01*
X148461161Y-64079418D01*
X148789375Y-64570625D01*
X149087761Y-64770000D01*
X148789375Y-64969375D01*
X148461161Y-65460582D01*
X148345908Y-66040000D01*
X148461161Y-66619418D01*
X148789375Y-67110625D01*
X149087761Y-67310000D01*
X148789375Y-67509375D01*
X148461161Y-68000582D01*
X148345908Y-68580000D01*
X148461161Y-69159418D01*
X148789375Y-69650625D01*
X149087761Y-69850000D01*
X148789375Y-70049375D01*
X148461161Y-70540582D01*
X148345908Y-71120000D01*
X148461161Y-71699418D01*
X148789375Y-72190625D01*
X149087761Y-72390000D01*
X148789375Y-72589375D01*
X148461161Y-73080582D01*
X148345908Y-73660000D01*
X148461161Y-74239418D01*
X148789375Y-74730625D01*
X149087761Y-74930000D01*
X148789375Y-75129375D01*
X148461161Y-75620582D01*
X148345908Y-76200000D01*
X148461161Y-76779418D01*
X148789375Y-77270625D01*
X149087761Y-77470000D01*
X148789375Y-77669375D01*
X148461161Y-78160582D01*
X148345908Y-78740000D01*
X148461161Y-79319418D01*
X148789375Y-79810625D01*
X149108478Y-80023843D01*
X148978642Y-80084817D01*
X148588355Y-80513076D01*
X148418524Y-80923110D01*
X148539845Y-81153000D01*
X149733000Y-81153000D01*
X149733000Y-81133000D01*
X149987000Y-81133000D01*
X149987000Y-81153000D01*
X150007000Y-81153000D01*
X150007000Y-81407000D01*
X149987000Y-81407000D01*
X149987000Y-81427000D01*
X149733000Y-81427000D01*
X149733000Y-81407000D01*
X148539845Y-81407000D01*
X148418524Y-81636890D01*
X148588355Y-82046924D01*
X148978642Y-82475183D01*
X149108478Y-82536157D01*
X148789375Y-82749375D01*
X148461161Y-83240582D01*
X148345908Y-83820000D01*
X148461161Y-84399418D01*
X148789375Y-84890625D01*
X149087761Y-85090000D01*
X148789375Y-85289375D01*
X148461161Y-85780582D01*
X148345908Y-86360000D01*
X148461161Y-86939418D01*
X148789375Y-87430625D01*
X149087761Y-87630000D01*
X148789375Y-87829375D01*
X148461161Y-88320582D01*
X148345908Y-88900000D01*
X148461161Y-89479418D01*
X148789375Y-89970625D01*
X149087761Y-90170000D01*
X148789375Y-90369375D01*
X148461161Y-90860582D01*
X148345908Y-91440000D01*
X148461161Y-92019418D01*
X148789375Y-92510625D01*
X149087761Y-92710000D01*
X148789375Y-92909375D01*
X148461161Y-93400582D01*
X148345908Y-93980000D01*
X148461161Y-94559418D01*
X148789375Y-95050625D01*
X149087761Y-95250000D01*
X148789375Y-95449375D01*
X148461161Y-95940582D01*
X148345908Y-96520000D01*
X148461161Y-97099418D01*
X148789375Y-97590625D01*
X149087761Y-97790000D01*
X148789375Y-97989375D01*
X148461161Y-98480582D01*
X148345908Y-99060000D01*
X148461161Y-99639418D01*
X148789375Y-100130625D01*
X149087761Y-100330000D01*
X148789375Y-100529375D01*
X148461161Y-101020582D01*
X148345908Y-101600000D01*
X148461161Y-102179418D01*
X148789375Y-102670625D01*
X149087761Y-102870000D01*
X148789375Y-103069375D01*
X148461161Y-103560582D01*
X148345908Y-104140000D01*
X148461161Y-104719418D01*
X148789375Y-105210625D01*
X149087761Y-105410000D01*
X148789375Y-105609375D01*
X148461161Y-106100582D01*
X148345908Y-106680000D01*
X148461161Y-107259418D01*
X148789375Y-107750625D01*
X149280582Y-108078839D01*
X149713744Y-108165000D01*
X150006256Y-108165000D01*
X150439418Y-108078839D01*
X150930625Y-107750625D01*
X151131353Y-107450214D01*
X151518642Y-107875183D01*
X152043108Y-108121486D01*
X152273000Y-108000819D01*
X152273000Y-106807000D01*
X152527000Y-106807000D01*
X152527000Y-108000819D01*
X152756892Y-108121486D01*
X153281358Y-107875183D01*
X153671645Y-107446924D01*
X153841476Y-107036890D01*
X153720155Y-106807000D01*
X152527000Y-106807000D01*
X152273000Y-106807000D01*
X152253000Y-106807000D01*
X152253000Y-106553000D01*
X152273000Y-106553000D01*
X152273000Y-106533000D01*
X152527000Y-106533000D01*
X152527000Y-106553000D01*
X153720155Y-106553000D01*
X153841476Y-106323110D01*
X153671645Y-105913076D01*
X153281358Y-105484817D01*
X153151522Y-105423843D01*
X153470625Y-105210625D01*
X153798839Y-104719418D01*
X153914092Y-104140000D01*
X153798839Y-103560582D01*
X153470625Y-103069375D01*
X153172239Y-102870000D01*
X153470625Y-102670625D01*
X153798839Y-102179418D01*
X153847457Y-101935000D01*
X154185983Y-101935000D01*
X154529635Y-101792655D01*
X154792655Y-101529635D01*
X154935000Y-101185983D01*
X154935000Y-100814017D01*
X154792655Y-100470365D01*
X154529635Y-100207345D01*
X154185983Y-100065000D01*
X154069090Y-100065000D01*
X153718321Y-99714231D01*
X153841476Y-99416890D01*
X153720155Y-99187000D01*
X152527000Y-99187000D01*
X152527000Y-99207000D01*
X152273000Y-99207000D01*
X152273000Y-99187000D01*
X152253000Y-99187000D01*
X152253000Y-98933000D01*
X152273000Y-98933000D01*
X152273000Y-98913000D01*
X152527000Y-98913000D01*
X152527000Y-98933000D01*
X153720155Y-98933000D01*
X153841476Y-98703110D01*
X153671645Y-98293076D01*
X153281358Y-97864817D01*
X153151522Y-97803843D01*
X153470625Y-97590625D01*
X153798839Y-97099418D01*
X153914092Y-96520000D01*
X153798839Y-95940582D01*
X153470625Y-95449375D01*
X153151522Y-95236157D01*
X153281358Y-95175183D01*
X153671645Y-94746924D01*
X153841476Y-94336890D01*
X153720155Y-94107000D01*
X152527000Y-94107000D01*
X152527000Y-94127000D01*
X152273000Y-94127000D01*
X152273000Y-94107000D01*
X152253000Y-94107000D01*
X152253000Y-93853000D01*
X152273000Y-93853000D01*
X152273000Y-93833000D01*
X152527000Y-93833000D01*
X152527000Y-93853000D01*
X153720155Y-93853000D01*
X153841476Y-93623110D01*
X153671645Y-93213076D01*
X153281358Y-92784817D01*
X153151522Y-92723843D01*
X153470625Y-92510625D01*
X153798839Y-92019418D01*
X153914092Y-91440000D01*
X153798839Y-90860582D01*
X153470625Y-90369375D01*
X153151522Y-90156157D01*
X153281358Y-90095183D01*
X153671645Y-89666924D01*
X153841476Y-89256890D01*
X153720155Y-89027000D01*
X152527000Y-89027000D01*
X152527000Y-89047000D01*
X152273000Y-89047000D01*
X152273000Y-89027000D01*
X152253000Y-89027000D01*
X152253000Y-88773000D01*
X152273000Y-88773000D01*
X152273000Y-86487000D01*
X152527000Y-86487000D01*
X152527000Y-88773000D01*
X153720155Y-88773000D01*
X153841476Y-88543110D01*
X153671645Y-88133076D01*
X153281358Y-87704817D01*
X153122046Y-87630000D01*
X153281358Y-87555183D01*
X153671645Y-87126924D01*
X153841476Y-86716890D01*
X153720155Y-86487000D01*
X152527000Y-86487000D01*
X152273000Y-86487000D01*
X152253000Y-86487000D01*
X152253000Y-86233000D01*
X152273000Y-86233000D01*
X152273000Y-83947000D01*
X152527000Y-83947000D01*
X152527000Y-86233000D01*
X153720155Y-86233000D01*
X153841476Y-86003110D01*
X153671645Y-85593076D01*
X153281358Y-85164817D01*
X153122046Y-85090000D01*
X153281358Y-85015183D01*
X153671645Y-84586924D01*
X153841476Y-84176890D01*
X153720155Y-83947000D01*
X152527000Y-83947000D01*
X152273000Y-83947000D01*
X152253000Y-83947000D01*
X152253000Y-83693000D01*
X152273000Y-83693000D01*
X152273000Y-83673000D01*
X152527000Y-83673000D01*
X152527000Y-83693000D01*
X153720155Y-83693000D01*
X153841476Y-83463110D01*
X153671645Y-83053076D01*
X153281358Y-82624817D01*
X153151522Y-82563843D01*
X153470625Y-82350625D01*
X153798839Y-81859418D01*
X153914092Y-81280000D01*
X153798839Y-80700582D01*
X153470625Y-80209375D01*
X153172239Y-80010000D01*
X153470625Y-79810625D01*
X153798839Y-79319418D01*
X153914092Y-78740000D01*
X153798839Y-78160582D01*
X153470625Y-77669375D01*
X153172239Y-77470000D01*
X153470625Y-77270625D01*
X153798839Y-76779418D01*
X153914092Y-76200000D01*
X153798839Y-75620582D01*
X153470625Y-75129375D01*
X153172239Y-74930000D01*
X153470625Y-74730625D01*
X153798839Y-74239418D01*
X153914092Y-73660000D01*
X153798839Y-73080582D01*
X153470625Y-72589375D01*
X153172239Y-72390000D01*
X153470625Y-72190625D01*
X153798839Y-71699418D01*
X153914092Y-71120000D01*
X153798839Y-70540582D01*
X153470625Y-70049375D01*
X153172239Y-69850000D01*
X153470625Y-69650625D01*
X153798839Y-69159418D01*
X153914092Y-68580000D01*
X153798839Y-68000582D01*
X153470625Y-67509375D01*
X153172239Y-67310000D01*
X153470625Y-67110625D01*
X153798839Y-66619418D01*
X153914092Y-66040000D01*
X153798839Y-65460582D01*
X153470625Y-64969375D01*
X153172239Y-64770000D01*
X153470625Y-64570625D01*
X153798839Y-64079418D01*
X153914092Y-63500000D01*
X153798839Y-62920582D01*
X153470625Y-62429375D01*
X153172239Y-62230000D01*
X153470625Y-62030625D01*
X153798839Y-61539418D01*
X153914092Y-60960000D01*
X153798839Y-60380582D01*
X153470625Y-59889375D01*
X153151522Y-59676157D01*
X153281358Y-59615183D01*
X153671645Y-59186924D01*
X153841476Y-58776890D01*
X153720155Y-58547000D01*
X152527000Y-58547000D01*
X152527000Y-58567000D01*
X152273000Y-58567000D01*
X152273000Y-58547000D01*
X152253000Y-58547000D01*
X152253000Y-58293000D01*
X152273000Y-58293000D01*
X152273000Y-57099181D01*
X152527000Y-57099181D01*
X152527000Y-58293000D01*
X153720155Y-58293000D01*
X153841476Y-58063110D01*
X153671645Y-57653076D01*
X153281358Y-57224817D01*
X152756892Y-56978514D01*
X152527000Y-57099181D01*
X152273000Y-57099181D01*
X152043108Y-56978514D01*
X151518642Y-57224817D01*
X151329961Y-57431855D01*
X151308157Y-57322235D01*
X151167809Y-57112191D01*
X150957765Y-56971843D01*
X150710000Y-56922560D01*
X149010000Y-56922560D01*
X148762235Y-56971843D01*
X148552191Y-57112191D01*
X148411843Y-57322235D01*
X148362560Y-57570000D01*
X148362560Y-59270000D01*
X148411843Y-59517765D01*
X148552191Y-59727809D01*
X148762235Y-59868157D01*
X148807619Y-59877184D01*
X148789375Y-59889375D01*
X148461161Y-60380582D01*
X148345908Y-60960000D01*
X120894092Y-60960000D01*
X120778839Y-60380582D01*
X120450625Y-59889375D01*
X120152239Y-59690000D01*
X120450625Y-59490625D01*
X120778839Y-58999418D01*
X120894092Y-58420000D01*
X120778839Y-57840582D01*
X120450625Y-57349375D01*
X119959418Y-57021161D01*
X119526256Y-56935000D01*
X119233744Y-56935000D01*
X118800582Y-57021161D01*
X118309375Y-57349375D01*
X118294904Y-57371032D01*
X118228327Y-57210301D01*
X118049698Y-57031673D01*
X117816309Y-56935000D01*
X117125750Y-56935000D01*
X116967000Y-57093750D01*
X116967000Y-58293000D01*
X116987000Y-58293000D01*
X116987000Y-58547000D01*
X116967000Y-58547000D01*
X116967000Y-58567000D01*
X116713000Y-58567000D01*
X116713000Y-58547000D01*
X115513750Y-58547000D01*
X115355000Y-58705750D01*
X115355000Y-59396310D01*
X115451673Y-59629699D01*
X115630302Y-59808327D01*
X115791033Y-59874904D01*
X115769375Y-59889375D01*
X115441161Y-60380582D01*
X115325908Y-60960000D01*
X110710000Y-60960000D01*
X110710000Y-57443690D01*
X115355000Y-57443690D01*
X115355000Y-58134250D01*
X115513750Y-58293000D01*
X116713000Y-58293000D01*
X116713000Y-57093750D01*
X116554250Y-56935000D01*
X115863691Y-56935000D01*
X115630302Y-57031673D01*
X115451673Y-57210301D01*
X115355000Y-57443690D01*
X110710000Y-57443690D01*
X110710000Y-54710000D01*
X158290000Y-54710000D01*
X158290001Y-107982736D01*
G36*
X151758748Y-132965858D02*
X151744605Y-132980000D01*
X151758748Y-132994143D01*
X151579143Y-133173748D01*
X151565000Y-133159605D01*
X151550858Y-133173748D01*
X151371253Y-132994143D01*
X151385395Y-132980000D01*
X151371253Y-132965858D01*
X151550858Y-132786253D01*
X151565000Y-132800395D01*
X151579143Y-132786253D01*
X151758748Y-132965858D01*
X151758748Y-132965858D01*
G37*
X151758748Y-132965858D02*
X151744605Y-132980000D01*
X151758748Y-132994143D01*
X151579143Y-133173748D01*
X151565000Y-133159605D01*
X151550858Y-133173748D01*
X151371253Y-132994143D01*
X151385395Y-132980000D01*
X151371253Y-132965858D01*
X151550858Y-132786253D01*
X151565000Y-132800395D01*
X151579143Y-132786253D01*
X151758748Y-132965858D01*
G36*
X146985000Y-132800395D02*
X146999143Y-132786253D01*
X147178748Y-132965858D01*
X147164605Y-132980000D01*
X147178748Y-132994143D01*
X146999143Y-133173748D01*
X146985000Y-133159605D01*
X146970858Y-133173748D01*
X146791253Y-132994143D01*
X146805395Y-132980000D01*
X146791252Y-132965858D01*
X146970858Y-132786252D01*
X146985000Y-132800395D01*
X146985000Y-132800395D01*
G37*
X146985000Y-132800395D02*
X146999143Y-132786253D01*
X147178748Y-132965858D01*
X147164605Y-132980000D01*
X147178748Y-132994143D01*
X146999143Y-133173748D01*
X146985000Y-133159605D01*
X146970858Y-133173748D01*
X146791253Y-132994143D01*
X146805395Y-132980000D01*
X146791252Y-132965858D01*
X146970858Y-132786252D01*
X146985000Y-132800395D01*
G36*
X154048748Y-132965858D02*
X154034605Y-132980000D01*
X154048748Y-132994143D01*
X153869143Y-133173748D01*
X153855000Y-133159605D01*
X153840858Y-133173748D01*
X153661253Y-132994143D01*
X153675395Y-132980000D01*
X153661253Y-132965858D01*
X153840858Y-132786253D01*
X153855000Y-132800395D01*
X153869143Y-132786253D01*
X154048748Y-132965858D01*
X154048748Y-132965858D01*
G37*
X154048748Y-132965858D02*
X154034605Y-132980000D01*
X154048748Y-132994143D01*
X153869143Y-133173748D01*
X153855000Y-133159605D01*
X153840858Y-133173748D01*
X153661253Y-132994143D01*
X153675395Y-132980000D01*
X153661253Y-132965858D01*
X153840858Y-132786253D01*
X153855000Y-132800395D01*
X153869143Y-132786253D01*
X154048748Y-132965858D01*
G04 #@! TD*
M02*
