G04 #@! TF.GenerationSoftware,KiCad,Pcbnew,5.0.1*
G04 #@! TF.CreationDate,2018-10-22T18:12:29+01:00*
G04 #@! TF.ProjectId,ecp5_soc_hat,656370355F736F635F6861742E6B6963,rev?*
G04 #@! TF.SameCoordinates,Original*
G04 #@! TF.FileFunction,Soldermask,Top*
G04 #@! TF.FilePolarity,Negative*
%FSLAX46Y46*%
G04 Gerber Fmt 4.6, Leading zero omitted, Abs format (unit mm)*
G04 Created by KiCad (PCBNEW 5.0.1) date Mon 22 Oct 2018 18:12:29 BST*
%MOMM*%
%LPD*%
G01*
G04 APERTURE LIST*
%ADD10R,1.700000X1.700000*%
%ADD11O,1.700000X1.700000*%
%ADD12R,0.400000X0.500000*%
%ADD13R,0.300000X0.500000*%
%ADD14C,0.100000*%
%ADD15C,0.590000*%
%ADD16C,1.150000*%
%ADD17R,1.600000X1.600000*%
%ADD18C,1.600000*%
%ADD19C,4.000000*%
%ADD20R,1.250000X3.000000*%
%ADD21C,3.500000*%
%ADD22R,6.000000X2.000000*%
%ADD23R,1.100000X1.100000*%
%ADD24R,0.900000X1.000000*%
%ADD25R,0.600000X1.500000*%
%ADD26R,1.510000X0.458000*%
%ADD27R,0.650000X1.060000*%
%ADD28C,0.950000*%
G04 APERTURE END LIST*
D10*
G04 #@! TO.C,J3*
X136000000Y-104540000D03*
D11*
X136000000Y-102000000D03*
X138540000Y-104540000D03*
X138540000Y-102000000D03*
X141080000Y-104540000D03*
X141080000Y-102000000D03*
X143620000Y-104540000D03*
X143620000Y-102000000D03*
G04 #@! TD*
D12*
G04 #@! TO.C,RN2*
X153750000Y-126500000D03*
D13*
X154250000Y-126500000D03*
D12*
X155250000Y-126500000D03*
D13*
X154750000Y-126500000D03*
D12*
X153750000Y-125500000D03*
D13*
X154750000Y-125500000D03*
X154250000Y-125500000D03*
D12*
X155250000Y-125500000D03*
G04 #@! TD*
G04 #@! TO.C,RN1*
X150750000Y-125500000D03*
D13*
X149750000Y-125500000D03*
X150250000Y-125500000D03*
D12*
X149250000Y-125500000D03*
D13*
X150250000Y-126500000D03*
D12*
X150750000Y-126500000D03*
D13*
X149750000Y-126500000D03*
D12*
X149250000Y-126500000D03*
G04 #@! TD*
D14*
G04 #@! TO.C,C2*
G36*
X125911958Y-82180710D02*
X125926276Y-82182834D01*
X125940317Y-82186351D01*
X125953946Y-82191228D01*
X125967031Y-82197417D01*
X125979447Y-82204858D01*
X125991073Y-82213481D01*
X126001798Y-82223202D01*
X126011519Y-82233927D01*
X126020142Y-82245553D01*
X126027583Y-82257969D01*
X126033772Y-82271054D01*
X126038649Y-82284683D01*
X126042166Y-82298724D01*
X126044290Y-82313042D01*
X126045000Y-82327500D01*
X126045000Y-82672500D01*
X126044290Y-82686958D01*
X126042166Y-82701276D01*
X126038649Y-82715317D01*
X126033772Y-82728946D01*
X126027583Y-82742031D01*
X126020142Y-82754447D01*
X126011519Y-82766073D01*
X126001798Y-82776798D01*
X125991073Y-82786519D01*
X125979447Y-82795142D01*
X125967031Y-82802583D01*
X125953946Y-82808772D01*
X125940317Y-82813649D01*
X125926276Y-82817166D01*
X125911958Y-82819290D01*
X125897500Y-82820000D01*
X125602500Y-82820000D01*
X125588042Y-82819290D01*
X125573724Y-82817166D01*
X125559683Y-82813649D01*
X125546054Y-82808772D01*
X125532969Y-82802583D01*
X125520553Y-82795142D01*
X125508927Y-82786519D01*
X125498202Y-82776798D01*
X125488481Y-82766073D01*
X125479858Y-82754447D01*
X125472417Y-82742031D01*
X125466228Y-82728946D01*
X125461351Y-82715317D01*
X125457834Y-82701276D01*
X125455710Y-82686958D01*
X125455000Y-82672500D01*
X125455000Y-82327500D01*
X125455710Y-82313042D01*
X125457834Y-82298724D01*
X125461351Y-82284683D01*
X125466228Y-82271054D01*
X125472417Y-82257969D01*
X125479858Y-82245553D01*
X125488481Y-82233927D01*
X125498202Y-82223202D01*
X125508927Y-82213481D01*
X125520553Y-82204858D01*
X125532969Y-82197417D01*
X125546054Y-82191228D01*
X125559683Y-82186351D01*
X125573724Y-82182834D01*
X125588042Y-82180710D01*
X125602500Y-82180000D01*
X125897500Y-82180000D01*
X125911958Y-82180710D01*
X125911958Y-82180710D01*
G37*
D15*
X125750000Y-82500000D03*
D14*
G36*
X126881958Y-82180710D02*
X126896276Y-82182834D01*
X126910317Y-82186351D01*
X126923946Y-82191228D01*
X126937031Y-82197417D01*
X126949447Y-82204858D01*
X126961073Y-82213481D01*
X126971798Y-82223202D01*
X126981519Y-82233927D01*
X126990142Y-82245553D01*
X126997583Y-82257969D01*
X127003772Y-82271054D01*
X127008649Y-82284683D01*
X127012166Y-82298724D01*
X127014290Y-82313042D01*
X127015000Y-82327500D01*
X127015000Y-82672500D01*
X127014290Y-82686958D01*
X127012166Y-82701276D01*
X127008649Y-82715317D01*
X127003772Y-82728946D01*
X126997583Y-82742031D01*
X126990142Y-82754447D01*
X126981519Y-82766073D01*
X126971798Y-82776798D01*
X126961073Y-82786519D01*
X126949447Y-82795142D01*
X126937031Y-82802583D01*
X126923946Y-82808772D01*
X126910317Y-82813649D01*
X126896276Y-82817166D01*
X126881958Y-82819290D01*
X126867500Y-82820000D01*
X126572500Y-82820000D01*
X126558042Y-82819290D01*
X126543724Y-82817166D01*
X126529683Y-82813649D01*
X126516054Y-82808772D01*
X126502969Y-82802583D01*
X126490553Y-82795142D01*
X126478927Y-82786519D01*
X126468202Y-82776798D01*
X126458481Y-82766073D01*
X126449858Y-82754447D01*
X126442417Y-82742031D01*
X126436228Y-82728946D01*
X126431351Y-82715317D01*
X126427834Y-82701276D01*
X126425710Y-82686958D01*
X126425000Y-82672500D01*
X126425000Y-82327500D01*
X126425710Y-82313042D01*
X126427834Y-82298724D01*
X126431351Y-82284683D01*
X126436228Y-82271054D01*
X126442417Y-82257969D01*
X126449858Y-82245553D01*
X126458481Y-82233927D01*
X126468202Y-82223202D01*
X126478927Y-82213481D01*
X126490553Y-82204858D01*
X126502969Y-82197417D01*
X126516054Y-82191228D01*
X126529683Y-82186351D01*
X126543724Y-82182834D01*
X126558042Y-82180710D01*
X126572500Y-82180000D01*
X126867500Y-82180000D01*
X126881958Y-82180710D01*
X126881958Y-82180710D01*
G37*
D15*
X126720000Y-82500000D03*
G04 #@! TD*
D14*
G04 #@! TO.C,C3*
G36*
X126646958Y-67680710D02*
X126661276Y-67682834D01*
X126675317Y-67686351D01*
X126688946Y-67691228D01*
X126702031Y-67697417D01*
X126714447Y-67704858D01*
X126726073Y-67713481D01*
X126736798Y-67723202D01*
X126746519Y-67733927D01*
X126755142Y-67745553D01*
X126762583Y-67757969D01*
X126768772Y-67771054D01*
X126773649Y-67784683D01*
X126777166Y-67798724D01*
X126779290Y-67813042D01*
X126780000Y-67827500D01*
X126780000Y-68172500D01*
X126779290Y-68186958D01*
X126777166Y-68201276D01*
X126773649Y-68215317D01*
X126768772Y-68228946D01*
X126762583Y-68242031D01*
X126755142Y-68254447D01*
X126746519Y-68266073D01*
X126736798Y-68276798D01*
X126726073Y-68286519D01*
X126714447Y-68295142D01*
X126702031Y-68302583D01*
X126688946Y-68308772D01*
X126675317Y-68313649D01*
X126661276Y-68317166D01*
X126646958Y-68319290D01*
X126632500Y-68320000D01*
X126337500Y-68320000D01*
X126323042Y-68319290D01*
X126308724Y-68317166D01*
X126294683Y-68313649D01*
X126281054Y-68308772D01*
X126267969Y-68302583D01*
X126255553Y-68295142D01*
X126243927Y-68286519D01*
X126233202Y-68276798D01*
X126223481Y-68266073D01*
X126214858Y-68254447D01*
X126207417Y-68242031D01*
X126201228Y-68228946D01*
X126196351Y-68215317D01*
X126192834Y-68201276D01*
X126190710Y-68186958D01*
X126190000Y-68172500D01*
X126190000Y-67827500D01*
X126190710Y-67813042D01*
X126192834Y-67798724D01*
X126196351Y-67784683D01*
X126201228Y-67771054D01*
X126207417Y-67757969D01*
X126214858Y-67745553D01*
X126223481Y-67733927D01*
X126233202Y-67723202D01*
X126243927Y-67713481D01*
X126255553Y-67704858D01*
X126267969Y-67697417D01*
X126281054Y-67691228D01*
X126294683Y-67686351D01*
X126308724Y-67682834D01*
X126323042Y-67680710D01*
X126337500Y-67680000D01*
X126632500Y-67680000D01*
X126646958Y-67680710D01*
X126646958Y-67680710D01*
G37*
D15*
X126485000Y-68000000D03*
D14*
G36*
X125676958Y-67680710D02*
X125691276Y-67682834D01*
X125705317Y-67686351D01*
X125718946Y-67691228D01*
X125732031Y-67697417D01*
X125744447Y-67704858D01*
X125756073Y-67713481D01*
X125766798Y-67723202D01*
X125776519Y-67733927D01*
X125785142Y-67745553D01*
X125792583Y-67757969D01*
X125798772Y-67771054D01*
X125803649Y-67784683D01*
X125807166Y-67798724D01*
X125809290Y-67813042D01*
X125810000Y-67827500D01*
X125810000Y-68172500D01*
X125809290Y-68186958D01*
X125807166Y-68201276D01*
X125803649Y-68215317D01*
X125798772Y-68228946D01*
X125792583Y-68242031D01*
X125785142Y-68254447D01*
X125776519Y-68266073D01*
X125766798Y-68276798D01*
X125756073Y-68286519D01*
X125744447Y-68295142D01*
X125732031Y-68302583D01*
X125718946Y-68308772D01*
X125705317Y-68313649D01*
X125691276Y-68317166D01*
X125676958Y-68319290D01*
X125662500Y-68320000D01*
X125367500Y-68320000D01*
X125353042Y-68319290D01*
X125338724Y-68317166D01*
X125324683Y-68313649D01*
X125311054Y-68308772D01*
X125297969Y-68302583D01*
X125285553Y-68295142D01*
X125273927Y-68286519D01*
X125263202Y-68276798D01*
X125253481Y-68266073D01*
X125244858Y-68254447D01*
X125237417Y-68242031D01*
X125231228Y-68228946D01*
X125226351Y-68215317D01*
X125222834Y-68201276D01*
X125220710Y-68186958D01*
X125220000Y-68172500D01*
X125220000Y-67827500D01*
X125220710Y-67813042D01*
X125222834Y-67798724D01*
X125226351Y-67784683D01*
X125231228Y-67771054D01*
X125237417Y-67757969D01*
X125244858Y-67745553D01*
X125253481Y-67733927D01*
X125263202Y-67723202D01*
X125273927Y-67713481D01*
X125285553Y-67704858D01*
X125297969Y-67697417D01*
X125311054Y-67691228D01*
X125324683Y-67686351D01*
X125338724Y-67682834D01*
X125353042Y-67680710D01*
X125367500Y-67680000D01*
X125662500Y-67680000D01*
X125676958Y-67680710D01*
X125676958Y-67680710D01*
G37*
D15*
X125515000Y-68000000D03*
G04 #@! TD*
D14*
G04 #@! TO.C,C4*
G36*
X125676958Y-62680710D02*
X125691276Y-62682834D01*
X125705317Y-62686351D01*
X125718946Y-62691228D01*
X125732031Y-62697417D01*
X125744447Y-62704858D01*
X125756073Y-62713481D01*
X125766798Y-62723202D01*
X125776519Y-62733927D01*
X125785142Y-62745553D01*
X125792583Y-62757969D01*
X125798772Y-62771054D01*
X125803649Y-62784683D01*
X125807166Y-62798724D01*
X125809290Y-62813042D01*
X125810000Y-62827500D01*
X125810000Y-63172500D01*
X125809290Y-63186958D01*
X125807166Y-63201276D01*
X125803649Y-63215317D01*
X125798772Y-63228946D01*
X125792583Y-63242031D01*
X125785142Y-63254447D01*
X125776519Y-63266073D01*
X125766798Y-63276798D01*
X125756073Y-63286519D01*
X125744447Y-63295142D01*
X125732031Y-63302583D01*
X125718946Y-63308772D01*
X125705317Y-63313649D01*
X125691276Y-63317166D01*
X125676958Y-63319290D01*
X125662500Y-63320000D01*
X125367500Y-63320000D01*
X125353042Y-63319290D01*
X125338724Y-63317166D01*
X125324683Y-63313649D01*
X125311054Y-63308772D01*
X125297969Y-63302583D01*
X125285553Y-63295142D01*
X125273927Y-63286519D01*
X125263202Y-63276798D01*
X125253481Y-63266073D01*
X125244858Y-63254447D01*
X125237417Y-63242031D01*
X125231228Y-63228946D01*
X125226351Y-63215317D01*
X125222834Y-63201276D01*
X125220710Y-63186958D01*
X125220000Y-63172500D01*
X125220000Y-62827500D01*
X125220710Y-62813042D01*
X125222834Y-62798724D01*
X125226351Y-62784683D01*
X125231228Y-62771054D01*
X125237417Y-62757969D01*
X125244858Y-62745553D01*
X125253481Y-62733927D01*
X125263202Y-62723202D01*
X125273927Y-62713481D01*
X125285553Y-62704858D01*
X125297969Y-62697417D01*
X125311054Y-62691228D01*
X125324683Y-62686351D01*
X125338724Y-62682834D01*
X125353042Y-62680710D01*
X125367500Y-62680000D01*
X125662500Y-62680000D01*
X125676958Y-62680710D01*
X125676958Y-62680710D01*
G37*
D15*
X125515000Y-63000000D03*
D14*
G36*
X126646958Y-62680710D02*
X126661276Y-62682834D01*
X126675317Y-62686351D01*
X126688946Y-62691228D01*
X126702031Y-62697417D01*
X126714447Y-62704858D01*
X126726073Y-62713481D01*
X126736798Y-62723202D01*
X126746519Y-62733927D01*
X126755142Y-62745553D01*
X126762583Y-62757969D01*
X126768772Y-62771054D01*
X126773649Y-62784683D01*
X126777166Y-62798724D01*
X126779290Y-62813042D01*
X126780000Y-62827500D01*
X126780000Y-63172500D01*
X126779290Y-63186958D01*
X126777166Y-63201276D01*
X126773649Y-63215317D01*
X126768772Y-63228946D01*
X126762583Y-63242031D01*
X126755142Y-63254447D01*
X126746519Y-63266073D01*
X126736798Y-63276798D01*
X126726073Y-63286519D01*
X126714447Y-63295142D01*
X126702031Y-63302583D01*
X126688946Y-63308772D01*
X126675317Y-63313649D01*
X126661276Y-63317166D01*
X126646958Y-63319290D01*
X126632500Y-63320000D01*
X126337500Y-63320000D01*
X126323042Y-63319290D01*
X126308724Y-63317166D01*
X126294683Y-63313649D01*
X126281054Y-63308772D01*
X126267969Y-63302583D01*
X126255553Y-63295142D01*
X126243927Y-63286519D01*
X126233202Y-63276798D01*
X126223481Y-63266073D01*
X126214858Y-63254447D01*
X126207417Y-63242031D01*
X126201228Y-63228946D01*
X126196351Y-63215317D01*
X126192834Y-63201276D01*
X126190710Y-63186958D01*
X126190000Y-63172500D01*
X126190000Y-62827500D01*
X126190710Y-62813042D01*
X126192834Y-62798724D01*
X126196351Y-62784683D01*
X126201228Y-62771054D01*
X126207417Y-62757969D01*
X126214858Y-62745553D01*
X126223481Y-62733927D01*
X126233202Y-62723202D01*
X126243927Y-62713481D01*
X126255553Y-62704858D01*
X126267969Y-62697417D01*
X126281054Y-62691228D01*
X126294683Y-62686351D01*
X126308724Y-62682834D01*
X126323042Y-62680710D01*
X126337500Y-62680000D01*
X126632500Y-62680000D01*
X126646958Y-62680710D01*
X126646958Y-62680710D01*
G37*
D15*
X126485000Y-63000000D03*
G04 #@! TD*
D14*
G04 #@! TO.C,C5*
G36*
X142676958Y-70180710D02*
X142691276Y-70182834D01*
X142705317Y-70186351D01*
X142718946Y-70191228D01*
X142732031Y-70197417D01*
X142744447Y-70204858D01*
X142756073Y-70213481D01*
X142766798Y-70223202D01*
X142776519Y-70233927D01*
X142785142Y-70245553D01*
X142792583Y-70257969D01*
X142798772Y-70271054D01*
X142803649Y-70284683D01*
X142807166Y-70298724D01*
X142809290Y-70313042D01*
X142810000Y-70327500D01*
X142810000Y-70672500D01*
X142809290Y-70686958D01*
X142807166Y-70701276D01*
X142803649Y-70715317D01*
X142798772Y-70728946D01*
X142792583Y-70742031D01*
X142785142Y-70754447D01*
X142776519Y-70766073D01*
X142766798Y-70776798D01*
X142756073Y-70786519D01*
X142744447Y-70795142D01*
X142732031Y-70802583D01*
X142718946Y-70808772D01*
X142705317Y-70813649D01*
X142691276Y-70817166D01*
X142676958Y-70819290D01*
X142662500Y-70820000D01*
X142367500Y-70820000D01*
X142353042Y-70819290D01*
X142338724Y-70817166D01*
X142324683Y-70813649D01*
X142311054Y-70808772D01*
X142297969Y-70802583D01*
X142285553Y-70795142D01*
X142273927Y-70786519D01*
X142263202Y-70776798D01*
X142253481Y-70766073D01*
X142244858Y-70754447D01*
X142237417Y-70742031D01*
X142231228Y-70728946D01*
X142226351Y-70715317D01*
X142222834Y-70701276D01*
X142220710Y-70686958D01*
X142220000Y-70672500D01*
X142220000Y-70327500D01*
X142220710Y-70313042D01*
X142222834Y-70298724D01*
X142226351Y-70284683D01*
X142231228Y-70271054D01*
X142237417Y-70257969D01*
X142244858Y-70245553D01*
X142253481Y-70233927D01*
X142263202Y-70223202D01*
X142273927Y-70213481D01*
X142285553Y-70204858D01*
X142297969Y-70197417D01*
X142311054Y-70191228D01*
X142324683Y-70186351D01*
X142338724Y-70182834D01*
X142353042Y-70180710D01*
X142367500Y-70180000D01*
X142662500Y-70180000D01*
X142676958Y-70180710D01*
X142676958Y-70180710D01*
G37*
D15*
X142515000Y-70500000D03*
D14*
G36*
X143646958Y-70180710D02*
X143661276Y-70182834D01*
X143675317Y-70186351D01*
X143688946Y-70191228D01*
X143702031Y-70197417D01*
X143714447Y-70204858D01*
X143726073Y-70213481D01*
X143736798Y-70223202D01*
X143746519Y-70233927D01*
X143755142Y-70245553D01*
X143762583Y-70257969D01*
X143768772Y-70271054D01*
X143773649Y-70284683D01*
X143777166Y-70298724D01*
X143779290Y-70313042D01*
X143780000Y-70327500D01*
X143780000Y-70672500D01*
X143779290Y-70686958D01*
X143777166Y-70701276D01*
X143773649Y-70715317D01*
X143768772Y-70728946D01*
X143762583Y-70742031D01*
X143755142Y-70754447D01*
X143746519Y-70766073D01*
X143736798Y-70776798D01*
X143726073Y-70786519D01*
X143714447Y-70795142D01*
X143702031Y-70802583D01*
X143688946Y-70808772D01*
X143675317Y-70813649D01*
X143661276Y-70817166D01*
X143646958Y-70819290D01*
X143632500Y-70820000D01*
X143337500Y-70820000D01*
X143323042Y-70819290D01*
X143308724Y-70817166D01*
X143294683Y-70813649D01*
X143281054Y-70808772D01*
X143267969Y-70802583D01*
X143255553Y-70795142D01*
X143243927Y-70786519D01*
X143233202Y-70776798D01*
X143223481Y-70766073D01*
X143214858Y-70754447D01*
X143207417Y-70742031D01*
X143201228Y-70728946D01*
X143196351Y-70715317D01*
X143192834Y-70701276D01*
X143190710Y-70686958D01*
X143190000Y-70672500D01*
X143190000Y-70327500D01*
X143190710Y-70313042D01*
X143192834Y-70298724D01*
X143196351Y-70284683D01*
X143201228Y-70271054D01*
X143207417Y-70257969D01*
X143214858Y-70245553D01*
X143223481Y-70233927D01*
X143233202Y-70223202D01*
X143243927Y-70213481D01*
X143255553Y-70204858D01*
X143267969Y-70197417D01*
X143281054Y-70191228D01*
X143294683Y-70186351D01*
X143308724Y-70182834D01*
X143323042Y-70180710D01*
X143337500Y-70180000D01*
X143632500Y-70180000D01*
X143646958Y-70180710D01*
X143646958Y-70180710D01*
G37*
D15*
X143485000Y-70500000D03*
G04 #@! TD*
D14*
G04 #@! TO.C,C6*
G36*
X143646958Y-65180710D02*
X143661276Y-65182834D01*
X143675317Y-65186351D01*
X143688946Y-65191228D01*
X143702031Y-65197417D01*
X143714447Y-65204858D01*
X143726073Y-65213481D01*
X143736798Y-65223202D01*
X143746519Y-65233927D01*
X143755142Y-65245553D01*
X143762583Y-65257969D01*
X143768772Y-65271054D01*
X143773649Y-65284683D01*
X143777166Y-65298724D01*
X143779290Y-65313042D01*
X143780000Y-65327500D01*
X143780000Y-65672500D01*
X143779290Y-65686958D01*
X143777166Y-65701276D01*
X143773649Y-65715317D01*
X143768772Y-65728946D01*
X143762583Y-65742031D01*
X143755142Y-65754447D01*
X143746519Y-65766073D01*
X143736798Y-65776798D01*
X143726073Y-65786519D01*
X143714447Y-65795142D01*
X143702031Y-65802583D01*
X143688946Y-65808772D01*
X143675317Y-65813649D01*
X143661276Y-65817166D01*
X143646958Y-65819290D01*
X143632500Y-65820000D01*
X143337500Y-65820000D01*
X143323042Y-65819290D01*
X143308724Y-65817166D01*
X143294683Y-65813649D01*
X143281054Y-65808772D01*
X143267969Y-65802583D01*
X143255553Y-65795142D01*
X143243927Y-65786519D01*
X143233202Y-65776798D01*
X143223481Y-65766073D01*
X143214858Y-65754447D01*
X143207417Y-65742031D01*
X143201228Y-65728946D01*
X143196351Y-65715317D01*
X143192834Y-65701276D01*
X143190710Y-65686958D01*
X143190000Y-65672500D01*
X143190000Y-65327500D01*
X143190710Y-65313042D01*
X143192834Y-65298724D01*
X143196351Y-65284683D01*
X143201228Y-65271054D01*
X143207417Y-65257969D01*
X143214858Y-65245553D01*
X143223481Y-65233927D01*
X143233202Y-65223202D01*
X143243927Y-65213481D01*
X143255553Y-65204858D01*
X143267969Y-65197417D01*
X143281054Y-65191228D01*
X143294683Y-65186351D01*
X143308724Y-65182834D01*
X143323042Y-65180710D01*
X143337500Y-65180000D01*
X143632500Y-65180000D01*
X143646958Y-65180710D01*
X143646958Y-65180710D01*
G37*
D15*
X143485000Y-65500000D03*
D14*
G36*
X142676958Y-65180710D02*
X142691276Y-65182834D01*
X142705317Y-65186351D01*
X142718946Y-65191228D01*
X142732031Y-65197417D01*
X142744447Y-65204858D01*
X142756073Y-65213481D01*
X142766798Y-65223202D01*
X142776519Y-65233927D01*
X142785142Y-65245553D01*
X142792583Y-65257969D01*
X142798772Y-65271054D01*
X142803649Y-65284683D01*
X142807166Y-65298724D01*
X142809290Y-65313042D01*
X142810000Y-65327500D01*
X142810000Y-65672500D01*
X142809290Y-65686958D01*
X142807166Y-65701276D01*
X142803649Y-65715317D01*
X142798772Y-65728946D01*
X142792583Y-65742031D01*
X142785142Y-65754447D01*
X142776519Y-65766073D01*
X142766798Y-65776798D01*
X142756073Y-65786519D01*
X142744447Y-65795142D01*
X142732031Y-65802583D01*
X142718946Y-65808772D01*
X142705317Y-65813649D01*
X142691276Y-65817166D01*
X142676958Y-65819290D01*
X142662500Y-65820000D01*
X142367500Y-65820000D01*
X142353042Y-65819290D01*
X142338724Y-65817166D01*
X142324683Y-65813649D01*
X142311054Y-65808772D01*
X142297969Y-65802583D01*
X142285553Y-65795142D01*
X142273927Y-65786519D01*
X142263202Y-65776798D01*
X142253481Y-65766073D01*
X142244858Y-65754447D01*
X142237417Y-65742031D01*
X142231228Y-65728946D01*
X142226351Y-65715317D01*
X142222834Y-65701276D01*
X142220710Y-65686958D01*
X142220000Y-65672500D01*
X142220000Y-65327500D01*
X142220710Y-65313042D01*
X142222834Y-65298724D01*
X142226351Y-65284683D01*
X142231228Y-65271054D01*
X142237417Y-65257969D01*
X142244858Y-65245553D01*
X142253481Y-65233927D01*
X142263202Y-65223202D01*
X142273927Y-65213481D01*
X142285553Y-65204858D01*
X142297969Y-65197417D01*
X142311054Y-65191228D01*
X142324683Y-65186351D01*
X142338724Y-65182834D01*
X142353042Y-65180710D01*
X142367500Y-65180000D01*
X142662500Y-65180000D01*
X142676958Y-65180710D01*
X142676958Y-65180710D01*
G37*
D15*
X142515000Y-65500000D03*
G04 #@! TD*
D14*
G04 #@! TO.C,C7*
G36*
X129631958Y-90430710D02*
X129646276Y-90432834D01*
X129660317Y-90436351D01*
X129673946Y-90441228D01*
X129687031Y-90447417D01*
X129699447Y-90454858D01*
X129711073Y-90463481D01*
X129721798Y-90473202D01*
X129731519Y-90483927D01*
X129740142Y-90495553D01*
X129747583Y-90507969D01*
X129753772Y-90521054D01*
X129758649Y-90534683D01*
X129762166Y-90548724D01*
X129764290Y-90563042D01*
X129765000Y-90577500D01*
X129765000Y-90922500D01*
X129764290Y-90936958D01*
X129762166Y-90951276D01*
X129758649Y-90965317D01*
X129753772Y-90978946D01*
X129747583Y-90992031D01*
X129740142Y-91004447D01*
X129731519Y-91016073D01*
X129721798Y-91026798D01*
X129711073Y-91036519D01*
X129699447Y-91045142D01*
X129687031Y-91052583D01*
X129673946Y-91058772D01*
X129660317Y-91063649D01*
X129646276Y-91067166D01*
X129631958Y-91069290D01*
X129617500Y-91070000D01*
X129322500Y-91070000D01*
X129308042Y-91069290D01*
X129293724Y-91067166D01*
X129279683Y-91063649D01*
X129266054Y-91058772D01*
X129252969Y-91052583D01*
X129240553Y-91045142D01*
X129228927Y-91036519D01*
X129218202Y-91026798D01*
X129208481Y-91016073D01*
X129199858Y-91004447D01*
X129192417Y-90992031D01*
X129186228Y-90978946D01*
X129181351Y-90965317D01*
X129177834Y-90951276D01*
X129175710Y-90936958D01*
X129175000Y-90922500D01*
X129175000Y-90577500D01*
X129175710Y-90563042D01*
X129177834Y-90548724D01*
X129181351Y-90534683D01*
X129186228Y-90521054D01*
X129192417Y-90507969D01*
X129199858Y-90495553D01*
X129208481Y-90483927D01*
X129218202Y-90473202D01*
X129228927Y-90463481D01*
X129240553Y-90454858D01*
X129252969Y-90447417D01*
X129266054Y-90441228D01*
X129279683Y-90436351D01*
X129293724Y-90432834D01*
X129308042Y-90430710D01*
X129322500Y-90430000D01*
X129617500Y-90430000D01*
X129631958Y-90430710D01*
X129631958Y-90430710D01*
G37*
D15*
X129470000Y-90750000D03*
D14*
G36*
X128661958Y-90430710D02*
X128676276Y-90432834D01*
X128690317Y-90436351D01*
X128703946Y-90441228D01*
X128717031Y-90447417D01*
X128729447Y-90454858D01*
X128741073Y-90463481D01*
X128751798Y-90473202D01*
X128761519Y-90483927D01*
X128770142Y-90495553D01*
X128777583Y-90507969D01*
X128783772Y-90521054D01*
X128788649Y-90534683D01*
X128792166Y-90548724D01*
X128794290Y-90563042D01*
X128795000Y-90577500D01*
X128795000Y-90922500D01*
X128794290Y-90936958D01*
X128792166Y-90951276D01*
X128788649Y-90965317D01*
X128783772Y-90978946D01*
X128777583Y-90992031D01*
X128770142Y-91004447D01*
X128761519Y-91016073D01*
X128751798Y-91026798D01*
X128741073Y-91036519D01*
X128729447Y-91045142D01*
X128717031Y-91052583D01*
X128703946Y-91058772D01*
X128690317Y-91063649D01*
X128676276Y-91067166D01*
X128661958Y-91069290D01*
X128647500Y-91070000D01*
X128352500Y-91070000D01*
X128338042Y-91069290D01*
X128323724Y-91067166D01*
X128309683Y-91063649D01*
X128296054Y-91058772D01*
X128282969Y-91052583D01*
X128270553Y-91045142D01*
X128258927Y-91036519D01*
X128248202Y-91026798D01*
X128238481Y-91016073D01*
X128229858Y-91004447D01*
X128222417Y-90992031D01*
X128216228Y-90978946D01*
X128211351Y-90965317D01*
X128207834Y-90951276D01*
X128205710Y-90936958D01*
X128205000Y-90922500D01*
X128205000Y-90577500D01*
X128205710Y-90563042D01*
X128207834Y-90548724D01*
X128211351Y-90534683D01*
X128216228Y-90521054D01*
X128222417Y-90507969D01*
X128229858Y-90495553D01*
X128238481Y-90483927D01*
X128248202Y-90473202D01*
X128258927Y-90463481D01*
X128270553Y-90454858D01*
X128282969Y-90447417D01*
X128296054Y-90441228D01*
X128309683Y-90436351D01*
X128323724Y-90432834D01*
X128338042Y-90430710D01*
X128352500Y-90430000D01*
X128647500Y-90430000D01*
X128661958Y-90430710D01*
X128661958Y-90430710D01*
G37*
D15*
X128500000Y-90750000D03*
G04 #@! TD*
D14*
G04 #@! TO.C,C8*
G36*
X153881958Y-123180710D02*
X153896276Y-123182834D01*
X153910317Y-123186351D01*
X153923946Y-123191228D01*
X153937031Y-123197417D01*
X153949447Y-123204858D01*
X153961073Y-123213481D01*
X153971798Y-123223202D01*
X153981519Y-123233927D01*
X153990142Y-123245553D01*
X153997583Y-123257969D01*
X154003772Y-123271054D01*
X154008649Y-123284683D01*
X154012166Y-123298724D01*
X154014290Y-123313042D01*
X154015000Y-123327500D01*
X154015000Y-123672500D01*
X154014290Y-123686958D01*
X154012166Y-123701276D01*
X154008649Y-123715317D01*
X154003772Y-123728946D01*
X153997583Y-123742031D01*
X153990142Y-123754447D01*
X153981519Y-123766073D01*
X153971798Y-123776798D01*
X153961073Y-123786519D01*
X153949447Y-123795142D01*
X153937031Y-123802583D01*
X153923946Y-123808772D01*
X153910317Y-123813649D01*
X153896276Y-123817166D01*
X153881958Y-123819290D01*
X153867500Y-123820000D01*
X153572500Y-123820000D01*
X153558042Y-123819290D01*
X153543724Y-123817166D01*
X153529683Y-123813649D01*
X153516054Y-123808772D01*
X153502969Y-123802583D01*
X153490553Y-123795142D01*
X153478927Y-123786519D01*
X153468202Y-123776798D01*
X153458481Y-123766073D01*
X153449858Y-123754447D01*
X153442417Y-123742031D01*
X153436228Y-123728946D01*
X153431351Y-123715317D01*
X153427834Y-123701276D01*
X153425710Y-123686958D01*
X153425000Y-123672500D01*
X153425000Y-123327500D01*
X153425710Y-123313042D01*
X153427834Y-123298724D01*
X153431351Y-123284683D01*
X153436228Y-123271054D01*
X153442417Y-123257969D01*
X153449858Y-123245553D01*
X153458481Y-123233927D01*
X153468202Y-123223202D01*
X153478927Y-123213481D01*
X153490553Y-123204858D01*
X153502969Y-123197417D01*
X153516054Y-123191228D01*
X153529683Y-123186351D01*
X153543724Y-123182834D01*
X153558042Y-123180710D01*
X153572500Y-123180000D01*
X153867500Y-123180000D01*
X153881958Y-123180710D01*
X153881958Y-123180710D01*
G37*
D15*
X153720000Y-123500000D03*
D14*
G36*
X152911958Y-123180710D02*
X152926276Y-123182834D01*
X152940317Y-123186351D01*
X152953946Y-123191228D01*
X152967031Y-123197417D01*
X152979447Y-123204858D01*
X152991073Y-123213481D01*
X153001798Y-123223202D01*
X153011519Y-123233927D01*
X153020142Y-123245553D01*
X153027583Y-123257969D01*
X153033772Y-123271054D01*
X153038649Y-123284683D01*
X153042166Y-123298724D01*
X153044290Y-123313042D01*
X153045000Y-123327500D01*
X153045000Y-123672500D01*
X153044290Y-123686958D01*
X153042166Y-123701276D01*
X153038649Y-123715317D01*
X153033772Y-123728946D01*
X153027583Y-123742031D01*
X153020142Y-123754447D01*
X153011519Y-123766073D01*
X153001798Y-123776798D01*
X152991073Y-123786519D01*
X152979447Y-123795142D01*
X152967031Y-123802583D01*
X152953946Y-123808772D01*
X152940317Y-123813649D01*
X152926276Y-123817166D01*
X152911958Y-123819290D01*
X152897500Y-123820000D01*
X152602500Y-123820000D01*
X152588042Y-123819290D01*
X152573724Y-123817166D01*
X152559683Y-123813649D01*
X152546054Y-123808772D01*
X152532969Y-123802583D01*
X152520553Y-123795142D01*
X152508927Y-123786519D01*
X152498202Y-123776798D01*
X152488481Y-123766073D01*
X152479858Y-123754447D01*
X152472417Y-123742031D01*
X152466228Y-123728946D01*
X152461351Y-123715317D01*
X152457834Y-123701276D01*
X152455710Y-123686958D01*
X152455000Y-123672500D01*
X152455000Y-123327500D01*
X152455710Y-123313042D01*
X152457834Y-123298724D01*
X152461351Y-123284683D01*
X152466228Y-123271054D01*
X152472417Y-123257969D01*
X152479858Y-123245553D01*
X152488481Y-123233927D01*
X152498202Y-123223202D01*
X152508927Y-123213481D01*
X152520553Y-123204858D01*
X152532969Y-123197417D01*
X152546054Y-123191228D01*
X152559683Y-123186351D01*
X152573724Y-123182834D01*
X152588042Y-123180710D01*
X152602500Y-123180000D01*
X152897500Y-123180000D01*
X152911958Y-123180710D01*
X152911958Y-123180710D01*
G37*
D15*
X152750000Y-123500000D03*
G04 #@! TD*
D14*
G04 #@! TO.C,C10*
G36*
X131646958Y-120680710D02*
X131661276Y-120682834D01*
X131675317Y-120686351D01*
X131688946Y-120691228D01*
X131702031Y-120697417D01*
X131714447Y-120704858D01*
X131726073Y-120713481D01*
X131736798Y-120723202D01*
X131746519Y-120733927D01*
X131755142Y-120745553D01*
X131762583Y-120757969D01*
X131768772Y-120771054D01*
X131773649Y-120784683D01*
X131777166Y-120798724D01*
X131779290Y-120813042D01*
X131780000Y-120827500D01*
X131780000Y-121172500D01*
X131779290Y-121186958D01*
X131777166Y-121201276D01*
X131773649Y-121215317D01*
X131768772Y-121228946D01*
X131762583Y-121242031D01*
X131755142Y-121254447D01*
X131746519Y-121266073D01*
X131736798Y-121276798D01*
X131726073Y-121286519D01*
X131714447Y-121295142D01*
X131702031Y-121302583D01*
X131688946Y-121308772D01*
X131675317Y-121313649D01*
X131661276Y-121317166D01*
X131646958Y-121319290D01*
X131632500Y-121320000D01*
X131337500Y-121320000D01*
X131323042Y-121319290D01*
X131308724Y-121317166D01*
X131294683Y-121313649D01*
X131281054Y-121308772D01*
X131267969Y-121302583D01*
X131255553Y-121295142D01*
X131243927Y-121286519D01*
X131233202Y-121276798D01*
X131223481Y-121266073D01*
X131214858Y-121254447D01*
X131207417Y-121242031D01*
X131201228Y-121228946D01*
X131196351Y-121215317D01*
X131192834Y-121201276D01*
X131190710Y-121186958D01*
X131190000Y-121172500D01*
X131190000Y-120827500D01*
X131190710Y-120813042D01*
X131192834Y-120798724D01*
X131196351Y-120784683D01*
X131201228Y-120771054D01*
X131207417Y-120757969D01*
X131214858Y-120745553D01*
X131223481Y-120733927D01*
X131233202Y-120723202D01*
X131243927Y-120713481D01*
X131255553Y-120704858D01*
X131267969Y-120697417D01*
X131281054Y-120691228D01*
X131294683Y-120686351D01*
X131308724Y-120682834D01*
X131323042Y-120680710D01*
X131337500Y-120680000D01*
X131632500Y-120680000D01*
X131646958Y-120680710D01*
X131646958Y-120680710D01*
G37*
D15*
X131485000Y-121000000D03*
D14*
G36*
X130676958Y-120680710D02*
X130691276Y-120682834D01*
X130705317Y-120686351D01*
X130718946Y-120691228D01*
X130732031Y-120697417D01*
X130744447Y-120704858D01*
X130756073Y-120713481D01*
X130766798Y-120723202D01*
X130776519Y-120733927D01*
X130785142Y-120745553D01*
X130792583Y-120757969D01*
X130798772Y-120771054D01*
X130803649Y-120784683D01*
X130807166Y-120798724D01*
X130809290Y-120813042D01*
X130810000Y-120827500D01*
X130810000Y-121172500D01*
X130809290Y-121186958D01*
X130807166Y-121201276D01*
X130803649Y-121215317D01*
X130798772Y-121228946D01*
X130792583Y-121242031D01*
X130785142Y-121254447D01*
X130776519Y-121266073D01*
X130766798Y-121276798D01*
X130756073Y-121286519D01*
X130744447Y-121295142D01*
X130732031Y-121302583D01*
X130718946Y-121308772D01*
X130705317Y-121313649D01*
X130691276Y-121317166D01*
X130676958Y-121319290D01*
X130662500Y-121320000D01*
X130367500Y-121320000D01*
X130353042Y-121319290D01*
X130338724Y-121317166D01*
X130324683Y-121313649D01*
X130311054Y-121308772D01*
X130297969Y-121302583D01*
X130285553Y-121295142D01*
X130273927Y-121286519D01*
X130263202Y-121276798D01*
X130253481Y-121266073D01*
X130244858Y-121254447D01*
X130237417Y-121242031D01*
X130231228Y-121228946D01*
X130226351Y-121215317D01*
X130222834Y-121201276D01*
X130220710Y-121186958D01*
X130220000Y-121172500D01*
X130220000Y-120827500D01*
X130220710Y-120813042D01*
X130222834Y-120798724D01*
X130226351Y-120784683D01*
X130231228Y-120771054D01*
X130237417Y-120757969D01*
X130244858Y-120745553D01*
X130253481Y-120733927D01*
X130263202Y-120723202D01*
X130273927Y-120713481D01*
X130285553Y-120704858D01*
X130297969Y-120697417D01*
X130311054Y-120691228D01*
X130324683Y-120686351D01*
X130338724Y-120682834D01*
X130353042Y-120680710D01*
X130367500Y-120680000D01*
X130662500Y-120680000D01*
X130676958Y-120680710D01*
X130676958Y-120680710D01*
G37*
D15*
X130515000Y-121000000D03*
G04 #@! TD*
D14*
G04 #@! TO.C,C1*
G36*
X130824505Y-58301204D02*
X130848773Y-58304804D01*
X130872572Y-58310765D01*
X130895671Y-58319030D01*
X130917850Y-58329520D01*
X130938893Y-58342132D01*
X130958599Y-58356747D01*
X130976777Y-58373223D01*
X130993253Y-58391401D01*
X131007868Y-58411107D01*
X131020480Y-58432150D01*
X131030970Y-58454329D01*
X131039235Y-58477428D01*
X131045196Y-58501227D01*
X131048796Y-58525495D01*
X131050000Y-58549999D01*
X131050000Y-59450001D01*
X131048796Y-59474505D01*
X131045196Y-59498773D01*
X131039235Y-59522572D01*
X131030970Y-59545671D01*
X131020480Y-59567850D01*
X131007868Y-59588893D01*
X130993253Y-59608599D01*
X130976777Y-59626777D01*
X130958599Y-59643253D01*
X130938893Y-59657868D01*
X130917850Y-59670480D01*
X130895671Y-59680970D01*
X130872572Y-59689235D01*
X130848773Y-59695196D01*
X130824505Y-59698796D01*
X130800001Y-59700000D01*
X130149999Y-59700000D01*
X130125495Y-59698796D01*
X130101227Y-59695196D01*
X130077428Y-59689235D01*
X130054329Y-59680970D01*
X130032150Y-59670480D01*
X130011107Y-59657868D01*
X129991401Y-59643253D01*
X129973223Y-59626777D01*
X129956747Y-59608599D01*
X129942132Y-59588893D01*
X129929520Y-59567850D01*
X129919030Y-59545671D01*
X129910765Y-59522572D01*
X129904804Y-59498773D01*
X129901204Y-59474505D01*
X129900000Y-59450001D01*
X129900000Y-58549999D01*
X129901204Y-58525495D01*
X129904804Y-58501227D01*
X129910765Y-58477428D01*
X129919030Y-58454329D01*
X129929520Y-58432150D01*
X129942132Y-58411107D01*
X129956747Y-58391401D01*
X129973223Y-58373223D01*
X129991401Y-58356747D01*
X130011107Y-58342132D01*
X130032150Y-58329520D01*
X130054329Y-58319030D01*
X130077428Y-58310765D01*
X130101227Y-58304804D01*
X130125495Y-58301204D01*
X130149999Y-58300000D01*
X130800001Y-58300000D01*
X130824505Y-58301204D01*
X130824505Y-58301204D01*
G37*
D16*
X130475000Y-59000000D03*
D14*
G36*
X132874505Y-58301204D02*
X132898773Y-58304804D01*
X132922572Y-58310765D01*
X132945671Y-58319030D01*
X132967850Y-58329520D01*
X132988893Y-58342132D01*
X133008599Y-58356747D01*
X133026777Y-58373223D01*
X133043253Y-58391401D01*
X133057868Y-58411107D01*
X133070480Y-58432150D01*
X133080970Y-58454329D01*
X133089235Y-58477428D01*
X133095196Y-58501227D01*
X133098796Y-58525495D01*
X133100000Y-58549999D01*
X133100000Y-59450001D01*
X133098796Y-59474505D01*
X133095196Y-59498773D01*
X133089235Y-59522572D01*
X133080970Y-59545671D01*
X133070480Y-59567850D01*
X133057868Y-59588893D01*
X133043253Y-59608599D01*
X133026777Y-59626777D01*
X133008599Y-59643253D01*
X132988893Y-59657868D01*
X132967850Y-59670480D01*
X132945671Y-59680970D01*
X132922572Y-59689235D01*
X132898773Y-59695196D01*
X132874505Y-59698796D01*
X132850001Y-59700000D01*
X132199999Y-59700000D01*
X132175495Y-59698796D01*
X132151227Y-59695196D01*
X132127428Y-59689235D01*
X132104329Y-59680970D01*
X132082150Y-59670480D01*
X132061107Y-59657868D01*
X132041401Y-59643253D01*
X132023223Y-59626777D01*
X132006747Y-59608599D01*
X131992132Y-59588893D01*
X131979520Y-59567850D01*
X131969030Y-59545671D01*
X131960765Y-59522572D01*
X131954804Y-59498773D01*
X131951204Y-59474505D01*
X131950000Y-59450001D01*
X131950000Y-58549999D01*
X131951204Y-58525495D01*
X131954804Y-58501227D01*
X131960765Y-58477428D01*
X131969030Y-58454329D01*
X131979520Y-58432150D01*
X131992132Y-58411107D01*
X132006747Y-58391401D01*
X132023223Y-58373223D01*
X132041401Y-58356747D01*
X132061107Y-58342132D01*
X132082150Y-58329520D01*
X132104329Y-58319030D01*
X132127428Y-58310765D01*
X132151227Y-58304804D01*
X132175495Y-58301204D01*
X132199999Y-58300000D01*
X132850001Y-58300000D01*
X132874505Y-58301204D01*
X132874505Y-58301204D01*
G37*
D16*
X132525000Y-59000000D03*
G04 #@! TD*
D14*
G04 #@! TO.C,C9*
G36*
X128374505Y-114301204D02*
X128398773Y-114304804D01*
X128422572Y-114310765D01*
X128445671Y-114319030D01*
X128467850Y-114329520D01*
X128488893Y-114342132D01*
X128508599Y-114356747D01*
X128526777Y-114373223D01*
X128543253Y-114391401D01*
X128557868Y-114411107D01*
X128570480Y-114432150D01*
X128580970Y-114454329D01*
X128589235Y-114477428D01*
X128595196Y-114501227D01*
X128598796Y-114525495D01*
X128600000Y-114549999D01*
X128600000Y-115450001D01*
X128598796Y-115474505D01*
X128595196Y-115498773D01*
X128589235Y-115522572D01*
X128580970Y-115545671D01*
X128570480Y-115567850D01*
X128557868Y-115588893D01*
X128543253Y-115608599D01*
X128526777Y-115626777D01*
X128508599Y-115643253D01*
X128488893Y-115657868D01*
X128467850Y-115670480D01*
X128445671Y-115680970D01*
X128422572Y-115689235D01*
X128398773Y-115695196D01*
X128374505Y-115698796D01*
X128350001Y-115700000D01*
X127699999Y-115700000D01*
X127675495Y-115698796D01*
X127651227Y-115695196D01*
X127627428Y-115689235D01*
X127604329Y-115680970D01*
X127582150Y-115670480D01*
X127561107Y-115657868D01*
X127541401Y-115643253D01*
X127523223Y-115626777D01*
X127506747Y-115608599D01*
X127492132Y-115588893D01*
X127479520Y-115567850D01*
X127469030Y-115545671D01*
X127460765Y-115522572D01*
X127454804Y-115498773D01*
X127451204Y-115474505D01*
X127450000Y-115450001D01*
X127450000Y-114549999D01*
X127451204Y-114525495D01*
X127454804Y-114501227D01*
X127460765Y-114477428D01*
X127469030Y-114454329D01*
X127479520Y-114432150D01*
X127492132Y-114411107D01*
X127506747Y-114391401D01*
X127523223Y-114373223D01*
X127541401Y-114356747D01*
X127561107Y-114342132D01*
X127582150Y-114329520D01*
X127604329Y-114319030D01*
X127627428Y-114310765D01*
X127651227Y-114304804D01*
X127675495Y-114301204D01*
X127699999Y-114300000D01*
X128350001Y-114300000D01*
X128374505Y-114301204D01*
X128374505Y-114301204D01*
G37*
D16*
X128025000Y-115000000D03*
D14*
G36*
X126324505Y-114301204D02*
X126348773Y-114304804D01*
X126372572Y-114310765D01*
X126395671Y-114319030D01*
X126417850Y-114329520D01*
X126438893Y-114342132D01*
X126458599Y-114356747D01*
X126476777Y-114373223D01*
X126493253Y-114391401D01*
X126507868Y-114411107D01*
X126520480Y-114432150D01*
X126530970Y-114454329D01*
X126539235Y-114477428D01*
X126545196Y-114501227D01*
X126548796Y-114525495D01*
X126550000Y-114549999D01*
X126550000Y-115450001D01*
X126548796Y-115474505D01*
X126545196Y-115498773D01*
X126539235Y-115522572D01*
X126530970Y-115545671D01*
X126520480Y-115567850D01*
X126507868Y-115588893D01*
X126493253Y-115608599D01*
X126476777Y-115626777D01*
X126458599Y-115643253D01*
X126438893Y-115657868D01*
X126417850Y-115670480D01*
X126395671Y-115680970D01*
X126372572Y-115689235D01*
X126348773Y-115695196D01*
X126324505Y-115698796D01*
X126300001Y-115700000D01*
X125649999Y-115700000D01*
X125625495Y-115698796D01*
X125601227Y-115695196D01*
X125577428Y-115689235D01*
X125554329Y-115680970D01*
X125532150Y-115670480D01*
X125511107Y-115657868D01*
X125491401Y-115643253D01*
X125473223Y-115626777D01*
X125456747Y-115608599D01*
X125442132Y-115588893D01*
X125429520Y-115567850D01*
X125419030Y-115545671D01*
X125410765Y-115522572D01*
X125404804Y-115498773D01*
X125401204Y-115474505D01*
X125400000Y-115450001D01*
X125400000Y-114549999D01*
X125401204Y-114525495D01*
X125404804Y-114501227D01*
X125410765Y-114477428D01*
X125419030Y-114454329D01*
X125429520Y-114432150D01*
X125442132Y-114411107D01*
X125456747Y-114391401D01*
X125473223Y-114373223D01*
X125491401Y-114356747D01*
X125511107Y-114342132D01*
X125532150Y-114329520D01*
X125554329Y-114319030D01*
X125577428Y-114310765D01*
X125601227Y-114304804D01*
X125625495Y-114301204D01*
X125649999Y-114300000D01*
X126300001Y-114300000D01*
X126324505Y-114301204D01*
X126324505Y-114301204D01*
G37*
D16*
X125975000Y-115000000D03*
G04 #@! TD*
D14*
G04 #@! TO.C,C11*
G36*
X105474505Y-123951204D02*
X105498773Y-123954804D01*
X105522572Y-123960765D01*
X105545671Y-123969030D01*
X105567850Y-123979520D01*
X105588893Y-123992132D01*
X105608599Y-124006747D01*
X105626777Y-124023223D01*
X105643253Y-124041401D01*
X105657868Y-124061107D01*
X105670480Y-124082150D01*
X105680970Y-124104329D01*
X105689235Y-124127428D01*
X105695196Y-124151227D01*
X105698796Y-124175495D01*
X105700000Y-124199999D01*
X105700000Y-124850001D01*
X105698796Y-124874505D01*
X105695196Y-124898773D01*
X105689235Y-124922572D01*
X105680970Y-124945671D01*
X105670480Y-124967850D01*
X105657868Y-124988893D01*
X105643253Y-125008599D01*
X105626777Y-125026777D01*
X105608599Y-125043253D01*
X105588893Y-125057868D01*
X105567850Y-125070480D01*
X105545671Y-125080970D01*
X105522572Y-125089235D01*
X105498773Y-125095196D01*
X105474505Y-125098796D01*
X105450001Y-125100000D01*
X104549999Y-125100000D01*
X104525495Y-125098796D01*
X104501227Y-125095196D01*
X104477428Y-125089235D01*
X104454329Y-125080970D01*
X104432150Y-125070480D01*
X104411107Y-125057868D01*
X104391401Y-125043253D01*
X104373223Y-125026777D01*
X104356747Y-125008599D01*
X104342132Y-124988893D01*
X104329520Y-124967850D01*
X104319030Y-124945671D01*
X104310765Y-124922572D01*
X104304804Y-124898773D01*
X104301204Y-124874505D01*
X104300000Y-124850001D01*
X104300000Y-124199999D01*
X104301204Y-124175495D01*
X104304804Y-124151227D01*
X104310765Y-124127428D01*
X104319030Y-124104329D01*
X104329520Y-124082150D01*
X104342132Y-124061107D01*
X104356747Y-124041401D01*
X104373223Y-124023223D01*
X104391401Y-124006747D01*
X104411107Y-123992132D01*
X104432150Y-123979520D01*
X104454329Y-123969030D01*
X104477428Y-123960765D01*
X104501227Y-123954804D01*
X104525495Y-123951204D01*
X104549999Y-123950000D01*
X105450001Y-123950000D01*
X105474505Y-123951204D01*
X105474505Y-123951204D01*
G37*
D16*
X105000000Y-124525000D03*
D14*
G36*
X105474505Y-121901204D02*
X105498773Y-121904804D01*
X105522572Y-121910765D01*
X105545671Y-121919030D01*
X105567850Y-121929520D01*
X105588893Y-121942132D01*
X105608599Y-121956747D01*
X105626777Y-121973223D01*
X105643253Y-121991401D01*
X105657868Y-122011107D01*
X105670480Y-122032150D01*
X105680970Y-122054329D01*
X105689235Y-122077428D01*
X105695196Y-122101227D01*
X105698796Y-122125495D01*
X105700000Y-122149999D01*
X105700000Y-122800001D01*
X105698796Y-122824505D01*
X105695196Y-122848773D01*
X105689235Y-122872572D01*
X105680970Y-122895671D01*
X105670480Y-122917850D01*
X105657868Y-122938893D01*
X105643253Y-122958599D01*
X105626777Y-122976777D01*
X105608599Y-122993253D01*
X105588893Y-123007868D01*
X105567850Y-123020480D01*
X105545671Y-123030970D01*
X105522572Y-123039235D01*
X105498773Y-123045196D01*
X105474505Y-123048796D01*
X105450001Y-123050000D01*
X104549999Y-123050000D01*
X104525495Y-123048796D01*
X104501227Y-123045196D01*
X104477428Y-123039235D01*
X104454329Y-123030970D01*
X104432150Y-123020480D01*
X104411107Y-123007868D01*
X104391401Y-122993253D01*
X104373223Y-122976777D01*
X104356747Y-122958599D01*
X104342132Y-122938893D01*
X104329520Y-122917850D01*
X104319030Y-122895671D01*
X104310765Y-122872572D01*
X104304804Y-122848773D01*
X104301204Y-122824505D01*
X104300000Y-122800001D01*
X104300000Y-122149999D01*
X104301204Y-122125495D01*
X104304804Y-122101227D01*
X104310765Y-122077428D01*
X104319030Y-122054329D01*
X104329520Y-122032150D01*
X104342132Y-122011107D01*
X104356747Y-121991401D01*
X104373223Y-121973223D01*
X104391401Y-121956747D01*
X104411107Y-121942132D01*
X104432150Y-121929520D01*
X104454329Y-121919030D01*
X104477428Y-121910765D01*
X104501227Y-121904804D01*
X104525495Y-121901204D01*
X104549999Y-121900000D01*
X105450001Y-121900000D01*
X105474505Y-121901204D01*
X105474505Y-121901204D01*
G37*
D16*
X105000000Y-122475000D03*
G04 #@! TD*
D14*
G04 #@! TO.C,C12*
G36*
X130974505Y-122401204D02*
X130998773Y-122404804D01*
X131022572Y-122410765D01*
X131045671Y-122419030D01*
X131067850Y-122429520D01*
X131088893Y-122442132D01*
X131108599Y-122456747D01*
X131126777Y-122473223D01*
X131143253Y-122491401D01*
X131157868Y-122511107D01*
X131170480Y-122532150D01*
X131180970Y-122554329D01*
X131189235Y-122577428D01*
X131195196Y-122601227D01*
X131198796Y-122625495D01*
X131200000Y-122649999D01*
X131200000Y-123300001D01*
X131198796Y-123324505D01*
X131195196Y-123348773D01*
X131189235Y-123372572D01*
X131180970Y-123395671D01*
X131170480Y-123417850D01*
X131157868Y-123438893D01*
X131143253Y-123458599D01*
X131126777Y-123476777D01*
X131108599Y-123493253D01*
X131088893Y-123507868D01*
X131067850Y-123520480D01*
X131045671Y-123530970D01*
X131022572Y-123539235D01*
X130998773Y-123545196D01*
X130974505Y-123548796D01*
X130950001Y-123550000D01*
X130049999Y-123550000D01*
X130025495Y-123548796D01*
X130001227Y-123545196D01*
X129977428Y-123539235D01*
X129954329Y-123530970D01*
X129932150Y-123520480D01*
X129911107Y-123507868D01*
X129891401Y-123493253D01*
X129873223Y-123476777D01*
X129856747Y-123458599D01*
X129842132Y-123438893D01*
X129829520Y-123417850D01*
X129819030Y-123395671D01*
X129810765Y-123372572D01*
X129804804Y-123348773D01*
X129801204Y-123324505D01*
X129800000Y-123300001D01*
X129800000Y-122649999D01*
X129801204Y-122625495D01*
X129804804Y-122601227D01*
X129810765Y-122577428D01*
X129819030Y-122554329D01*
X129829520Y-122532150D01*
X129842132Y-122511107D01*
X129856747Y-122491401D01*
X129873223Y-122473223D01*
X129891401Y-122456747D01*
X129911107Y-122442132D01*
X129932150Y-122429520D01*
X129954329Y-122419030D01*
X129977428Y-122410765D01*
X130001227Y-122404804D01*
X130025495Y-122401204D01*
X130049999Y-122400000D01*
X130950001Y-122400000D01*
X130974505Y-122401204D01*
X130974505Y-122401204D01*
G37*
D16*
X130500000Y-122975000D03*
D14*
G36*
X130974505Y-124451204D02*
X130998773Y-124454804D01*
X131022572Y-124460765D01*
X131045671Y-124469030D01*
X131067850Y-124479520D01*
X131088893Y-124492132D01*
X131108599Y-124506747D01*
X131126777Y-124523223D01*
X131143253Y-124541401D01*
X131157868Y-124561107D01*
X131170480Y-124582150D01*
X131180970Y-124604329D01*
X131189235Y-124627428D01*
X131195196Y-124651227D01*
X131198796Y-124675495D01*
X131200000Y-124699999D01*
X131200000Y-125350001D01*
X131198796Y-125374505D01*
X131195196Y-125398773D01*
X131189235Y-125422572D01*
X131180970Y-125445671D01*
X131170480Y-125467850D01*
X131157868Y-125488893D01*
X131143253Y-125508599D01*
X131126777Y-125526777D01*
X131108599Y-125543253D01*
X131088893Y-125557868D01*
X131067850Y-125570480D01*
X131045671Y-125580970D01*
X131022572Y-125589235D01*
X130998773Y-125595196D01*
X130974505Y-125598796D01*
X130950001Y-125600000D01*
X130049999Y-125600000D01*
X130025495Y-125598796D01*
X130001227Y-125595196D01*
X129977428Y-125589235D01*
X129954329Y-125580970D01*
X129932150Y-125570480D01*
X129911107Y-125557868D01*
X129891401Y-125543253D01*
X129873223Y-125526777D01*
X129856747Y-125508599D01*
X129842132Y-125488893D01*
X129829520Y-125467850D01*
X129819030Y-125445671D01*
X129810765Y-125422572D01*
X129804804Y-125398773D01*
X129801204Y-125374505D01*
X129800000Y-125350001D01*
X129800000Y-124699999D01*
X129801204Y-124675495D01*
X129804804Y-124651227D01*
X129810765Y-124627428D01*
X129819030Y-124604329D01*
X129829520Y-124582150D01*
X129842132Y-124561107D01*
X129856747Y-124541401D01*
X129873223Y-124523223D01*
X129891401Y-124506747D01*
X129911107Y-124492132D01*
X129932150Y-124479520D01*
X129954329Y-124469030D01*
X129977428Y-124460765D01*
X130001227Y-124454804D01*
X130025495Y-124451204D01*
X130049999Y-124450000D01*
X130950001Y-124450000D01*
X130974505Y-124451204D01*
X130974505Y-124451204D01*
G37*
D16*
X130500000Y-125025000D03*
G04 #@! TD*
D14*
G04 #@! TO.C,C13*
G36*
X107974505Y-123951204D02*
X107998773Y-123954804D01*
X108022572Y-123960765D01*
X108045671Y-123969030D01*
X108067850Y-123979520D01*
X108088893Y-123992132D01*
X108108599Y-124006747D01*
X108126777Y-124023223D01*
X108143253Y-124041401D01*
X108157868Y-124061107D01*
X108170480Y-124082150D01*
X108180970Y-124104329D01*
X108189235Y-124127428D01*
X108195196Y-124151227D01*
X108198796Y-124175495D01*
X108200000Y-124199999D01*
X108200000Y-124850001D01*
X108198796Y-124874505D01*
X108195196Y-124898773D01*
X108189235Y-124922572D01*
X108180970Y-124945671D01*
X108170480Y-124967850D01*
X108157868Y-124988893D01*
X108143253Y-125008599D01*
X108126777Y-125026777D01*
X108108599Y-125043253D01*
X108088893Y-125057868D01*
X108067850Y-125070480D01*
X108045671Y-125080970D01*
X108022572Y-125089235D01*
X107998773Y-125095196D01*
X107974505Y-125098796D01*
X107950001Y-125100000D01*
X107049999Y-125100000D01*
X107025495Y-125098796D01*
X107001227Y-125095196D01*
X106977428Y-125089235D01*
X106954329Y-125080970D01*
X106932150Y-125070480D01*
X106911107Y-125057868D01*
X106891401Y-125043253D01*
X106873223Y-125026777D01*
X106856747Y-125008599D01*
X106842132Y-124988893D01*
X106829520Y-124967850D01*
X106819030Y-124945671D01*
X106810765Y-124922572D01*
X106804804Y-124898773D01*
X106801204Y-124874505D01*
X106800000Y-124850001D01*
X106800000Y-124199999D01*
X106801204Y-124175495D01*
X106804804Y-124151227D01*
X106810765Y-124127428D01*
X106819030Y-124104329D01*
X106829520Y-124082150D01*
X106842132Y-124061107D01*
X106856747Y-124041401D01*
X106873223Y-124023223D01*
X106891401Y-124006747D01*
X106911107Y-123992132D01*
X106932150Y-123979520D01*
X106954329Y-123969030D01*
X106977428Y-123960765D01*
X107001227Y-123954804D01*
X107025495Y-123951204D01*
X107049999Y-123950000D01*
X107950001Y-123950000D01*
X107974505Y-123951204D01*
X107974505Y-123951204D01*
G37*
D16*
X107500000Y-124525000D03*
D14*
G36*
X107974505Y-121901204D02*
X107998773Y-121904804D01*
X108022572Y-121910765D01*
X108045671Y-121919030D01*
X108067850Y-121929520D01*
X108088893Y-121942132D01*
X108108599Y-121956747D01*
X108126777Y-121973223D01*
X108143253Y-121991401D01*
X108157868Y-122011107D01*
X108170480Y-122032150D01*
X108180970Y-122054329D01*
X108189235Y-122077428D01*
X108195196Y-122101227D01*
X108198796Y-122125495D01*
X108200000Y-122149999D01*
X108200000Y-122800001D01*
X108198796Y-122824505D01*
X108195196Y-122848773D01*
X108189235Y-122872572D01*
X108180970Y-122895671D01*
X108170480Y-122917850D01*
X108157868Y-122938893D01*
X108143253Y-122958599D01*
X108126777Y-122976777D01*
X108108599Y-122993253D01*
X108088893Y-123007868D01*
X108067850Y-123020480D01*
X108045671Y-123030970D01*
X108022572Y-123039235D01*
X107998773Y-123045196D01*
X107974505Y-123048796D01*
X107950001Y-123050000D01*
X107049999Y-123050000D01*
X107025495Y-123048796D01*
X107001227Y-123045196D01*
X106977428Y-123039235D01*
X106954329Y-123030970D01*
X106932150Y-123020480D01*
X106911107Y-123007868D01*
X106891401Y-122993253D01*
X106873223Y-122976777D01*
X106856747Y-122958599D01*
X106842132Y-122938893D01*
X106829520Y-122917850D01*
X106819030Y-122895671D01*
X106810765Y-122872572D01*
X106804804Y-122848773D01*
X106801204Y-122824505D01*
X106800000Y-122800001D01*
X106800000Y-122149999D01*
X106801204Y-122125495D01*
X106804804Y-122101227D01*
X106810765Y-122077428D01*
X106819030Y-122054329D01*
X106829520Y-122032150D01*
X106842132Y-122011107D01*
X106856747Y-121991401D01*
X106873223Y-121973223D01*
X106891401Y-121956747D01*
X106911107Y-121942132D01*
X106932150Y-121929520D01*
X106954329Y-121919030D01*
X106977428Y-121910765D01*
X107001227Y-121904804D01*
X107025495Y-121901204D01*
X107049999Y-121900000D01*
X107950001Y-121900000D01*
X107974505Y-121901204D01*
X107974505Y-121901204D01*
G37*
D16*
X107500000Y-122475000D03*
G04 #@! TD*
D17*
G04 #@! TO.C,J1*
X155000000Y-131000000D03*
D18*
X152710000Y-131000000D03*
X150420000Y-131000000D03*
X148130000Y-131000000D03*
X145840000Y-131000000D03*
X156145000Y-132980000D03*
X153855000Y-132980000D03*
X151565000Y-132980000D03*
X149275000Y-132980000D03*
X146985000Y-132980000D03*
X155000000Y-134960000D03*
X152710000Y-134960000D03*
X150420000Y-134960000D03*
X148130000Y-134960000D03*
X145840000Y-134960000D03*
D19*
X138185000Y-133050000D03*
X163185000Y-133050000D03*
G04 #@! TD*
D11*
G04 #@! TO.C,X4*
X152400000Y-106680000D03*
X149860000Y-106680000D03*
X152400000Y-104140000D03*
X149860000Y-104140000D03*
X152400000Y-101600000D03*
X149860000Y-101600000D03*
X152400000Y-99060000D03*
X149860000Y-99060000D03*
X152400000Y-96520000D03*
X149860000Y-96520000D03*
X152400000Y-93980000D03*
X149860000Y-93980000D03*
X152400000Y-91440000D03*
X149860000Y-91440000D03*
X152400000Y-88900000D03*
X149860000Y-88900000D03*
X152400000Y-86360000D03*
X149860000Y-86360000D03*
X152400000Y-83820000D03*
X149860000Y-83820000D03*
X152400000Y-81280000D03*
X149860000Y-81280000D03*
X152400000Y-78740000D03*
X149860000Y-78740000D03*
X152400000Y-76200000D03*
X149860000Y-76200000D03*
X152400000Y-73660000D03*
X149860000Y-73660000D03*
X152400000Y-71120000D03*
X149860000Y-71120000D03*
X152400000Y-68580000D03*
X149860000Y-68580000D03*
X152400000Y-66040000D03*
X149860000Y-66040000D03*
X152400000Y-63500000D03*
X149860000Y-63500000D03*
X152400000Y-60960000D03*
X149860000Y-60960000D03*
X152400000Y-58420000D03*
D10*
X149860000Y-58420000D03*
G04 #@! TD*
G04 #@! TO.C,X3*
X116840000Y-58420000D03*
D11*
X119380000Y-58420000D03*
X116840000Y-60960000D03*
X119380000Y-60960000D03*
X116840000Y-63500000D03*
X119380000Y-63500000D03*
X116840000Y-66040000D03*
X119380000Y-66040000D03*
X116840000Y-68580000D03*
X119380000Y-68580000D03*
X116840000Y-71120000D03*
X119380000Y-71120000D03*
X116840000Y-73660000D03*
X119380000Y-73660000D03*
X116840000Y-76200000D03*
X119380000Y-76200000D03*
X116840000Y-78740000D03*
X119380000Y-78740000D03*
X116840000Y-81280000D03*
X119380000Y-81280000D03*
X116840000Y-83820000D03*
X119380000Y-83820000D03*
X116840000Y-86360000D03*
X119380000Y-86360000D03*
X116840000Y-88900000D03*
X119380000Y-88900000D03*
X116840000Y-91440000D03*
X119380000Y-91440000D03*
X116840000Y-93980000D03*
X119380000Y-93980000D03*
X116840000Y-96520000D03*
X119380000Y-96520000D03*
X116840000Y-99060000D03*
X119380000Y-99060000D03*
X116840000Y-101600000D03*
X119380000Y-101600000D03*
X116840000Y-104140000D03*
X119380000Y-104140000D03*
X116840000Y-106680000D03*
X119380000Y-106680000D03*
G04 #@! TD*
D20*
G04 #@! TO.C,J2*
X108500000Y-130000000D03*
X111000000Y-130000000D03*
X113000000Y-130000000D03*
X115500000Y-130000000D03*
D21*
X118650000Y-133700000D03*
X105500000Y-133700000D03*
G04 #@! TD*
D22*
G04 #@! TO.C,L1*
X120500000Y-116850000D03*
X120500000Y-121150000D03*
G04 #@! TD*
D23*
G04 #@! TO.C,D1*
X127900000Y-123500000D03*
X125100000Y-123500000D03*
G04 #@! TD*
D24*
G04 #@! TO.C,X1*
X127725000Y-92675000D03*
X127725000Y-94825000D03*
X129275000Y-94825000D03*
X129275000Y-92675000D03*
G04 #@! TD*
D25*
G04 #@! TO.C,U2*
X144365000Y-112250000D03*
X145635000Y-112250000D03*
X146905000Y-112250000D03*
X148175000Y-112250000D03*
X149445000Y-112250000D03*
X150715000Y-112250000D03*
X143095000Y-112250000D03*
X141825000Y-112250000D03*
X140555000Y-112250000D03*
X139285000Y-112250000D03*
X139285000Y-121750000D03*
X140555000Y-121750000D03*
X141825000Y-121750000D03*
X143095000Y-121750000D03*
X144365000Y-121750000D03*
X145635000Y-121750000D03*
X146905000Y-121750000D03*
X148175000Y-121750000D03*
X149445000Y-121750000D03*
X150715000Y-121750000D03*
G04 #@! TD*
D26*
G04 #@! TO.C,U1*
X128750000Y-61600000D03*
X128750000Y-62400000D03*
X128750000Y-63200000D03*
X128750000Y-64000000D03*
X128750000Y-64800000D03*
X128750000Y-65600000D03*
X128750000Y-66400000D03*
X128750000Y-67200000D03*
X128750000Y-68000000D03*
X128750000Y-68800000D03*
X128750000Y-69600000D03*
X128750000Y-70400000D03*
X128750000Y-71200000D03*
X128750000Y-72000000D03*
X128750000Y-72800000D03*
X128750000Y-73600000D03*
X128750000Y-74400000D03*
X128750000Y-75200000D03*
X128750000Y-76000000D03*
X128750000Y-76800000D03*
X128750000Y-77600000D03*
X128750000Y-78400000D03*
X128750000Y-79200000D03*
X128750000Y-80000000D03*
X128750000Y-80800000D03*
X128750000Y-81600000D03*
X128750000Y-82400000D03*
X140250000Y-82400000D03*
X140250000Y-81600000D03*
X140250000Y-80800000D03*
X140250000Y-80000000D03*
X140250000Y-79200000D03*
X140250000Y-78400000D03*
X140250000Y-77600000D03*
X140250000Y-76800000D03*
X140250000Y-76000000D03*
X140250000Y-75200000D03*
X140250000Y-74400000D03*
X140250000Y-73600000D03*
X140250000Y-72800000D03*
X140250000Y-72000000D03*
X140250000Y-71200000D03*
X140250000Y-70400000D03*
X140250000Y-69600000D03*
X140250000Y-68800000D03*
X140250000Y-68000000D03*
X140250000Y-67200000D03*
X140250000Y-66400000D03*
X140250000Y-65600000D03*
X140250000Y-64800000D03*
X140250000Y-64000000D03*
X140250000Y-63200000D03*
X140250000Y-62400000D03*
X140250000Y-61600000D03*
G04 #@! TD*
D27*
G04 #@! TO.C,U3*
X126050000Y-120100000D03*
X127000000Y-120100000D03*
X127950000Y-120100000D03*
X127950000Y-117900000D03*
X126050000Y-117900000D03*
G04 #@! TD*
D14*
G04 #@! TO.C,R1*
G36*
X126560779Y-97276144D02*
X126583834Y-97279563D01*
X126606443Y-97285227D01*
X126628387Y-97293079D01*
X126649457Y-97303044D01*
X126669448Y-97315026D01*
X126688168Y-97328910D01*
X126705438Y-97344562D01*
X126721090Y-97361832D01*
X126734974Y-97380552D01*
X126746956Y-97400543D01*
X126756921Y-97421613D01*
X126764773Y-97443557D01*
X126770437Y-97466166D01*
X126773856Y-97489221D01*
X126775000Y-97512500D01*
X126775000Y-97987500D01*
X126773856Y-98010779D01*
X126770437Y-98033834D01*
X126764773Y-98056443D01*
X126756921Y-98078387D01*
X126746956Y-98099457D01*
X126734974Y-98119448D01*
X126721090Y-98138168D01*
X126705438Y-98155438D01*
X126688168Y-98171090D01*
X126669448Y-98184974D01*
X126649457Y-98196956D01*
X126628387Y-98206921D01*
X126606443Y-98214773D01*
X126583834Y-98220437D01*
X126560779Y-98223856D01*
X126537500Y-98225000D01*
X125962500Y-98225000D01*
X125939221Y-98223856D01*
X125916166Y-98220437D01*
X125893557Y-98214773D01*
X125871613Y-98206921D01*
X125850543Y-98196956D01*
X125830552Y-98184974D01*
X125811832Y-98171090D01*
X125794562Y-98155438D01*
X125778910Y-98138168D01*
X125765026Y-98119448D01*
X125753044Y-98099457D01*
X125743079Y-98078387D01*
X125735227Y-98056443D01*
X125729563Y-98033834D01*
X125726144Y-98010779D01*
X125725000Y-97987500D01*
X125725000Y-97512500D01*
X125726144Y-97489221D01*
X125729563Y-97466166D01*
X125735227Y-97443557D01*
X125743079Y-97421613D01*
X125753044Y-97400543D01*
X125765026Y-97380552D01*
X125778910Y-97361832D01*
X125794562Y-97344562D01*
X125811832Y-97328910D01*
X125830552Y-97315026D01*
X125850543Y-97303044D01*
X125871613Y-97293079D01*
X125893557Y-97285227D01*
X125916166Y-97279563D01*
X125939221Y-97276144D01*
X125962500Y-97275000D01*
X126537500Y-97275000D01*
X126560779Y-97276144D01*
X126560779Y-97276144D01*
G37*
D28*
X126250000Y-97750000D03*
D14*
G36*
X124810779Y-97276144D02*
X124833834Y-97279563D01*
X124856443Y-97285227D01*
X124878387Y-97293079D01*
X124899457Y-97303044D01*
X124919448Y-97315026D01*
X124938168Y-97328910D01*
X124955438Y-97344562D01*
X124971090Y-97361832D01*
X124984974Y-97380552D01*
X124996956Y-97400543D01*
X125006921Y-97421613D01*
X125014773Y-97443557D01*
X125020437Y-97466166D01*
X125023856Y-97489221D01*
X125025000Y-97512500D01*
X125025000Y-97987500D01*
X125023856Y-98010779D01*
X125020437Y-98033834D01*
X125014773Y-98056443D01*
X125006921Y-98078387D01*
X124996956Y-98099457D01*
X124984974Y-98119448D01*
X124971090Y-98138168D01*
X124955438Y-98155438D01*
X124938168Y-98171090D01*
X124919448Y-98184974D01*
X124899457Y-98196956D01*
X124878387Y-98206921D01*
X124856443Y-98214773D01*
X124833834Y-98220437D01*
X124810779Y-98223856D01*
X124787500Y-98225000D01*
X124212500Y-98225000D01*
X124189221Y-98223856D01*
X124166166Y-98220437D01*
X124143557Y-98214773D01*
X124121613Y-98206921D01*
X124100543Y-98196956D01*
X124080552Y-98184974D01*
X124061832Y-98171090D01*
X124044562Y-98155438D01*
X124028910Y-98138168D01*
X124015026Y-98119448D01*
X124003044Y-98099457D01*
X123993079Y-98078387D01*
X123985227Y-98056443D01*
X123979563Y-98033834D01*
X123976144Y-98010779D01*
X123975000Y-97987500D01*
X123975000Y-97512500D01*
X123976144Y-97489221D01*
X123979563Y-97466166D01*
X123985227Y-97443557D01*
X123993079Y-97421613D01*
X124003044Y-97400543D01*
X124015026Y-97380552D01*
X124028910Y-97361832D01*
X124044562Y-97344562D01*
X124061832Y-97328910D01*
X124080552Y-97315026D01*
X124100543Y-97303044D01*
X124121613Y-97293079D01*
X124143557Y-97285227D01*
X124166166Y-97279563D01*
X124189221Y-97276144D01*
X124212500Y-97275000D01*
X124787500Y-97275000D01*
X124810779Y-97276144D01*
X124810779Y-97276144D01*
G37*
D28*
X124500000Y-97750000D03*
G04 #@! TD*
D14*
G04 #@! TO.C,R2*
G36*
X163760779Y-126351144D02*
X163783834Y-126354563D01*
X163806443Y-126360227D01*
X163828387Y-126368079D01*
X163849457Y-126378044D01*
X163869448Y-126390026D01*
X163888168Y-126403910D01*
X163905438Y-126419562D01*
X163921090Y-126436832D01*
X163934974Y-126455552D01*
X163946956Y-126475543D01*
X163956921Y-126496613D01*
X163964773Y-126518557D01*
X163970437Y-126541166D01*
X163973856Y-126564221D01*
X163975000Y-126587500D01*
X163975000Y-127162500D01*
X163973856Y-127185779D01*
X163970437Y-127208834D01*
X163964773Y-127231443D01*
X163956921Y-127253387D01*
X163946956Y-127274457D01*
X163934974Y-127294448D01*
X163921090Y-127313168D01*
X163905438Y-127330438D01*
X163888168Y-127346090D01*
X163869448Y-127359974D01*
X163849457Y-127371956D01*
X163828387Y-127381921D01*
X163806443Y-127389773D01*
X163783834Y-127395437D01*
X163760779Y-127398856D01*
X163737500Y-127400000D01*
X163262500Y-127400000D01*
X163239221Y-127398856D01*
X163216166Y-127395437D01*
X163193557Y-127389773D01*
X163171613Y-127381921D01*
X163150543Y-127371956D01*
X163130552Y-127359974D01*
X163111832Y-127346090D01*
X163094562Y-127330438D01*
X163078910Y-127313168D01*
X163065026Y-127294448D01*
X163053044Y-127274457D01*
X163043079Y-127253387D01*
X163035227Y-127231443D01*
X163029563Y-127208834D01*
X163026144Y-127185779D01*
X163025000Y-127162500D01*
X163025000Y-126587500D01*
X163026144Y-126564221D01*
X163029563Y-126541166D01*
X163035227Y-126518557D01*
X163043079Y-126496613D01*
X163053044Y-126475543D01*
X163065026Y-126455552D01*
X163078910Y-126436832D01*
X163094562Y-126419562D01*
X163111832Y-126403910D01*
X163130552Y-126390026D01*
X163150543Y-126378044D01*
X163171613Y-126368079D01*
X163193557Y-126360227D01*
X163216166Y-126354563D01*
X163239221Y-126351144D01*
X163262500Y-126350000D01*
X163737500Y-126350000D01*
X163760779Y-126351144D01*
X163760779Y-126351144D01*
G37*
D28*
X163500000Y-126875000D03*
D14*
G36*
X163760779Y-124601144D02*
X163783834Y-124604563D01*
X163806443Y-124610227D01*
X163828387Y-124618079D01*
X163849457Y-124628044D01*
X163869448Y-124640026D01*
X163888168Y-124653910D01*
X163905438Y-124669562D01*
X163921090Y-124686832D01*
X163934974Y-124705552D01*
X163946956Y-124725543D01*
X163956921Y-124746613D01*
X163964773Y-124768557D01*
X163970437Y-124791166D01*
X163973856Y-124814221D01*
X163975000Y-124837500D01*
X163975000Y-125412500D01*
X163973856Y-125435779D01*
X163970437Y-125458834D01*
X163964773Y-125481443D01*
X163956921Y-125503387D01*
X163946956Y-125524457D01*
X163934974Y-125544448D01*
X163921090Y-125563168D01*
X163905438Y-125580438D01*
X163888168Y-125596090D01*
X163869448Y-125609974D01*
X163849457Y-125621956D01*
X163828387Y-125631921D01*
X163806443Y-125639773D01*
X163783834Y-125645437D01*
X163760779Y-125648856D01*
X163737500Y-125650000D01*
X163262500Y-125650000D01*
X163239221Y-125648856D01*
X163216166Y-125645437D01*
X163193557Y-125639773D01*
X163171613Y-125631921D01*
X163150543Y-125621956D01*
X163130552Y-125609974D01*
X163111832Y-125596090D01*
X163094562Y-125580438D01*
X163078910Y-125563168D01*
X163065026Y-125544448D01*
X163053044Y-125524457D01*
X163043079Y-125503387D01*
X163035227Y-125481443D01*
X163029563Y-125458834D01*
X163026144Y-125435779D01*
X163025000Y-125412500D01*
X163025000Y-124837500D01*
X163026144Y-124814221D01*
X163029563Y-124791166D01*
X163035227Y-124768557D01*
X163043079Y-124746613D01*
X163053044Y-124725543D01*
X163065026Y-124705552D01*
X163078910Y-124686832D01*
X163094562Y-124669562D01*
X163111832Y-124653910D01*
X163130552Y-124640026D01*
X163150543Y-124628044D01*
X163171613Y-124618079D01*
X163193557Y-124610227D01*
X163216166Y-124604563D01*
X163239221Y-124601144D01*
X163262500Y-124600000D01*
X163737500Y-124600000D01*
X163760779Y-124601144D01*
X163760779Y-124601144D01*
G37*
D28*
X163500000Y-125125000D03*
G04 #@! TD*
D14*
G04 #@! TO.C,R3*
G36*
X161760779Y-124601144D02*
X161783834Y-124604563D01*
X161806443Y-124610227D01*
X161828387Y-124618079D01*
X161849457Y-124628044D01*
X161869448Y-124640026D01*
X161888168Y-124653910D01*
X161905438Y-124669562D01*
X161921090Y-124686832D01*
X161934974Y-124705552D01*
X161946956Y-124725543D01*
X161956921Y-124746613D01*
X161964773Y-124768557D01*
X161970437Y-124791166D01*
X161973856Y-124814221D01*
X161975000Y-124837500D01*
X161975000Y-125412500D01*
X161973856Y-125435779D01*
X161970437Y-125458834D01*
X161964773Y-125481443D01*
X161956921Y-125503387D01*
X161946956Y-125524457D01*
X161934974Y-125544448D01*
X161921090Y-125563168D01*
X161905438Y-125580438D01*
X161888168Y-125596090D01*
X161869448Y-125609974D01*
X161849457Y-125621956D01*
X161828387Y-125631921D01*
X161806443Y-125639773D01*
X161783834Y-125645437D01*
X161760779Y-125648856D01*
X161737500Y-125650000D01*
X161262500Y-125650000D01*
X161239221Y-125648856D01*
X161216166Y-125645437D01*
X161193557Y-125639773D01*
X161171613Y-125631921D01*
X161150543Y-125621956D01*
X161130552Y-125609974D01*
X161111832Y-125596090D01*
X161094562Y-125580438D01*
X161078910Y-125563168D01*
X161065026Y-125544448D01*
X161053044Y-125524457D01*
X161043079Y-125503387D01*
X161035227Y-125481443D01*
X161029563Y-125458834D01*
X161026144Y-125435779D01*
X161025000Y-125412500D01*
X161025000Y-124837500D01*
X161026144Y-124814221D01*
X161029563Y-124791166D01*
X161035227Y-124768557D01*
X161043079Y-124746613D01*
X161053044Y-124725543D01*
X161065026Y-124705552D01*
X161078910Y-124686832D01*
X161094562Y-124669562D01*
X161111832Y-124653910D01*
X161130552Y-124640026D01*
X161150543Y-124628044D01*
X161171613Y-124618079D01*
X161193557Y-124610227D01*
X161216166Y-124604563D01*
X161239221Y-124601144D01*
X161262500Y-124600000D01*
X161737500Y-124600000D01*
X161760779Y-124601144D01*
X161760779Y-124601144D01*
G37*
D28*
X161500000Y-125125000D03*
D14*
G36*
X161760779Y-126351144D02*
X161783834Y-126354563D01*
X161806443Y-126360227D01*
X161828387Y-126368079D01*
X161849457Y-126378044D01*
X161869448Y-126390026D01*
X161888168Y-126403910D01*
X161905438Y-126419562D01*
X161921090Y-126436832D01*
X161934974Y-126455552D01*
X161946956Y-126475543D01*
X161956921Y-126496613D01*
X161964773Y-126518557D01*
X161970437Y-126541166D01*
X161973856Y-126564221D01*
X161975000Y-126587500D01*
X161975000Y-127162500D01*
X161973856Y-127185779D01*
X161970437Y-127208834D01*
X161964773Y-127231443D01*
X161956921Y-127253387D01*
X161946956Y-127274457D01*
X161934974Y-127294448D01*
X161921090Y-127313168D01*
X161905438Y-127330438D01*
X161888168Y-127346090D01*
X161869448Y-127359974D01*
X161849457Y-127371956D01*
X161828387Y-127381921D01*
X161806443Y-127389773D01*
X161783834Y-127395437D01*
X161760779Y-127398856D01*
X161737500Y-127400000D01*
X161262500Y-127400000D01*
X161239221Y-127398856D01*
X161216166Y-127395437D01*
X161193557Y-127389773D01*
X161171613Y-127381921D01*
X161150543Y-127371956D01*
X161130552Y-127359974D01*
X161111832Y-127346090D01*
X161094562Y-127330438D01*
X161078910Y-127313168D01*
X161065026Y-127294448D01*
X161053044Y-127274457D01*
X161043079Y-127253387D01*
X161035227Y-127231443D01*
X161029563Y-127208834D01*
X161026144Y-127185779D01*
X161025000Y-127162500D01*
X161025000Y-126587500D01*
X161026144Y-126564221D01*
X161029563Y-126541166D01*
X161035227Y-126518557D01*
X161043079Y-126496613D01*
X161053044Y-126475543D01*
X161065026Y-126455552D01*
X161078910Y-126436832D01*
X161094562Y-126419562D01*
X161111832Y-126403910D01*
X161130552Y-126390026D01*
X161150543Y-126378044D01*
X161171613Y-126368079D01*
X161193557Y-126360227D01*
X161216166Y-126354563D01*
X161239221Y-126351144D01*
X161262500Y-126350000D01*
X161737500Y-126350000D01*
X161760779Y-126351144D01*
X161760779Y-126351144D01*
G37*
D28*
X161500000Y-126875000D03*
G04 #@! TD*
D14*
G04 #@! TO.C,R4*
G36*
X159760779Y-126351144D02*
X159783834Y-126354563D01*
X159806443Y-126360227D01*
X159828387Y-126368079D01*
X159849457Y-126378044D01*
X159869448Y-126390026D01*
X159888168Y-126403910D01*
X159905438Y-126419562D01*
X159921090Y-126436832D01*
X159934974Y-126455552D01*
X159946956Y-126475543D01*
X159956921Y-126496613D01*
X159964773Y-126518557D01*
X159970437Y-126541166D01*
X159973856Y-126564221D01*
X159975000Y-126587500D01*
X159975000Y-127162500D01*
X159973856Y-127185779D01*
X159970437Y-127208834D01*
X159964773Y-127231443D01*
X159956921Y-127253387D01*
X159946956Y-127274457D01*
X159934974Y-127294448D01*
X159921090Y-127313168D01*
X159905438Y-127330438D01*
X159888168Y-127346090D01*
X159869448Y-127359974D01*
X159849457Y-127371956D01*
X159828387Y-127381921D01*
X159806443Y-127389773D01*
X159783834Y-127395437D01*
X159760779Y-127398856D01*
X159737500Y-127400000D01*
X159262500Y-127400000D01*
X159239221Y-127398856D01*
X159216166Y-127395437D01*
X159193557Y-127389773D01*
X159171613Y-127381921D01*
X159150543Y-127371956D01*
X159130552Y-127359974D01*
X159111832Y-127346090D01*
X159094562Y-127330438D01*
X159078910Y-127313168D01*
X159065026Y-127294448D01*
X159053044Y-127274457D01*
X159043079Y-127253387D01*
X159035227Y-127231443D01*
X159029563Y-127208834D01*
X159026144Y-127185779D01*
X159025000Y-127162500D01*
X159025000Y-126587500D01*
X159026144Y-126564221D01*
X159029563Y-126541166D01*
X159035227Y-126518557D01*
X159043079Y-126496613D01*
X159053044Y-126475543D01*
X159065026Y-126455552D01*
X159078910Y-126436832D01*
X159094562Y-126419562D01*
X159111832Y-126403910D01*
X159130552Y-126390026D01*
X159150543Y-126378044D01*
X159171613Y-126368079D01*
X159193557Y-126360227D01*
X159216166Y-126354563D01*
X159239221Y-126351144D01*
X159262500Y-126350000D01*
X159737500Y-126350000D01*
X159760779Y-126351144D01*
X159760779Y-126351144D01*
G37*
D28*
X159500000Y-126875000D03*
D14*
G36*
X159760779Y-124601144D02*
X159783834Y-124604563D01*
X159806443Y-124610227D01*
X159828387Y-124618079D01*
X159849457Y-124628044D01*
X159869448Y-124640026D01*
X159888168Y-124653910D01*
X159905438Y-124669562D01*
X159921090Y-124686832D01*
X159934974Y-124705552D01*
X159946956Y-124725543D01*
X159956921Y-124746613D01*
X159964773Y-124768557D01*
X159970437Y-124791166D01*
X159973856Y-124814221D01*
X159975000Y-124837500D01*
X159975000Y-125412500D01*
X159973856Y-125435779D01*
X159970437Y-125458834D01*
X159964773Y-125481443D01*
X159956921Y-125503387D01*
X159946956Y-125524457D01*
X159934974Y-125544448D01*
X159921090Y-125563168D01*
X159905438Y-125580438D01*
X159888168Y-125596090D01*
X159869448Y-125609974D01*
X159849457Y-125621956D01*
X159828387Y-125631921D01*
X159806443Y-125639773D01*
X159783834Y-125645437D01*
X159760779Y-125648856D01*
X159737500Y-125650000D01*
X159262500Y-125650000D01*
X159239221Y-125648856D01*
X159216166Y-125645437D01*
X159193557Y-125639773D01*
X159171613Y-125631921D01*
X159150543Y-125621956D01*
X159130552Y-125609974D01*
X159111832Y-125596090D01*
X159094562Y-125580438D01*
X159078910Y-125563168D01*
X159065026Y-125544448D01*
X159053044Y-125524457D01*
X159043079Y-125503387D01*
X159035227Y-125481443D01*
X159029563Y-125458834D01*
X159026144Y-125435779D01*
X159025000Y-125412500D01*
X159025000Y-124837500D01*
X159026144Y-124814221D01*
X159029563Y-124791166D01*
X159035227Y-124768557D01*
X159043079Y-124746613D01*
X159053044Y-124725543D01*
X159065026Y-124705552D01*
X159078910Y-124686832D01*
X159094562Y-124669562D01*
X159111832Y-124653910D01*
X159130552Y-124640026D01*
X159150543Y-124628044D01*
X159171613Y-124618079D01*
X159193557Y-124610227D01*
X159216166Y-124604563D01*
X159239221Y-124601144D01*
X159262500Y-124600000D01*
X159737500Y-124600000D01*
X159760779Y-124601144D01*
X159760779Y-124601144D01*
G37*
D28*
X159500000Y-125125000D03*
G04 #@! TD*
D14*
G04 #@! TO.C,R5*
G36*
X132185779Y-119026144D02*
X132208834Y-119029563D01*
X132231443Y-119035227D01*
X132253387Y-119043079D01*
X132274457Y-119053044D01*
X132294448Y-119065026D01*
X132313168Y-119078910D01*
X132330438Y-119094562D01*
X132346090Y-119111832D01*
X132359974Y-119130552D01*
X132371956Y-119150543D01*
X132381921Y-119171613D01*
X132389773Y-119193557D01*
X132395437Y-119216166D01*
X132398856Y-119239221D01*
X132400000Y-119262500D01*
X132400000Y-119737500D01*
X132398856Y-119760779D01*
X132395437Y-119783834D01*
X132389773Y-119806443D01*
X132381921Y-119828387D01*
X132371956Y-119849457D01*
X132359974Y-119869448D01*
X132346090Y-119888168D01*
X132330438Y-119905438D01*
X132313168Y-119921090D01*
X132294448Y-119934974D01*
X132274457Y-119946956D01*
X132253387Y-119956921D01*
X132231443Y-119964773D01*
X132208834Y-119970437D01*
X132185779Y-119973856D01*
X132162500Y-119975000D01*
X131587500Y-119975000D01*
X131564221Y-119973856D01*
X131541166Y-119970437D01*
X131518557Y-119964773D01*
X131496613Y-119956921D01*
X131475543Y-119946956D01*
X131455552Y-119934974D01*
X131436832Y-119921090D01*
X131419562Y-119905438D01*
X131403910Y-119888168D01*
X131390026Y-119869448D01*
X131378044Y-119849457D01*
X131368079Y-119828387D01*
X131360227Y-119806443D01*
X131354563Y-119783834D01*
X131351144Y-119760779D01*
X131350000Y-119737500D01*
X131350000Y-119262500D01*
X131351144Y-119239221D01*
X131354563Y-119216166D01*
X131360227Y-119193557D01*
X131368079Y-119171613D01*
X131378044Y-119150543D01*
X131390026Y-119130552D01*
X131403910Y-119111832D01*
X131419562Y-119094562D01*
X131436832Y-119078910D01*
X131455552Y-119065026D01*
X131475543Y-119053044D01*
X131496613Y-119043079D01*
X131518557Y-119035227D01*
X131541166Y-119029563D01*
X131564221Y-119026144D01*
X131587500Y-119025000D01*
X132162500Y-119025000D01*
X132185779Y-119026144D01*
X132185779Y-119026144D01*
G37*
D28*
X131875000Y-119500000D03*
D14*
G36*
X130435779Y-119026144D02*
X130458834Y-119029563D01*
X130481443Y-119035227D01*
X130503387Y-119043079D01*
X130524457Y-119053044D01*
X130544448Y-119065026D01*
X130563168Y-119078910D01*
X130580438Y-119094562D01*
X130596090Y-119111832D01*
X130609974Y-119130552D01*
X130621956Y-119150543D01*
X130631921Y-119171613D01*
X130639773Y-119193557D01*
X130645437Y-119216166D01*
X130648856Y-119239221D01*
X130650000Y-119262500D01*
X130650000Y-119737500D01*
X130648856Y-119760779D01*
X130645437Y-119783834D01*
X130639773Y-119806443D01*
X130631921Y-119828387D01*
X130621956Y-119849457D01*
X130609974Y-119869448D01*
X130596090Y-119888168D01*
X130580438Y-119905438D01*
X130563168Y-119921090D01*
X130544448Y-119934974D01*
X130524457Y-119946956D01*
X130503387Y-119956921D01*
X130481443Y-119964773D01*
X130458834Y-119970437D01*
X130435779Y-119973856D01*
X130412500Y-119975000D01*
X129837500Y-119975000D01*
X129814221Y-119973856D01*
X129791166Y-119970437D01*
X129768557Y-119964773D01*
X129746613Y-119956921D01*
X129725543Y-119946956D01*
X129705552Y-119934974D01*
X129686832Y-119921090D01*
X129669562Y-119905438D01*
X129653910Y-119888168D01*
X129640026Y-119869448D01*
X129628044Y-119849457D01*
X129618079Y-119828387D01*
X129610227Y-119806443D01*
X129604563Y-119783834D01*
X129601144Y-119760779D01*
X129600000Y-119737500D01*
X129600000Y-119262500D01*
X129601144Y-119239221D01*
X129604563Y-119216166D01*
X129610227Y-119193557D01*
X129618079Y-119171613D01*
X129628044Y-119150543D01*
X129640026Y-119130552D01*
X129653910Y-119111832D01*
X129669562Y-119094562D01*
X129686832Y-119078910D01*
X129705552Y-119065026D01*
X129725543Y-119053044D01*
X129746613Y-119043079D01*
X129768557Y-119035227D01*
X129791166Y-119029563D01*
X129814221Y-119026144D01*
X129837500Y-119025000D01*
X130412500Y-119025000D01*
X130435779Y-119026144D01*
X130435779Y-119026144D01*
G37*
D28*
X130125000Y-119500000D03*
G04 #@! TD*
D14*
G04 #@! TO.C,R6*
G36*
X132185779Y-117026144D02*
X132208834Y-117029563D01*
X132231443Y-117035227D01*
X132253387Y-117043079D01*
X132274457Y-117053044D01*
X132294448Y-117065026D01*
X132313168Y-117078910D01*
X132330438Y-117094562D01*
X132346090Y-117111832D01*
X132359974Y-117130552D01*
X132371956Y-117150543D01*
X132381921Y-117171613D01*
X132389773Y-117193557D01*
X132395437Y-117216166D01*
X132398856Y-117239221D01*
X132400000Y-117262500D01*
X132400000Y-117737500D01*
X132398856Y-117760779D01*
X132395437Y-117783834D01*
X132389773Y-117806443D01*
X132381921Y-117828387D01*
X132371956Y-117849457D01*
X132359974Y-117869448D01*
X132346090Y-117888168D01*
X132330438Y-117905438D01*
X132313168Y-117921090D01*
X132294448Y-117934974D01*
X132274457Y-117946956D01*
X132253387Y-117956921D01*
X132231443Y-117964773D01*
X132208834Y-117970437D01*
X132185779Y-117973856D01*
X132162500Y-117975000D01*
X131587500Y-117975000D01*
X131564221Y-117973856D01*
X131541166Y-117970437D01*
X131518557Y-117964773D01*
X131496613Y-117956921D01*
X131475543Y-117946956D01*
X131455552Y-117934974D01*
X131436832Y-117921090D01*
X131419562Y-117905438D01*
X131403910Y-117888168D01*
X131390026Y-117869448D01*
X131378044Y-117849457D01*
X131368079Y-117828387D01*
X131360227Y-117806443D01*
X131354563Y-117783834D01*
X131351144Y-117760779D01*
X131350000Y-117737500D01*
X131350000Y-117262500D01*
X131351144Y-117239221D01*
X131354563Y-117216166D01*
X131360227Y-117193557D01*
X131368079Y-117171613D01*
X131378044Y-117150543D01*
X131390026Y-117130552D01*
X131403910Y-117111832D01*
X131419562Y-117094562D01*
X131436832Y-117078910D01*
X131455552Y-117065026D01*
X131475543Y-117053044D01*
X131496613Y-117043079D01*
X131518557Y-117035227D01*
X131541166Y-117029563D01*
X131564221Y-117026144D01*
X131587500Y-117025000D01*
X132162500Y-117025000D01*
X132185779Y-117026144D01*
X132185779Y-117026144D01*
G37*
D28*
X131875000Y-117500000D03*
D14*
G36*
X130435779Y-117026144D02*
X130458834Y-117029563D01*
X130481443Y-117035227D01*
X130503387Y-117043079D01*
X130524457Y-117053044D01*
X130544448Y-117065026D01*
X130563168Y-117078910D01*
X130580438Y-117094562D01*
X130596090Y-117111832D01*
X130609974Y-117130552D01*
X130621956Y-117150543D01*
X130631921Y-117171613D01*
X130639773Y-117193557D01*
X130645437Y-117216166D01*
X130648856Y-117239221D01*
X130650000Y-117262500D01*
X130650000Y-117737500D01*
X130648856Y-117760779D01*
X130645437Y-117783834D01*
X130639773Y-117806443D01*
X130631921Y-117828387D01*
X130621956Y-117849457D01*
X130609974Y-117869448D01*
X130596090Y-117888168D01*
X130580438Y-117905438D01*
X130563168Y-117921090D01*
X130544448Y-117934974D01*
X130524457Y-117946956D01*
X130503387Y-117956921D01*
X130481443Y-117964773D01*
X130458834Y-117970437D01*
X130435779Y-117973856D01*
X130412500Y-117975000D01*
X129837500Y-117975000D01*
X129814221Y-117973856D01*
X129791166Y-117970437D01*
X129768557Y-117964773D01*
X129746613Y-117956921D01*
X129725543Y-117946956D01*
X129705552Y-117934974D01*
X129686832Y-117921090D01*
X129669562Y-117905438D01*
X129653910Y-117888168D01*
X129640026Y-117869448D01*
X129628044Y-117849457D01*
X129618079Y-117828387D01*
X129610227Y-117806443D01*
X129604563Y-117783834D01*
X129601144Y-117760779D01*
X129600000Y-117737500D01*
X129600000Y-117262500D01*
X129601144Y-117239221D01*
X129604563Y-117216166D01*
X129610227Y-117193557D01*
X129618079Y-117171613D01*
X129628044Y-117150543D01*
X129640026Y-117130552D01*
X129653910Y-117111832D01*
X129669562Y-117094562D01*
X129686832Y-117078910D01*
X129705552Y-117065026D01*
X129725543Y-117053044D01*
X129746613Y-117043079D01*
X129768557Y-117035227D01*
X129791166Y-117029563D01*
X129814221Y-117026144D01*
X129837500Y-117025000D01*
X130412500Y-117025000D01*
X130435779Y-117026144D01*
X130435779Y-117026144D01*
G37*
D28*
X130125000Y-117500000D03*
G04 #@! TD*
D14*
G04 #@! TO.C,R7*
G36*
X113260779Y-122101144D02*
X113283834Y-122104563D01*
X113306443Y-122110227D01*
X113328387Y-122118079D01*
X113349457Y-122128044D01*
X113369448Y-122140026D01*
X113388168Y-122153910D01*
X113405438Y-122169562D01*
X113421090Y-122186832D01*
X113434974Y-122205552D01*
X113446956Y-122225543D01*
X113456921Y-122246613D01*
X113464773Y-122268557D01*
X113470437Y-122291166D01*
X113473856Y-122314221D01*
X113475000Y-122337500D01*
X113475000Y-122912500D01*
X113473856Y-122935779D01*
X113470437Y-122958834D01*
X113464773Y-122981443D01*
X113456921Y-123003387D01*
X113446956Y-123024457D01*
X113434974Y-123044448D01*
X113421090Y-123063168D01*
X113405438Y-123080438D01*
X113388168Y-123096090D01*
X113369448Y-123109974D01*
X113349457Y-123121956D01*
X113328387Y-123131921D01*
X113306443Y-123139773D01*
X113283834Y-123145437D01*
X113260779Y-123148856D01*
X113237500Y-123150000D01*
X112762500Y-123150000D01*
X112739221Y-123148856D01*
X112716166Y-123145437D01*
X112693557Y-123139773D01*
X112671613Y-123131921D01*
X112650543Y-123121956D01*
X112630552Y-123109974D01*
X112611832Y-123096090D01*
X112594562Y-123080438D01*
X112578910Y-123063168D01*
X112565026Y-123044448D01*
X112553044Y-123024457D01*
X112543079Y-123003387D01*
X112535227Y-122981443D01*
X112529563Y-122958834D01*
X112526144Y-122935779D01*
X112525000Y-122912500D01*
X112525000Y-122337500D01*
X112526144Y-122314221D01*
X112529563Y-122291166D01*
X112535227Y-122268557D01*
X112543079Y-122246613D01*
X112553044Y-122225543D01*
X112565026Y-122205552D01*
X112578910Y-122186832D01*
X112594562Y-122169562D01*
X112611832Y-122153910D01*
X112630552Y-122140026D01*
X112650543Y-122128044D01*
X112671613Y-122118079D01*
X112693557Y-122110227D01*
X112716166Y-122104563D01*
X112739221Y-122101144D01*
X112762500Y-122100000D01*
X113237500Y-122100000D01*
X113260779Y-122101144D01*
X113260779Y-122101144D01*
G37*
D28*
X113000000Y-122625000D03*
D14*
G36*
X113260779Y-123851144D02*
X113283834Y-123854563D01*
X113306443Y-123860227D01*
X113328387Y-123868079D01*
X113349457Y-123878044D01*
X113369448Y-123890026D01*
X113388168Y-123903910D01*
X113405438Y-123919562D01*
X113421090Y-123936832D01*
X113434974Y-123955552D01*
X113446956Y-123975543D01*
X113456921Y-123996613D01*
X113464773Y-124018557D01*
X113470437Y-124041166D01*
X113473856Y-124064221D01*
X113475000Y-124087500D01*
X113475000Y-124662500D01*
X113473856Y-124685779D01*
X113470437Y-124708834D01*
X113464773Y-124731443D01*
X113456921Y-124753387D01*
X113446956Y-124774457D01*
X113434974Y-124794448D01*
X113421090Y-124813168D01*
X113405438Y-124830438D01*
X113388168Y-124846090D01*
X113369448Y-124859974D01*
X113349457Y-124871956D01*
X113328387Y-124881921D01*
X113306443Y-124889773D01*
X113283834Y-124895437D01*
X113260779Y-124898856D01*
X113237500Y-124900000D01*
X112762500Y-124900000D01*
X112739221Y-124898856D01*
X112716166Y-124895437D01*
X112693557Y-124889773D01*
X112671613Y-124881921D01*
X112650543Y-124871956D01*
X112630552Y-124859974D01*
X112611832Y-124846090D01*
X112594562Y-124830438D01*
X112578910Y-124813168D01*
X112565026Y-124794448D01*
X112553044Y-124774457D01*
X112543079Y-124753387D01*
X112535227Y-124731443D01*
X112529563Y-124708834D01*
X112526144Y-124685779D01*
X112525000Y-124662500D01*
X112525000Y-124087500D01*
X112526144Y-124064221D01*
X112529563Y-124041166D01*
X112535227Y-124018557D01*
X112543079Y-123996613D01*
X112553044Y-123975543D01*
X112565026Y-123955552D01*
X112578910Y-123936832D01*
X112594562Y-123919562D01*
X112611832Y-123903910D01*
X112630552Y-123890026D01*
X112650543Y-123878044D01*
X112671613Y-123868079D01*
X112693557Y-123860227D01*
X112716166Y-123854563D01*
X112739221Y-123851144D01*
X112762500Y-123850000D01*
X113237500Y-123850000D01*
X113260779Y-123851144D01*
X113260779Y-123851144D01*
G37*
D28*
X113000000Y-124375000D03*
G04 #@! TD*
D14*
G04 #@! TO.C,R8*
G36*
X111260779Y-123851144D02*
X111283834Y-123854563D01*
X111306443Y-123860227D01*
X111328387Y-123868079D01*
X111349457Y-123878044D01*
X111369448Y-123890026D01*
X111388168Y-123903910D01*
X111405438Y-123919562D01*
X111421090Y-123936832D01*
X111434974Y-123955552D01*
X111446956Y-123975543D01*
X111456921Y-123996613D01*
X111464773Y-124018557D01*
X111470437Y-124041166D01*
X111473856Y-124064221D01*
X111475000Y-124087500D01*
X111475000Y-124662500D01*
X111473856Y-124685779D01*
X111470437Y-124708834D01*
X111464773Y-124731443D01*
X111456921Y-124753387D01*
X111446956Y-124774457D01*
X111434974Y-124794448D01*
X111421090Y-124813168D01*
X111405438Y-124830438D01*
X111388168Y-124846090D01*
X111369448Y-124859974D01*
X111349457Y-124871956D01*
X111328387Y-124881921D01*
X111306443Y-124889773D01*
X111283834Y-124895437D01*
X111260779Y-124898856D01*
X111237500Y-124900000D01*
X110762500Y-124900000D01*
X110739221Y-124898856D01*
X110716166Y-124895437D01*
X110693557Y-124889773D01*
X110671613Y-124881921D01*
X110650543Y-124871956D01*
X110630552Y-124859974D01*
X110611832Y-124846090D01*
X110594562Y-124830438D01*
X110578910Y-124813168D01*
X110565026Y-124794448D01*
X110553044Y-124774457D01*
X110543079Y-124753387D01*
X110535227Y-124731443D01*
X110529563Y-124708834D01*
X110526144Y-124685779D01*
X110525000Y-124662500D01*
X110525000Y-124087500D01*
X110526144Y-124064221D01*
X110529563Y-124041166D01*
X110535227Y-124018557D01*
X110543079Y-123996613D01*
X110553044Y-123975543D01*
X110565026Y-123955552D01*
X110578910Y-123936832D01*
X110594562Y-123919562D01*
X110611832Y-123903910D01*
X110630552Y-123890026D01*
X110650543Y-123878044D01*
X110671613Y-123868079D01*
X110693557Y-123860227D01*
X110716166Y-123854563D01*
X110739221Y-123851144D01*
X110762500Y-123850000D01*
X111237500Y-123850000D01*
X111260779Y-123851144D01*
X111260779Y-123851144D01*
G37*
D28*
X111000000Y-124375000D03*
D14*
G36*
X111260779Y-122101144D02*
X111283834Y-122104563D01*
X111306443Y-122110227D01*
X111328387Y-122118079D01*
X111349457Y-122128044D01*
X111369448Y-122140026D01*
X111388168Y-122153910D01*
X111405438Y-122169562D01*
X111421090Y-122186832D01*
X111434974Y-122205552D01*
X111446956Y-122225543D01*
X111456921Y-122246613D01*
X111464773Y-122268557D01*
X111470437Y-122291166D01*
X111473856Y-122314221D01*
X111475000Y-122337500D01*
X111475000Y-122912500D01*
X111473856Y-122935779D01*
X111470437Y-122958834D01*
X111464773Y-122981443D01*
X111456921Y-123003387D01*
X111446956Y-123024457D01*
X111434974Y-123044448D01*
X111421090Y-123063168D01*
X111405438Y-123080438D01*
X111388168Y-123096090D01*
X111369448Y-123109974D01*
X111349457Y-123121956D01*
X111328387Y-123131921D01*
X111306443Y-123139773D01*
X111283834Y-123145437D01*
X111260779Y-123148856D01*
X111237500Y-123150000D01*
X110762500Y-123150000D01*
X110739221Y-123148856D01*
X110716166Y-123145437D01*
X110693557Y-123139773D01*
X110671613Y-123131921D01*
X110650543Y-123121956D01*
X110630552Y-123109974D01*
X110611832Y-123096090D01*
X110594562Y-123080438D01*
X110578910Y-123063168D01*
X110565026Y-123044448D01*
X110553044Y-123024457D01*
X110543079Y-123003387D01*
X110535227Y-122981443D01*
X110529563Y-122958834D01*
X110526144Y-122935779D01*
X110525000Y-122912500D01*
X110525000Y-122337500D01*
X110526144Y-122314221D01*
X110529563Y-122291166D01*
X110535227Y-122268557D01*
X110543079Y-122246613D01*
X110553044Y-122225543D01*
X110565026Y-122205552D01*
X110578910Y-122186832D01*
X110594562Y-122169562D01*
X110611832Y-122153910D01*
X110630552Y-122140026D01*
X110650543Y-122128044D01*
X110671613Y-122118079D01*
X110693557Y-122110227D01*
X110716166Y-122104563D01*
X110739221Y-122101144D01*
X110762500Y-122100000D01*
X111237500Y-122100000D01*
X111260779Y-122101144D01*
X111260779Y-122101144D01*
G37*
D28*
X111000000Y-122625000D03*
G04 #@! TD*
M02*
