G04 #@! TF.GenerationSoftware,KiCad,Pcbnew,5.0.1*
G04 #@! TF.CreationDate,2018-10-22T18:12:29+01:00*
G04 #@! TF.ProjectId,ecp5_soc_hat,656370355F736F635F6861742E6B6963,rev?*
G04 #@! TF.SameCoordinates,Original*
G04 #@! TF.FileFunction,Legend,Bot*
G04 #@! TF.FilePolarity,Positive*
%FSLAX46Y46*%
G04 Gerber Fmt 4.6, Leading zero omitted, Abs format (unit mm)*
G04 Created by KiCad (PCBNEW 5.0.1) date Mon 22 Oct 2018 18:12:29 BST*
%MOMM*%
%LPD*%
G01*
G04 APERTURE LIST*
%ADD10C,0.120000*%
%ADD11C,0.150000*%
G04 APERTURE END LIST*
D10*
G04 #@! TO.C,X4*
X149860000Y-57090000D02*
X148530000Y-57090000D01*
X148530000Y-57090000D02*
X148530000Y-58420000D01*
X151130000Y-57090000D02*
X151130000Y-59690000D01*
X151130000Y-59690000D02*
X148530000Y-59690000D01*
X148530000Y-59690000D02*
X148530000Y-108010000D01*
X153730000Y-108010000D02*
X148530000Y-108010000D01*
X153730000Y-57090000D02*
X153730000Y-108010000D01*
X153730000Y-57090000D02*
X151130000Y-57090000D01*
G04 #@! TO.C,X3*
X120710000Y-57090000D02*
X118110000Y-57090000D01*
X120710000Y-57090000D02*
X120710000Y-108010000D01*
X120710000Y-108010000D02*
X115510000Y-108010000D01*
X115510000Y-59690000D02*
X115510000Y-108010000D01*
X118110000Y-59690000D02*
X115510000Y-59690000D01*
X118110000Y-57090000D02*
X118110000Y-59690000D01*
X115510000Y-57090000D02*
X115510000Y-58420000D01*
X116840000Y-57090000D02*
X115510000Y-57090000D01*
G04 #@! TO.C,X4*
D11*
X151939523Y-55102380D02*
X151272857Y-56102380D01*
X151272857Y-55102380D02*
X151939523Y-56102380D01*
X150463333Y-55435714D02*
X150463333Y-56102380D01*
X150701428Y-55054761D02*
X150939523Y-55769047D01*
X150320476Y-55769047D01*
G04 #@! TO.C,X3*
X118919523Y-55102380D02*
X118252857Y-56102380D01*
X118252857Y-55102380D02*
X118919523Y-56102380D01*
X117967142Y-55102380D02*
X117348095Y-55102380D01*
X117681428Y-55483333D01*
X117538571Y-55483333D01*
X117443333Y-55530952D01*
X117395714Y-55578571D01*
X117348095Y-55673809D01*
X117348095Y-55911904D01*
X117395714Y-56007142D01*
X117443333Y-56054761D01*
X117538571Y-56102380D01*
X117824285Y-56102380D01*
X117919523Y-56054761D01*
X117967142Y-56007142D01*
G04 #@! TD*
M02*
