M48
;DRILL file {KiCad 5.0.1} date Mon 22 Oct 2018 18:12:26 BST
;FORMAT={-:-/ absolute / inch / decimal}
FMAT,2
INCH,TZ
T1C0.0118
T2C0.0236
T3C0.0394
T4C0.0906
T5C0.1260
%
G90
G05
M72
T1
X4.1339Y-4.7638
X4.2323Y-4.7638
X4.3504Y-4.4882
X4.3504Y-4.5669
X4.3504Y-4.6457
X4.4094Y-3.6417
X4.4094Y-4.0945
X4.4094Y-4.252
X4.4094Y-4.4291
X4.4685Y-4.3701
X4.4685Y-4.5669
X4.4882Y-3.3465
X4.4882Y-3.563
X4.5276Y-4.4882
X4.5472Y-4.5669
X4.5472Y-4.685
X4.5472Y-4.9213
X4.5866Y-4.2913
X4.5866Y-4.9606
X4.626Y-4.8622
X4.6457Y-4.4882
X4.6457Y-5.0197
X4.6654Y-4.9213
X4.685Y-4.8622
X4.7047Y-5.0197
X4.7244Y-4.4488
X4.7244Y-4.9213
X4.7638Y-4.2913
X4.7638Y-4.8622
X4.7835Y-4.9213
X4.8031Y-5.0197
X4.8031Y-5.1969
X4.8031Y-5.3543
X4.8425Y-4.4488
X4.8425Y-4.9213
X4.8819Y-3.937
X4.8819Y-4.2323
X4.9012Y-2.4807
X4.9016Y-2.6772
X4.9114Y-3.248
X4.9213Y-4.3504
X4.9508Y-4.7933
X4.9606Y-4.1732
X4.9803Y-5.0197
X4.9803Y-5.1969
X4.9803Y-5.3543
X4.9961Y-2.5835
X5.Y-4.1437
X5.Y-4.685
X5.Y-4.7933
X5.0098Y-2.7657
X5.0197Y-3.5728
X5.0197Y-4.0748
X5.0295Y-3.7894
X5.0394Y-4.2717
X5.0394Y-4.5866
X5.0492Y-4.1929
X5.0492Y-4.4685
X5.0492Y-4.7933
X5.0591Y-3.3858
X5.0984Y-4.8031
X5.1378Y-2.5394
X5.1378Y-2.6181
X5.1378Y-4.124
X5.1575Y-2.7165
X5.1575Y-2.7756
X5.1575Y-2.9134
X5.1575Y-3.0118
X5.1575Y-3.0906
X5.1575Y-5.0197
X5.1575Y-5.1969
X5.1575Y-5.3543
X5.1772Y-3.9173
X5.1969Y-3.3858
X5.2362Y-2.9134
X5.2362Y-3.0118
X5.2362Y-3.0906
X5.2362Y-4.0157
X5.2362Y-4.252
X5.248Y-4.315
X5.248Y-4.378
X5.2559Y-2.5394
X5.2559Y-2.6181
X5.2559Y-2.7165
X5.2559Y-2.7756
X5.2657Y-4.5276
X5.315Y-3.3858
X5.315Y-4.8425
X5.315Y-5.
X5.3346Y-3.9173
X5.3346Y-4.6457
X5.3445Y-4.8031
X5.3543Y-2.4213
X5.3543Y-2.6378
X5.3543Y-2.7165
X5.3543Y-4.4882
X5.374Y-2.874
X5.374Y-2.9724
X5.374Y-3.1102
X5.374Y-3.7205
X5.3937Y-3.8583
X5.4232Y-4.8031
X5.4331Y-2.874
X5.4331Y-2.9724
X5.4331Y-3.1693
X5.4331Y-4.311
X5.4488Y-2.6764
X5.4539Y-2.8346
X5.4571Y-3.2445
X5.4724Y-3.5433
X5.4921Y-3.8583
X5.4921Y-4.9213
X5.5118Y-3.3465
X5.5118Y-3.7205
X5.5118Y-4.6654
X5.5512Y-5.
X5.5709Y-3.8583
X5.5709Y-4.311
X5.5906Y-3.4449
X5.5921Y-3.2429
X5.598Y-2.678
X5.6102Y-4.6063
X5.6102Y-5.0591
X5.624Y-2.861
X5.6299Y-3.7205
X5.6299Y-4.9213
X5.6496Y-4.4882
X5.6496Y-5.0591
X5.6693Y-3.3268
X5.6693Y-3.8583
X5.689Y-3.5433
X5.6949Y-2.5453
X5.6988Y-4.3504
X5.7087Y-5.
X5.7102Y-2.752
X5.748Y-3.4252
X5.748Y-3.8583
X5.748Y-4.1929
X5.748Y-4.2913
X5.748Y-4.9213
X5.7559Y-4.252
X5.7579Y-4.5276
X5.7579Y-4.625
X5.7579Y-4.686
X5.7677Y-4.3504
X5.7677Y-5.0591
X5.7874Y-4.4882
X5.8071Y-3.9173
X5.8071Y-4.0157
X5.8071Y-4.1339
X5.8189Y-4.252
X5.8268Y-3.5433
X5.8268Y-4.3307
X5.8268Y-4.6063
X5.8465Y-4.9124
X5.9055Y-4.5866
X5.9252Y-4.8524
X5.9843Y-5.0492
X6.0039Y-4.4094
X6.0236Y-4.5374
X6.0335Y-4.5079
X6.0433Y-5.0591
X6.063Y-3.9764
X6.0728Y-4.5866
X6.0827Y-4.813
X6.1024Y-4.5768
X6.1811Y-3.9764
X6.1811Y-4.1339
X6.1811Y-4.252
X6.1811Y-4.4685
X6.1811Y-4.6063
X6.1811Y-4.7441
X6.1811Y-4.8622
X6.3287Y-4.8524
X6.4764Y-4.7441
X6.4764Y-4.8622
T2
X4.3602Y-4.7047
X4.4587Y-4.7047
X4.5079Y-4.3406
X4.5965Y-4.3996
X4.8425Y-2.2441
X4.9213Y-2.3228
X5.2751Y-3.2977
X5.2823Y-2.3228
X5.3543Y-3.2283
X5.452Y-2.4882
X5.5118Y-2.3228
X5.5988Y-2.4031
T3
X4.6Y-2.3
X4.6Y-2.4
X4.6Y-2.5
X4.6Y-2.6
X4.6Y-2.7
X4.6Y-2.8
X4.6Y-2.9
X4.6Y-3.
X4.6Y-3.1
X4.6Y-3.2
X4.6Y-3.3
X4.6Y-3.4
X4.6Y-3.5
X4.6Y-3.6
X4.6Y-3.7
X4.6Y-3.8
X4.6Y-3.9
X4.6Y-4.
X4.6Y-4.1
X4.6Y-4.2
X4.7Y-2.3
X4.7Y-2.4
X4.7Y-2.5
X4.7Y-2.6
X4.7Y-2.7
X4.7Y-2.8
X4.7Y-2.9
X4.7Y-3.
X4.7Y-3.1
X4.7Y-3.2
X4.7Y-3.3
X4.7Y-3.4
X4.7Y-3.5
X4.7Y-3.6
X4.7Y-3.7
X4.7Y-3.8
X4.7Y-3.9
X4.7Y-4.
X4.7Y-4.1
X4.7Y-4.2
X5.3543Y-4.0157
X5.3543Y-4.1157
X5.4543Y-4.0157
X5.4543Y-4.1157
X5.5543Y-4.0157
X5.5543Y-4.1157
X5.6543Y-4.0157
X5.6543Y-4.1157
X5.9Y-2.3
X5.9Y-2.4
X5.9Y-2.5
X5.9Y-2.6
X5.9Y-2.7
X5.9Y-2.8
X5.9Y-2.9
X5.9Y-3.
X5.9Y-3.1
X5.9Y-3.2
X5.9Y-3.3
X5.9Y-3.4
X5.9Y-3.5
X5.9Y-3.6
X5.9Y-3.7
X5.9Y-3.8
X5.9Y-3.9
X5.9Y-4.
X5.9Y-4.1
X5.9Y-4.2
X6.Y-2.3
X6.Y-2.4
X6.Y-2.5
X6.Y-2.6
X6.Y-2.7
X6.Y-2.8
X6.Y-2.9
X6.Y-3.
X6.Y-3.1
X6.Y-3.2
X6.Y-3.3
X6.Y-3.4
X6.Y-3.5
X6.Y-3.6
X6.Y-3.7
X6.Y-3.8
X6.Y-3.9
X6.Y-4.
X6.Y-4.1
X6.Y-4.2
X5.7417Y-5.1575
X5.7417Y-5.3134
X5.7868Y-5.2354
X5.8319Y-5.1575
X5.8319Y-5.3134
X5.877Y-5.2354
X5.922Y-5.1575
X5.922Y-5.3134
X5.9671Y-5.2354
X6.0122Y-5.1575
X6.0122Y-5.3134
X6.0573Y-5.2354
X6.1024Y-5.1575
X6.1024Y-5.3134
X6.1474Y-5.2354
T4
X4.1535Y-5.2638
X4.6713Y-5.2638
T5
X5.4404Y-5.2382
X6.4246Y-5.2382
T0
M30
